<?xml version="1.0" standalone="no"?>
<!DOCTYPE svg PUBLIC "-//W3C//DTD SVG 1.1//EN" "http://www.w3.org/Graphics/SVG/1.1/DTD/svg11.dtd" >
<svg>
<metadata>
Created by FontForge 20090914 at Thu Dec 29 14:26:14 2022
 By www-data
Copyright (c) Mark Simonson, 2005. All rights reserved.
</metadata>
<defs>
<font id="ProximaNova-Regular" horiz-adv-x="572" >
  <font-face 
    font-family="Proxima Nova Rg"
    font-weight="400"
    font-stretch="normal"
    units-per-em="1000"
    panose-1="2 0 5 6 3 0 0 2 0 4"
    ascent="790"
    descent="-210"
    x-height="483"
    cap-height="667"
    bbox="-172 -272 1082 906.999"
    underline-thickness="20"
    underline-position="-113"
    unicode-range="U+000D-U+FB04"
  />
<missing-glyph horiz-adv-x="507" 
d="M429 -90h-351v842h351v-842zM397 -60v782h-288v-782h288z" />
    <glyph glyph-name="f_f_j" unicode="ffj" horiz-adv-x="792" 
d="M454 0h-75v417h-80v66h80v37c0 49.333 12.667 87.833 38 115.5s59.333 41.5 102 41.5c30.667 0 55 -5.66699 73 -17l-19 -57c-12.667 8 -27 12 -43 12c-24.667 0 -43.5 -8.16699 -56.5 -24.5s-19.5 -39.833 -19.5 -70.5v-37h98v-66h-98v-417zM679 552
c-13.333 0 -25 4.83301 -35 14.5s-15 21.5 -15 35.5s5 26 15 36s21.667 15 35 15c14 0 26 -5 36 -15s15 -22 15 -36s-5 -25.833 -15 -35.5s-22 -14.5 -36 -14.5zM574 -196c-40 0 -75.333 12.001 -106 36.001l27 57c20.667 -20.667 43.667 -31 69 -31
c24 0 43 7.16699 57 21.5s21 36.166 21 65.499v530h75v-530c0 -47.333 -12.333 -84 -37 -110s-60 -39 -106 -39zM171 0.000976562h-75v417h-80v66h80v37c0 49.333 12.5 87.833 37.5 115.5s59.167 41.5 102.5 41.5c41.333 0 75.333 -12.333 102 -37l-31 -49
c-18 16 -38 24 -60 24c-24.667 0 -43.5 -8.16699 -56.5 -24.5s-19.5 -39.833 -19.5 -70.5v-37h98v-66h-98v-417z" />
    <glyph glyph-name="f_j" unicode="fj" horiz-adv-x="509" 
d="M171 0h-75v417h-80v66h80v37c0 49.333 12.667 87.833 38 115.5s59.333 41.5 102 41.5c30.667 0 55 -5.66699 73 -17l-19 -57c-12.667 8 -27 12 -43 12c-24.667 0 -43.5 -8.16699 -56.5 -24.5s-19.5 -39.833 -19.5 -70.5v-37h98v-66h-98v-417zM395 552
c-13.333 0 -25 4.83301 -35 14.5s-15 21.5 -15 35.5s5 26 15 36s21.667 15 35 15c14 0 26 -5 36 -15s15 -22 15 -36s-5 -25.833 -15 -35.5s-22 -14.5 -36 -14.5zM290 -196c-39.333 0 -74.667 12.001 -106 36.001l27 57c20.667 -20.667 43.667 -31 69 -31
c24 0 43 7.16699 57 21.5s21 36.166 21 65.499v530h75v-530c0 -47.333 -12.333 -84 -37 -110s-60 -39 -106 -39z" />
    <glyph glyph-name="f_f" unicode="ff" horiz-adv-x="567" 
d="M171 0h-75v417h-80v66h80v37c0 49.333 12.5 87.833 37.5 115.5s59.167 41.5 102.5 41.5c41.333 0 75.333 -12.333 102 -37l-31 -49c-18 16 -38 24 -60 24c-24.667 0 -43.5 -8.16699 -56.5 -24.5s-19.5 -39.833 -19.5 -70.5v-37h98v-66h-98v-417zM454 0h-75v417h-80v66h80
v37c0 49.333 12.5 87.833 37.5 115.5s59.167 41.5 102.5 41.5c41.333 0 75.333 -12.333 102 -37l-31 -49c-18 16 -38 24 -60 24c-24.667 0 -43.5 -8.16699 -56.5 -24.5s-19.5 -39.833 -19.5 -70.5v-37h98v-66h-98v-417z" />
    <glyph glyph-name="fi" unicode="fi" horiz-adv-x="509" 
d="M171 0h-75v417h-80v66h80v37c0 49.333 12.667 87.833 38 115.5s59.333 41.5 102 41.5c30.667 0 55 -5.66699 73 -17l-19 -57c-12.667 8 -27 12 -43 12c-24.667 0 -43.5 -8.16699 -56.5 -24.5s-19.5 -39.833 -19.5 -70.5v-37h98v-66h-98v-417zM395 552
c-13.333 0 -25 4.83301 -35 14.5s-15 21.5 -15 35.5s5 26 15 36s21.667 15 35 15c14 0 26 -5 36 -15s15 -22 15 -36s-5 -25.833 -15 -35.5s-22 -14.5 -36 -14.5zM433 0h-75v483h75v-483z" />
    <glyph glyph-name="fl" unicode="fl" horiz-adv-x="509" 
d="M171 0h-75v417h-80v66h80v37c0 49.333 12.667 87.833 38 115.5s59.333 41.5 102 41.5c30.667 0 55 -5.66699 73 -17l-19 -57c-12.667 8 -27 12 -43 12c-24.667 0 -43.5 -8.16699 -56.5 -24.5s-19.5 -39.833 -19.5 -70.5v-37h98v-66h-98v-417zM433 0h-75v667h75v-667z" />
    <glyph glyph-name="f_f_i" unicode="ffi" horiz-adv-x="792" 
d="M454 0h-75v417h-80v66h80v37c0 49.333 12.667 87.833 38 115.5s59.333 41.5 102 41.5c30.667 0 55 -5.66699 73 -17l-19 -57c-12.667 8 -27 12 -43 12c-24.667 0 -43.5 -8.16699 -56.5 -24.5s-19.5 -39.833 -19.5 -70.5v-37h98v-66h-98v-417zM679 552
c-13.333 0 -25 4.83301 -35 14.5s-15 21.5 -15 35.5s5 26 15 36s21.667 15 35 15c14 0 26 -5 36 -15s15 -22 15 -36s-5 -25.833 -15 -35.5s-22 -14.5 -36 -14.5zM717 0h-75v483h75v-483zM171 0h-75v417h-80v66h80v37c0 49.333 12.5 87.833 37.5 115.5
s59.167 41.5 102.5 41.5c41.333 0 75.333 -12.333 102 -37l-31 -49c-18 16 -38 24 -60 24c-24.667 0 -43.5 -8.16699 -56.5 -24.5s-19.5 -39.833 -19.5 -70.5v-37h98v-66h-98v-417z" />
    <glyph glyph-name="f_f_l" unicode="ffl" horiz-adv-x="792" 
d="M454 0h-75v417h-80v66h80v37c0 49.333 12.667 87.833 38 115.5s59.333 41.5 102 41.5c30.667 0 55 -5.66699 73 -17l-19 -57c-12.667 8 -27 12 -43 12c-24.667 0 -43.5 -8.16699 -56.5 -24.5s-19.5 -39.833 -19.5 -70.5v-37h98v-66h-98v-417zM717 0h-75v667h75v-667z
M171 0h-75v417h-80v66h80v37c0 49.333 12.5 87.833 37.5 115.5s59.167 41.5 102.5 41.5c41.333 0 75.333 -12.333 102 -37l-31 -49c-18 16 -38 24 -60 24c-24.667 0 -43.5 -8.16699 -56.5 -24.5s-19.5 -39.833 -19.5 -70.5v-37h98v-66h-98v-417z" />
    <glyph glyph-name="f_b" unicode="fb" horiz-adv-x="858" 
d="M171 0h-75v417h-80v66h80v37c0 49.333 12.667 87.833 38 115.5s59.333 41.5 102 41.5c30.667 0 55 -5.66699 73 -17l-19 -57c-12.667 8 -27 12 -43 12c-24.667 0 -43.5 -8.16699 -56.5 -24.5s-19.5 -39.833 -19.5 -70.5v-37h98v-66h-98v-417zM433 131
c13.333 -21.333 33.5 -39.334 60.5 -54.001s54.833 -22 83.5 -22c48 0 86 17.333 114 52s42 79.334 42 134.001s-14 99.5 -42 134.5s-66 52.5 -114 52.5c-28.667 0 -56.5 -7.5 -83.5 -22.5s-47.167 -33.5 -60.5 -55.5v-219zM433 -0.000976562h-75.001v667h75v-257
c42 56.667 96.333 85 163 85c63.333 0 115 -23.167 155 -69.5s60 -107.833 60 -184.5c0 -77.333 -19.833 -138.833 -59.5 -184.5s-91.5 -68.5 -155.5 -68.5c-67.333 0 -121.666 28 -162.999 84v-72z" />
    <glyph glyph-name="f_h" unicode="fh" horiz-adv-x="835" 
d="M171 0h-75v417h-80v66h80v37c0 49.333 12.667 87.833 38 115.5s59.333 41.5 102 41.5c30.667 0 55 -5.66699 73 -17l-19 -57c-12.667 8 -27 12 -43 12c-24.667 0 -43.5 -8.16699 -56.5 -24.5s-19.5 -39.833 -19.5 -70.5v-37h98v-66h-98v-417zM760 0l-75.002 0.000976562
v318c0 40 -9.33301 68.333 -28 85s-45.667 25 -81 25c-27.333 0 -54.166 -7.33301 -80.499 -22s-47.166 -32.334 -62.499 -53.001v-353h-75v667h75v-254c18.667 22 43.667 41.167 75 57.5s64 24.5 98 24.5c102.667 0 154 -51.333 154 -154v-341z" />
    <glyph glyph-name="f_k" unicode="fk" horiz-adv-x="798" 
d="M171 0h-75v417h-80v66h80v37c0 49.333 12.667 87.833 38 115.5s59.333 41.5 102 41.5c30.667 0 55 -5.66699 73 -17l-19 -57c-12.667 8 -27 12 -43 12c-24.667 0 -43.5 -8.16699 -56.5 -24.5s-19.5 -39.833 -19.5 -70.5v-37h98v-66h-98v-417zM783 0h-96l-174 217l-80 -79
v-138h-75v667h75v-441l254 257h95l-214 -219z" />
    <glyph glyph-name=".notdef" horiz-adv-x="507" 
d="M429 -90h-351v842h351v-842zM397 -60v782h-288v-782h288z" />
    <glyph glyph-name=".null" horiz-adv-x="0" 
 />
    <glyph glyph-name=".null" horiz-adv-x="0" 
 />
    <glyph glyph-name="CR" unicode="&#xd;" horiz-adv-x="0" 
 />
    <glyph glyph-name="space" unicode=" " horiz-adv-x="258" 
 />
    <glyph glyph-name="exclam" unicode="!" horiz-adv-x="230" 
d="M146 187h-62l-16 480h94zM115 -10c-14.667 0 -27.5 5.5 -38.5 16.5s-16.5 23.833 -16.5 38.5c0 15.333 5.33301 28.333 16 39s23.667 16 39 16s28.333 -5.33301 39 -16s16 -23.667 16 -39c0 -14.667 -5.5 -27.5 -16.5 -38.5s-23.833 -16.5 -38.5 -16.5z" />
    <glyph glyph-name="quotedbl" unicode="&#x22;" horiz-adv-x="343" 
d="M118 412h-37.001c-18 136.667 -27 209.667 -27 219c0 12.667 4.33301 23.5 13 32.5s19.334 13.5 32.001 13.5s23.5 -4.5 32.5 -13.5s13.5 -19.833 13.5 -32.5zM262.999 412h-37.001c-18 136.667 -27 209.667 -27 219c0 12.667 4.5 23.5 13.5 32.5s19.833 13.5 32.5 13.5
s23.334 -4.5 32.001 -13.5s13 -19.833 13 -32.5z" />
    <glyph glyph-name="numbersign" unicode="#" horiz-adv-x="590" 
d="M300 0h-61l61 181h-111l-60 -181h-62l61 181h-106l17 53h107l66 199h-108l16 52h110l60 182h62l-60 -182h110l60 182h61l-61 -182h107l-15 -52h-109l-67 -199h111l-16 -53h-113zM317 234l66 199h-110l-66 -199h110z" />
    <glyph glyph-name="dollar" unicode="$" horiz-adv-x="593" 
d="M271 -100v89.001c-96 5.33301 -172.333 40.333 -229 105l49 63c48.667 -54.667 108.667 -86 180 -94v244c-25.333 6.66699 -45.833 12.667 -61.5 18s-33.834 13.166 -54.501 23.499s-37 21.5 -49 33.5s-22.167 27.333 -30.5 46s-12.5 40 -12.5 64
c0 51.333 19.333 94 58 128s88.667 52.667 150 56v92h61v-93c80.667 -8 146.334 -38.333 197.001 -91l-50 -61c-39.333 42 -88.333 67.333 -147 76v-217c31.333 -8.66699 57.333 -17.167 78 -25.5s42.5 -20 65.5 -35s40.167 -34 51.5 -57s17 -49.833 17 -80.5
c0 -50.667 -17.333 -94.5 -52 -131.5s-88 -58.167 -160 -63.5v-89h-61zM458 177.001c0 30 -10.8311 53.333 -32.498 70s-52.834 31 -93.501 43v-227c43.333 4.66699 75.166 18 95.499 40s30.5 46.667 30.5 74zM149.002 497.001c0 -25.333 10.333 -45.167 31 -59.5
s51 -27.5 91 -39.5v204c-36 -2.66699 -65.333 -13.5 -88 -32.5s-34 -43.167 -34 -72.5z" />
    <glyph glyph-name="percent" unicode="%" horiz-adv-x="731" 
d="M191 348c-47.333 0 -85.833 15.5 -115.5 46.5s-44.5 69.833 -44.5 116.5c0 47.333 15 86.833 45 118.5s68.333 47.5 115 47.5c47.333 0 86.166 -15.833 116.499 -47.5s45.5 -71.167 45.5 -118.5c0 -46.667 -15.167 -85.5 -45.5 -116.5s-69.166 -46.5 -116.499 -46.5z
M182 0h-54l426 667h55zM539 -12c-47.333 0 -85.833 15.5 -115.5 46.5s-44.5 69.833 -44.5 116.5c0 47.333 15 86.833 45 118.5s68.333 47.5 115 47.5c47.333 0 86 -15.833 116 -47.5s45 -71.167 45 -118.5c0 -46.667 -15 -85.5 -45 -116.5s-68.667 -46.5 -116 -46.5z
M191 398c29.333 0 53.667 10.833 73 32.5s29 48.5 29 80.5c0 33.333 -9.5 60.833 -28.5 82.5s-43.5 32.5 -73.5 32.5c-29.333 0 -53.333 -10.833 -72 -32.5s-28 -49.167 -28 -82.5c0 -32 9.33301 -58.833 28 -80.5s42.667 -32.5 72 -32.5zM539.001 38
c29.333 0 53.667 10.833 73 32.5s29 48.5 29 80.5c0 33.333 -9.5 60.833 -28.5 82.5s-43.5 32.5 -73.5 32.5s-54.333 -10.833 -73 -32.5s-28 -49.167 -28 -82.5c0 -32 9.5 -58.833 28.5 -80.5s43.167 -32.5 72.5 -32.5z" />
    <glyph glyph-name="ampersand" unicode="&#x26;" horiz-adv-x="641" 
d="M613 0l-103.998 0.00488281c-20 17.333 -44.333 40.666 -73 69.999c-54.667 -54.667 -118.667 -82 -192 -82c-60.667 0 -110.5 16.167 -149.5 48.5s-58.5 78.166 -58.5 137.499c0 47.333 13 86 39 116s62 57.333 108 82c-34 58 -51 108 -51 150
c0 44 16.167 80.833 48.5 110.5s72.166 44.5 119.499 44.5c44.667 0 81 -11.5 109 -34.5s42 -55.167 42 -96.5c0 -24 -4.33301 -45.5 -13 -64.5s-22.667 -36.333 -42 -52s-36.333 -27.834 -51 -36.501s-36 -20.334 -64 -35.001c21.333 -29.333 47 -61 77 -95
c24 -28.667 50.333 -58.334 79 -89.001c29.333 43.333 53.333 94 72 152l65 -28c-32.667 -76 -63 -133.333 -91 -172c33.333 -34.667 76.666 -76.667 129.999 -126zM251.002 50.0049c49.333 0 96 22 140 66c-44 46 -74.667 79.667 -92 101
c-30.667 35.333 -58.667 70.666 -84 105.999c-31.333 -19.333 -55.5 -40.166 -72.5 -62.499s-25.5 -49.5 -25.5 -81.5c0 -40 13.167 -71.5 39.5 -94.5s57.833 -34.5 94.5 -34.5zM210.002 521.005c0 -31.333 13.334 -69.667 40.001 -115c43.333 21.333 76.166 42 98.499 62
s33.5 45 33.5 75c0 24 -7.33301 42.5 -22 55.5s-33.667 19.5 -57 19.5c-26 0 -48 -9.16699 -66 -27.5s-27 -41.5 -27 -69.5z" />
    <glyph glyph-name="quotesingle" unicode="'" horiz-adv-x="199" 
d="M118 412h-37.001c-18 136.667 -27 209.667 -27 219c0 12.667 4.33301 23.5 13 32.5s19.334 13.5 32.001 13.5s23.5 -4.5 32.5 -13.5s13.5 -19.833 13.5 -32.5z" />
    <glyph glyph-name="parenleft" unicode="(" horiz-adv-x="248" 
d="M230 -164l-45 -34.999c-94 128.667 -141 276 -141 442c0 165.333 47 312.666 141 441.999l45 -34c-35.333 -70 -61.5 -136 -78.5 -198s-25.5 -132 -25.5 -210s8.5 -148.167 25.5 -210.5s43.167 -127.833 78.5 -196.5z" />
    <glyph glyph-name="parenright" unicode=")" horiz-adv-x="248" 
d="M62 -199l-45 35c35.333 68.667 61.666 134.167 78.999 196.5s26 132.5 26 210.5c0 78.667 -8.66699 149 -26 211s-43.666 127.667 -78.999 197l45 34c94.667 -128.667 142 -276 142 -442c0 -166.667 -47.333 -314 -142 -442z" />
    <glyph glyph-name="asterisk" unicode="*" horiz-adv-x="340" 
d="M193 389h-46l5 115l-96 -63l-22 40l102 52l-102 52l22 39l96 -62l-5 115h46l-6 -115l96 62l23 -39l-102 -52l102 -52l-23 -40l-96 63z" />
    <glyph glyph-name="plus" unicode="+" horiz-adv-x="499" 
d="M470 311h-192v-213h-57v213h-192v52h192v207h57v-207h192v-52z" />
    <glyph glyph-name="comma" unicode="," horiz-adv-x="230" 
d="M176 24c0 -29.333 -7.66504 -57.5029 -22.998 -84.5029s-35 -49.167 -59 -66.5l-37 31c16.667 10.667 31.167 24.834 43.5 42.501s19.5 34.5 21.5 50.5c-2.66699 -1.33301 -7.33398 -2 -14.001 -2c-14 0 -25.5 4.83301 -34.5 14.5s-13.5 21.834 -13.5 36.501
s5.16699 27.334 15.5 38.001s22.833 16 37.5 16c17.333 0 32.166 -6.83301 44.499 -20.5s18.5 -32.167 18.5 -55.5z" />
    <glyph glyph-name="hyphen" unicode="-" horiz-adv-x="300" 
d="M270 209h-240v66h240v-66z" />
    <glyph glyph-name="period" unicode="." horiz-adv-x="230" 
d="M115 -10c-15.333 0 -28.333 5.33301 -39 16s-16 23.667 -16 39s5.33301 28.333 16 39s23.667 16 39 16s28.333 -5.33301 39 -16s16 -23.667 16 -39s-5.33301 -28.333 -16 -39s-23.667 -16 -39 -16z" />
    <glyph glyph-name="slash" unicode="/" horiz-adv-x="296" 
d="M59 -20h-59l237 707h59z" />
    <glyph glyph-name="zero" unicode="0" horiz-adv-x="612" 
d="M306 -12c-44 0 -82.833 10.167 -116.5 30.5s-60.334 47.5 -80.001 81.5s-34.334 70.667 -44.001 110s-14.5 80.333 -14.5 123s4.83301 83.667 14.5 123s24.334 75.833 44.001 109.5s46.334 60.667 80.001 81s72.5 30.5 116.5 30.5c43.333 0 82 -10.167 116 -30.5
s60.833 -47.333 80.5 -81s34.334 -70.167 44.001 -109.5s14.5 -80.333 14.5 -123s-4.83301 -83.667 -14.5 -123s-24.334 -76 -44.001 -110s-46.5 -61.167 -80.5 -81.5s-72.667 -30.5 -116 -30.5zM306 62c40 0 73.333 13.833 100 41.5s45 60.834 55 99.501s15 82 15 130
s-5 91.333 -15 130s-28.333 71.667 -55 99s-60 41 -100 41s-73.333 -13.667 -100 -41s-45 -60.333 -55 -99s-15 -82 -15 -130s5 -91.333 15 -130s28.333 -71.834 55 -99.501s60 -41.5 100 -41.5z" />
    <glyph glyph-name="one" unicode="1" horiz-adv-x="339" 
d="M261 0h-83v557l-107 -113l-50 51l167 172h73v-667z" />
    <glyph glyph-name="two" unicode="2" horiz-adv-x="588" 
d="M512 0l-458.002 0.00292969v66l161.5 130.5c38.333 32.333 75.333 66.666 111 102.999s60.834 68.666 75.501 96.999s22 56.5 22 84.5c0 40 -13.667 70.333 -41 91s-60 31 -98 31c-76.667 0 -137 -28 -181 -84l-51 53c25.333 33.333 58.5 59.166 99.5 77.499
s85.167 27.5 132.5 27.5c60.667 0 113.167 -17 157.5 -51s66.5 -82.333 66.5 -145c0 -62 -26.667 -123.833 -80 -185.5s-134.666 -135.5 -243.999 -221.5h327v-74z" />
    <glyph glyph-name="three" unicode="3" horiz-adv-x="557" 
d="M266 -12c-53.333 0 -100.67 10.3359 -142.003 31.0029s-73 47 -95 79l49 52c20 -26.667 46.333 -48 79 -64s68.334 -24 107.001 -24c48.667 0 86.834 11.167 114.501 33.5s41.5 52.833 41.5 91.5c0 40 -14.833 69.667 -44.5 89s-70.167 29 -121.5 29
c-39.333 0 -62.333 -0.333008 -69 -1v76c7.33301 -0.666992 30.333 -1 69 -1c45.333 0 82.5 9.16699 111.5 27.5s43.5 45.833 43.5 82.5c0 35.333 -14.167 63.166 -42.5 83.499s-63.833 30.5 -106.5 30.5c-67.333 0 -126 -27 -176 -81l-46 52
c56.667 68.667 132.667 103 228 103c66 0 120.167 -15.833 162.5 -47.5s63.5 -75.167 63.5 -130.5c0 -44 -14.667 -79.167 -44 -105.5s-62.666 -42.833 -99.999 -49.5c36.667 -3.33301 71.5 -19.333 104.5 -48s49.5 -67.334 49.5 -116.001
c0 -56.667 -21.333 -102.834 -64 -138.501s-100 -53.5 -172 -53.5z" />
    <glyph glyph-name="four" unicode="4" horiz-adv-x="558" 
d="M432 0h-83v169h-317v69l286 429h114v-425h94v-73h-94v-169zM349 242v348l-234 -348h234z" />
    <glyph glyph-name="five" unicode="5" horiz-adv-x="590" 
d="M301 -12c-102.667 0 -181 35.667 -235 107l51 55c46 -58.667 107.333 -88 184 -88c45.333 0 82.333 13.667 111 41s43 61.333 43 102c0 43.333 -14.167 78.166 -42.5 104.499s-65.166 39.5 -110.499 39.5c-60 0 -111.333 -21 -154 -63l-61 21v360h408v-74h-325v-232
c40 40 92 60 156 60c58.667 0 108.667 -19.167 150 -57.5s62 -90.166 62 -155.499c0 -66.667 -22.333 -120 -67 -160s-101.334 -60 -170.001 -60z" />
    <glyph glyph-name="six" unicode="6" horiz-adv-x="591" 
d="M308 -12c-44.667 0 -83.999 9.33301 -117.999 28s-60.833 44.167 -80.5 76.5s-34.334 68.666 -44.001 108.999s-14.5 83.833 -14.5 130.5c0 62.667 9.33301 119.334 28 170.001s48.834 92.5 90.501 125.5s92.5 49.5 152.5 49.5c76.667 0 138.334 -26.667 185.001 -80
l-42 -62c-38.667 45.333 -86.334 68 -143.001 68c-41.333 0 -76.5 -13 -105.5 -39s-50 -58.167 -63 -96.5s-19.5 -80.5 -19.5 -126.5c0 -11.333 0.333008 -20 1 -26c16.667 26.667 42.5 50.667 77.5 72s72.167 32 111.5 32c63.333 0 115.5 -18.5 156.5 -55.5
s61.5 -89.5 61.5 -157.5c0 -60.667 -21.333 -112.167 -64 -154.5s-99.334 -63.5 -170.001 -63.5zM305.001 62c48 0 85.5 14.499 112.5 43.499s40.5 61.5 40.5 97.5c0 46.667 -14.333 82.334 -43 107.001s-65.667 37 -111 37c-32.667 0 -64 -9.16699 -94 -27.5
s-54.333 -42.5 -73 -72.5c4.66699 -49.333 20.667 -92.5 48 -129.5s67.333 -55.5 120 -55.5z" />
    <glyph glyph-name="seven" unicode="7" horiz-adv-x="515" 
d="M213 0h-92l269 593h-359v74h455v-57z" />
    <glyph glyph-name="eight" unicode="8" horiz-adv-x="581" 
d="M291 -12c-68 0 -124.83 16.333 -170.497 49s-68.5 76.667 -68.5 132c0 42 15.167 78.333 45.5 109s68.166 52.667 113.499 66c-42.667 12 -78 31.5 -106 58.5s-42 60.833 -42 101.5c0 56 22.667 98.833 68 128.5s98.666 44.5 159.999 44.5s114.833 -14.833 160.5 -44.5
s68.5 -72.5 68.5 -128.5c0 -40.667 -14 -74.5 -42 -101.5s-63.667 -46.5 -107 -58.5c45.333 -13.333 83.166 -35.333 113.499 -66s45.5 -67 45.5 -109c0 -54.667 -22.833 -98.5 -68.5 -131.5s-102.5 -49.5 -170.5 -49.5zM291.003 378c13.333 2 26.833 5.33203 40.5 9.99902
s29.167 11.167 46.5 19.5s31.333 20 42 35s16 31.833 16 50.5c0 33.333 -13.833 60 -41.5 80s-62.167 30 -103.5 30c-42 0 -76.667 -10 -104 -30s-41 -46.667 -41 -80c0 -18.667 5.33301 -35.5 16 -50.5s24.667 -26.667 42 -35s32.833 -14.666 46.5 -18.999
s27.167 -7.83301 40.5 -10.5zM291.003 61.999c42.667 0 79.168 10.667 109.501 32s45.5 49.333 45.5 84c0 26.667 -10.5 50.167 -31.5 70.5s-42.333 34.666 -64 42.999s-41.5 13.5 -59.5 15.5c-18 -2 -37.833 -7.16699 -59.5 -15.5s-43.167 -22.666 -64.5 -42.999
s-32 -43.833 -32 -70.5c0 -34.667 15.167 -62.667 45.5 -84s67.166 -32 110.499 -32z" />
    <glyph glyph-name="nine" unicode="9" horiz-adv-x="591" 
d="M269 -11c-76.667 0 -138.334 26.668 -185.001 80.001l42 62c38.667 -45.333 86.334 -68 143.001 -68c42.667 0 78.667 13.333 108 40s50 59 62 97s18 79.333 18 124c0 12 -0.333008 21 -1 27c-16.667 -26.667 -42.334 -50.667 -77.001 -72s-71.667 -32 -111 -32
c-63.333 0 -115.666 18.5 -156.999 55.5s-62 89.5 -62 157.5c0 60 21.333 111.333 64 154s99 64 169 64c45.333 0 85 -9.33301 119 -28s60.833 -44.334 80.5 -77.001s34.334 -69 44.001 -109s14.5 -83.667 14.5 -131c0 -62.667 -9.33301 -119.167 -28 -169.5
s-48.834 -92 -90.501 -125s-92.5 -49.5 -152.5 -49.5zM287 319.001c32.667 0 64.167 9.00098 94.5 27.001s54.166 42 71.499 72c-4 49.333 -19.667 92.666 -47 129.999s-67.333 56 -120 56c-47.333 0 -84.666 -14.667 -111.999 -44s-41 -61.666 -41 -96.999
c0 -46.667 14.333 -82.334 43 -107.001s65.667 -37 111 -37z" />
    <glyph glyph-name="colon" unicode=":" horiz-adv-x="230" 
d="M115 380c-15.333 0 -28.333 5.33301 -39 16s-16 23.667 -16 39s5.33301 28.333 16 39s23.667 16 39 16s28.333 -5.33301 39 -16s16 -23.667 16 -39s-5.33301 -28.333 -16 -39s-23.667 -16 -39 -16zM115 -10c-15.333 0 -28.333 5.33301 -39 16s-16 23.667 -16 39
s5.33301 28.333 16 39s23.667 16 39 16s28.333 -5.33301 39 -16s16 -23.667 16 -39s-5.33301 -28.333 -16 -39s-23.667 -16 -39 -16z" />
    <glyph glyph-name="semicolon" unicode=";" horiz-adv-x="230" 
d="M115 380c-14.667 0 -27.5 5.5 -38.5 16.5s-16.5 23.833 -16.5 38.5c0 15.333 5.33301 28.333 16 39s23.667 16 39 16s28.333 -5.33301 39 -16s16 -23.667 16 -39c0 -14.667 -5.5 -27.5 -16.5 -38.5s-23.833 -16.5 -38.5 -16.5zM176 26
c0 -30 -7.66602 -58.501 -22.999 -85.501s-35 -48.833 -59 -65.5l-37 30c16 10.667 30.333 25 43 43s20 35 22 51c-4 -2 -8.66699 -3 -14 -3c-14 0 -25.5 4.83301 -34.5 14.5s-13.5 21.834 -13.5 36.501c0 15.333 5.16699 28.333 15.5 39s22.833 16 37.5 16
c17.333 0 32.166 -6.83301 44.499 -20.5s18.5 -32.167 18.5 -55.5z" />
    <glyph glyph-name="less" unicode="&#x3c;" horiz-adv-x="499" 
d="M470 90l-441 218v53l441 219v-63l-377 -183l377 -182v-62z" />
    <glyph glyph-name="equal" unicode="=" horiz-adv-x="499" 
d="M470 404h-441v53h441v-53zM470 211h-441v52h441v-52z" />
    <glyph glyph-name="greater" unicode="&#x3e;" horiz-adv-x="499" 
d="M470 308l-441 -218v62l376 182l-376 183v63l441 -219v-53z" />
    <glyph glyph-name="question" unicode="?" horiz-adv-x="462" 
d="M203 185c-26 22 -39 48.9971 -39 80.9971c0 20 4.5 38.333 13.5 55s20.167 30.334 33.5 41.001l43.5 33.5l43.5 32.5c13.333 10 24.5 22 33.5 36s13.5 29.333 13.5 46c0 26.667 -10.167 48.834 -30.5 66.501s-49.5 26.5 -87.5 26.5c-64.667 0 -117.667 -27.333 -159 -82
l-50 54c52.667 68 125 102 217 102c59.333 0 106.833 -14.833 142.5 -44.5s53.5 -66.5 53.5 -110.5c0 -34 -10.167 -64.167 -30.5 -90.5s-42.5 -46.5 -66.5 -60.5s-46.167 -30.667 -66.5 -50s-30.5 -39.666 -30.5 -60.999c0 -18.667 9 -35 27 -49zM224 -10.0029
c-14.667 0 -27.5 5.33301 -38.5 16s-16.5 23.667 -16.5 39s5.5 28.333 16.5 39s23.833 16 38.5 16s27.5 -5.33301 38.5 -16s16.5 -23.667 16.5 -39s-5.5 -28.333 -16.5 -39s-23.833 -16 -38.5 -16z" />
    <glyph glyph-name="at" unicode="@" horiz-adv-x="783" 
d="M352 -70c-90.667 0 -166.169 30.166 -226.502 90.499s-90.5 134.833 -90.5 223.5c0 106.667 39.833 199 119.5 277s172.167 117 277.5 117c92.667 0 168.334 -30.5 227.001 -91.5s88 -136.167 88 -225.5c0 -74 -17.333 -131.833 -52 -173.5s-75 -62.5 -121 -62.5
c-26.667 0 -48.167 7.83301 -64.5 23.5s-25.166 34.834 -26.499 57.501l-1 6c-18 -25.333 -41.167 -46.166 -69.5 -62.499s-57.833 -24.5 -88.5 -24.5c-46 0 -83 15 -111 45s-42 69.333 -42 118c0 68 24 126.833 72 176.5s102.333 74.5 163 74.5
c30.667 0 57.167 -7.33301 79.5 -22s38.5 -33.334 48.5 -56.001l13 62h68l-57 -271c-1.33301 -8 -2 -15 -2 -21c0 -16.667 4.5 -29.5 13.5 -38.5s20.167 -13.5 33.5 -13.5c25.333 0 49.666 15 72.999 45s35 75.667 35 137c0 82.667 -26.167 150.5 -78.5 203.5
s-120.5 79.5 -204.5 79.5c-96 0 -179.833 -36.167 -251.5 -108.5s-107.5 -155.5 -107.5 -249.5c0 -80.667 27.167 -148 81.5 -202s122.833 -81 205.5 -81c64.667 0 126.667 18.667 186 56l18 -26c-65.333 -42 -134.666 -63 -207.999 -63zM343.998 140.999
c58 0 107.671 30.001 149.004 90.001l29 138c-6.66699 19.333 -18.834 36.5 -36.501 51.5s-39.834 22.5 -66.501 22.5c-48.667 0 -90.334 -19.5 -125.001 -58.5s-52 -83.167 -52 -132.5c0 -32.667 9.16699 -59.334 27.5 -80.001s43.166 -31 74.499 -31z" />
    <glyph glyph-name="A" unicode="A" horiz-adv-x="658" 
d="M649 0h-95l-59 148h-332l-59 -148h-95l268 667h103zM470 222l-141 359l-142 -359h283z" />
    <glyph glyph-name="B" unicode="B" horiz-adv-x="629" 
d="M382 0l-303.999 0.000976562v667h297c57.333 0 102.833 -15.667 136.5 -47s50.5 -72.333 50.5 -123c0 -40 -11.333 -73.833 -34 -101.5s-50.334 -44.834 -83.001 -51.501c35.333 -5.33301 65.833 -24 91.5 -56s38.5 -68 38.5 -108c0 -54 -17.167 -97.5 -51.5 -130.5
s-81.5 -49.5 -141.5 -49.5zM361.001 378.001c36.667 0 65 10.001 85 30.001s30 45.667 30 77s-10.167 57.166 -30.5 77.499s-48.5 30.5 -84.5 30.5h-200v-215h200zM365.001 74.002c38.667 0 69 10.333 91 31s33 48.667 33 84c0 32.667 -10.833 60 -32.5 82
s-52.167 33 -91.5 33h-204v-230h204z" />
    <glyph glyph-name="C" unicode="C" horiz-adv-x="676" 
d="M394 -12c-97.333 0 -178.832 32.1689 -244.499 96.502s-98.5 147.166 -98.5 248.499s32.833 184.166 98.5 248.499s147.167 96.5 244.5 96.5c106.667 0 191 -44 253 -132l-70 -39c-19.333 28.667 -45.333 52 -78 70s-67.667 27 -105 27
c-73.333 0 -134.5 -25.5 -183.5 -76.5s-73.5 -115.833 -73.5 -194.5s24.5 -143.5 73.5 -194.5s110.167 -76.5 183.5 -76.5c37.333 0 72.333 8.83301 105 26.5s58.667 41.167 78 70.5l71 -39c-64.667 -88 -149.334 -132 -254.001 -132z" />
    <glyph glyph-name="D" unicode="D" horiz-adv-x="700" 
d="M306 0l-228 0.000976562v667h228c102 0 184.5 -31.667 247.5 -95s94.5 -143 94.5 -239c0 -96.667 -31.5 -176.334 -94.5 -239.001s-145.5 -94 -247.5 -94zM306 74.001c78.667 0 141 24.667 187 74s69 111 69 185c0 74.667 -22.667 136.667 -68 186s-108 74 -188 74h-145
v-519h145z" />
    <glyph glyph-name="E" unicode="E" horiz-adv-x="569" 
d="M515 0h-437v667h437v-74h-354v-215h347v-74h-347v-230h354v-74z" />
    <glyph glyph-name="F" unicode="F" horiz-adv-x="550" 
d="M161 0h-83v667h437v-74h-354v-215h347v-74h-347v-304z" />
    <glyph glyph-name="G" unicode="G" horiz-adv-x="713" 
d="M394 -13c-96.667 0 -178.001 32.168 -244.001 96.501s-99 147.5 -99 249.5s33 185 99 249s147.333 96 244 96c105.333 0 191.666 -41.667 258.999 -125l-66 -41c-21.333 28 -49.166 50.333 -83.499 67s-70.833 25 -109.5 25c-73.333 0 -134.5 -25.5 -183.5 -76.5
s-73.5 -115.833 -73.5 -194.5s24.5 -143.667 73.5 -195s110.167 -77 183.5 -77c36.667 0 70.834 7.16699 102.501 21.5s57.167 31.166 76.5 50.499v136h-229v74h312v-241c-68.667 -76.667 -156 -115 -262 -115z" />
    <glyph glyph-name="H" unicode="H" horiz-adv-x="712" 
d="M634 0h-83v306h-390v-306h-83v667h83v-287h390v287h83v-667z" />
    <glyph glyph-name="I" unicode="I" horiz-adv-x="239" 
d="M161 0h-83v667h83v-667z" />
    <glyph glyph-name="J" unicode="J" horiz-adv-x="475" 
d="M185 -12c-72 0 -130 25.666 -174 76.999l43 63c36.667 -44 78.667 -66 126 -66c40.667 0 73.167 12.833 97.5 38.5s36.5 59.5 36.5 101.5v465h83v-466c0 -69.333 -19.667 -122.166 -59 -158.499s-90.333 -54.5 -153 -54.5z" />
    <glyph glyph-name="K" unicode="K" horiz-adv-x="601" 
d="M584 0h-103l-253 300l-67 -76v-224h-83v667h83v-345l295 345h104l-278 -317z" />
    <glyph glyph-name="L" unicode="L" horiz-adv-x="510" 
d="M471 0h-393v667h83v-593h310v-74z" />
    <glyph glyph-name="M" unicode="M" horiz-adv-x="809" 
d="M731 0h-83v549l-227 -549h-34l-226 549v-549h-83v667h119l207 -502l208 502h119v-667z" />
    <glyph glyph-name="N" unicode="N" horiz-adv-x="708" 
d="M630 0h-80l-389 532v-532h-83v667h85l384 -521v521h83v-667z" />
    <glyph glyph-name="O" unicode="O" horiz-adv-x="765" 
d="M382 -12c-98 0 -177.667 32.667 -239 98s-92 147.666 -92 246.999s30.667 181.666 92 246.999s141 98 239 98c97.333 0 176.833 -32.667 238.5 -98s92.5 -147.666 92.5 -246.999s-30.833 -181.666 -92.5 -246.999s-141.167 -98 -238.5 -98zM382 62
c73.333 0 132.5 25.5 177.5 76.5s67.5 115.833 67.5 194.5c0 79.333 -22.5 144.333 -67.5 195s-104.167 76 -177.5 76c-74 0 -133.333 -25.333 -178 -76s-67 -115.667 -67 -195c0 -78.667 22.333 -143.5 67 -194.5s104 -76.5 178 -76.5z" />
    <glyph glyph-name="P" unicode="P" horiz-adv-x="587" 
d="M161 0l-83 0.00195312v667h268c64.667 0 115.667 -19.333 153 -58s56 -86.334 56 -143.001s-18.833 -104.334 -56.5 -143.001s-88.5 -58 -152.5 -58h-185v-265zM336 339.002c39.333 0 71.333 11.833 96 35.5s37 54.167 37 91.5s-12.333 67.833 -37 91.5
s-56.667 35.5 -96 35.5h-175v-254h175z" />
    <glyph glyph-name="Q" unicode="Q" horiz-adv-x="765" 
d="M382 -12c-98 0 -177.667 32.668 -239 98.001s-92 147.666 -92 246.999s30.667 181.666 92 246.999s141 98 239 98c97.333 0 176.833 -32.667 238.5 -98s92.5 -147.666 92.5 -246.999s-30.667 -181.333 -92 -246l64 -68l-58 -50l-65 69c-52 -33.333 -112 -50 -180 -50z
M382 62.001c47.333 0 89.667 11.333 127 34l-95 103l58 49l94 -102c40.667 50 61 112.333 61 187c0 79.333 -22.5 144.333 -67.5 195s-104.167 76 -177.5 76c-74 0 -133.333 -25.333 -178 -76s-67 -115.667 -67 -195c0 -78.667 22.333 -143.5 67 -194.5s104 -76.5 178 -76.5
z" />
    <glyph glyph-name="R" unicode="R" horiz-adv-x="608" 
d="M562 0l-98 0.000976562l-170 265h-133v-265h-83v667h268c62 0 112.333 -18.333 151 -55s58 -85.334 58 -146.001c0 -57.333 -16.667 -103 -50 -137s-74.333 -53 -123 -57zM336 338.001c39.333 0 71.333 12 96 36s37 54.667 37 92s-12.333 67.833 -37 91.5
s-56.667 35.5 -96 35.5h-175v-255h175z" />
    <glyph glyph-name="S" unicode="S" horiz-adv-x="586" 
d="M294 -12c-108 0 -193.334 35.3301 -256.001 105.997l49 63c56.667 -63.333 126.667 -95 210 -95c54 0 93.667 11.5 119 34.5s38 49.833 38 80.5c0 23.333 -7.33301 43 -22 59s-33.5 28.5 -56.5 37.5s-48.5 17.167 -76.5 24.5s-56.167 15.5 -84.5 24.5
s-54 19.833 -77 32.5s-41.833 30.667 -56.5 54s-22 51 -22 83c0 54.667 21.667 99.167 65 133.5s98 51.5 164 51.5c99.333 0 178.333 -31 237 -93l-50 -61c-48.667 53.333 -113 80 -193 80c-40 0 -72.833 -9.83301 -98.5 -29.5s-38.5 -45.167 -38.5 -76.5
c0 -23.333 9.83301 -42.666 29.5 -57.999s44 -26.666 73 -33.999s60.667 -16.5 95 -27.5s66 -22.667 95 -35s53.333 -32.166 73 -59.499s29.5 -60.333 29.5 -99c0 -54.667 -20.167 -101 -60.5 -139s-102.166 -57 -185.499 -57z" />
    <glyph glyph-name="T" unicode="T" horiz-adv-x="570" 
d="M326 0h-83v593h-211v74h506v-74h-212v-593z" />
    <glyph glyph-name="U" unicode="U" horiz-adv-x="700" 
d="M350 -12c-88.667 0 -156.169 24.167 -202.502 72.5s-69.5 114.5 -69.5 198.5v408h83v-406c0 -62 16.333 -110.667 49 -146s79.334 -53 140.001 -53s107.334 17.667 140.001 53s49 84 49 146v406h83v-407c0 -84.667 -23.167 -151.167 -69.5 -199.5
s-113.833 -72.5 -202.5 -72.5z" />
    <glyph glyph-name="V" unicode="V" horiz-adv-x="658" 
d="M380 0h-103l-268 667h95l225 -576l225 576h95z" />
    <glyph glyph-name="W" unicode="W" horiz-adv-x="883" 
d="M678 0h-90l-147 538l-147 -538h-90l-190 667h92l148 -556l153 556h69l153 -556l147 556h92z" />
    <glyph glyph-name="X" unicode="X" horiz-adv-x="652" 
d="M639 0h-100l-213 284l-213 -284h-101l260 342l-245 325h101l198 -267l197 267h101l-244 -324z" />
    <glyph glyph-name="Y" unicode="Y" horiz-adv-x="626" 
d="M355 0h-83v282l-263 385h97l207 -310l207 310h97l-262 -385v-282z" />
    <glyph glyph-name="Z" unicode="Z" horiz-adv-x="585" 
d="M536 0h-488v69l375 524h-375v74h481v-69l-375 -524h382v-74z" />
    <glyph glyph-name="bracketleft" unicode="[" horiz-adv-x="243" 
d="M226 -190h-186v868h186v-55h-128v-758h128v-55z" />
    <glyph glyph-name="backslash" unicode="\" horiz-adv-x="296" 
d="M237 -20l-237 707h59l237 -707h-59z" />
    <glyph glyph-name="bracketright" unicode="]" horiz-adv-x="243" 
d="M203 -190h-186v55h128v758h-128v55h186v-868z" />
    <glyph glyph-name="asciicircum" unicode="^" horiz-adv-x="432" 
d="M413 333h-62l-135 279l-135 -279h-62l169 334h57z" />
    <glyph glyph-name="underscore" unicode="_" horiz-adv-x="564" 
d="M567 -95h-570v55h570v-55z" />
    <glyph glyph-name="grave" unicode="`" horiz-adv-x="226" 
d="M226 556h-57l-169 144h78z" />
    <glyph glyph-name="a" unicode="a" horiz-adv-x="527" 
d="M452 0l-74.999 -0.000976562v55c-40.667 -44.667 -94 -67 -160 -67c-44.667 0 -84 14.333 -118 43s-51 67.667 -51 117c0 50.667 16.833 89.834 50.5 117.501s73.167 41.5 118.5 41.5c68.667 0 122 -22 160 -66v87c0 32 -11.333 57 -34 75s-52 27 -88 27
c-56.667 0 -106 -22.333 -148 -67l-35 52c51.333 53.333 115.666 80 192.999 80c55.333 0 100.333 -13.333 135 -40s52 -67.667 52 -123v-332zM244.001 41.999c60 0 104.333 20.001 133 60.001v91c-28.667 40 -73 60 -133 60c-34.667 0 -63.167 -9.83301 -85.5 -29.5
s-33.5 -45.167 -33.5 -76.5c0 -30.667 11.167 -55.834 33.5 -75.501s50.833 -29.5 85.5 -29.5z" />
    <glyph glyph-name="b" unicode="b" horiz-adv-x="575" 
d="M150 131c13.333 -21.333 33.5 -39.334 60.5 -54.001s54.833 -22 83.5 -22c48 0 86 17.333 114 52s42 79.334 42 134.001s-14 99.5 -42 134.5s-66 52.5 -114 52.5c-28.667 0 -56.5 -7.5 -83.5 -22.5s-47.167 -33.5 -60.5 -55.5v-219zM150 -0.000976562h-75.001v667h75
v-257c42 56.667 96.333 85 163 85c63.333 0 115 -23.167 155 -69.5s60 -107.833 60 -184.5c0 -77.333 -19.833 -138.833 -59.5 -184.5s-91.5 -68.5 -155.5 -68.5c-67.333 0 -121.666 28 -162.999 84v-72z" />
    <glyph glyph-name="c" unicode="c" horiz-adv-x="495" 
d="M288 -12c-71.333 0 -129.333 24.168 -174 72.501s-67 108.833 -67 181.5s22.333 133 67 181s102.667 72 174 72c74.667 0 133.667 -28 177 -84l-50 -46c-30.667 42 -71.667 63 -123 63c-50.667 0 -91.167 -17.333 -121.5 -52s-45.5 -79.334 -45.5 -134.001
s15.167 -99.5 45.5 -134.5s70.833 -52.5 121.5 -52.5s91.667 21 123 63l50 -46c-43.333 -56 -102.333 -84 -177 -84z" />
    <glyph glyph-name="d" unicode="d" horiz-adv-x="575" 
d="M500 0h-75.001v72c-41.333 -56 -95.666 -84 -162.999 -84c-64 0 -115.833 22.833 -155.5 68.5s-59.5 107.167 -59.5 184.5c0 76.667 19.833 138.167 59.5 184.5s91.5 69.5 155.5 69.5c66.667 0 121 -28.333 163 -85v257h75v-667zM279.999 55
c29.333 0 57.333 7.33398 84 22.001s47 32.667 61 54v219c-14 22 -34.5 40.5 -61.5 55.5s-54.833 22.5 -83.5 22.5c-47.333 0 -85 -17.5 -113 -52.5s-42 -79.833 -42 -134.5s14 -99.334 42 -134.001s65.667 -52 113 -52z" />
    <glyph glyph-name="e" unicode="e" horiz-adv-x="563" 
d="M293 -12c-72 0 -130.999 23.5 -176.999 70.5s-69 108.167 -69 183.5c0 70.667 22.667 130.5 68 179.5s102 73.5 170 73.5c71.333 0 127.833 -24.5 169.5 -73.5s62.5 -110.833 62.5 -185.5v-19h-391c3.33301 -47.333 20.666 -87 51.999 -119s72 -48 122 -48
c60 0 109.667 20.333 149 61l36 -49c-49.333 -49.333 -113.333 -74 -192 -74zM443.001 272c-0.666992 41.333 -14.667 78.5 -42 111.5s-66.333 49.5 -117 49.5c-48 0 -85.833 -16.333 -113.5 -49s-42.5 -70 -44.5 -112h317z" />
    <glyph glyph-name="f" unicode="f" horiz-adv-x="283" 
d="M171 0h-75v417h-80v66h80v37c0 49.333 12.5 87.833 37.5 115.5s59.167 41.5 102.5 41.5c41.333 0 75.333 -12.333 102 -37l-31 -49c-18 16 -38 24 -60 24c-24.667 0 -43.5 -8.16699 -56.5 -24.5s-19.5 -39.833 -19.5 -70.5v-37h98v-66h-98v-417z" />
    <glyph glyph-name="g" unicode="g" horiz-adv-x="574" 
d="M269 -196c-42.667 0 -78.999 5.16797 -108.999 15.501s-58.667 29.166 -86 56.499l38 56c36.667 -44 89 -66 157 -66c44.667 0 81.667 11.833 111 35.5s44 60.167 44 109.5v69c-18 -25.333 -41.333 -46 -70 -62s-59.334 -24 -92.001 -24c-64 0 -115.833 22.5 -155.5 67.5
s-59.5 105.833 -59.5 182.5s19.833 137.667 59.5 183s91.5 68 155.5 68c66 0 120 -28.333 162 -85v73h75v-469c0 -74 -21.667 -127.5 -65 -160.5s-98.333 -49.5 -165 -49.5zM280.001 60.001c28.667 0 56.5 7.66699 83.5 23s47.167 34 60.5 56v211
c-13.333 22 -33.333 40.5 -60 55.5s-54.667 22.5 -84 22.5c-48 0 -85.833 -17 -113.5 -51s-41.5 -78.333 -41.5 -133c0 -54 14 -98.167 42 -132.5s65.667 -51.5 113 -51.5z" />
    <glyph glyph-name="h" unicode="h" horiz-adv-x="552" 
d="M477 0l-75.002 0.000976562v318c0 40 -9.33301 68.333 -28 85s-45.667 25 -81 25c-27.333 0 -54.166 -7.33301 -80.499 -22s-47.166 -32.334 -62.499 -53.001v-353h-75v667h75v-254c18.667 22 43.667 41.167 75 57.5s64 24.5 98 24.5c102.667 0 154 -51.333 154 -154
v-341z" />
    <glyph glyph-name="i" unicode="i" horiz-adv-x="225" 
d="M112 552c-13.333 0 -25 4.83301 -35 14.5s-15 21.5 -15 35.5s5 26 15 36s21.667 15 35 15c14 0 26 -5 36 -15s15 -22 15 -36s-5 -25.833 -15 -35.5s-22 -14.5 -36 -14.5zM150 0h-75v483h75v-483z" />
    <glyph glyph-name="j" unicode="j" horiz-adv-x="225" 
d="M112 552c-13.333 0 -25 4.83301 -35 14.5s-15 21.5 -15 35.5s5 26 15 36s21.667 15 35 15c14 0 26 -5 36 -15s15 -22 15 -36s-5 -25.833 -15 -35.5s-22 -14.5 -36 -14.5zM7 -196c-39.333 0 -74.667 12.001 -106 36.001l27 57c20.667 -20.667 43.667 -31 69 -31
c24 0 43 7.16699 57 21.5s21 36.166 21 65.499v530h75v-530c0 -47.333 -12.333 -84 -37 -110s-60 -39 -106 -39z" />
    <glyph glyph-name="k" unicode="k" horiz-adv-x="514" 
d="M500 0h-96l-174 217l-80 -79v-138h-75v667h75v-441l254 257h95l-214 -219z" />
    <glyph glyph-name="l" unicode="l" horiz-adv-x="225" 
d="M150 0h-75v667h75v-667z" />
    <glyph glyph-name="m" unicode="m" horiz-adv-x="808" 
d="M733 0l-75 0.00195312v328c0 66.667 -29.667 100 -89 100c-24 0 -48 -7.33301 -72 -22s-42.667 -32 -56 -52v-354h-75v328c0 66.667 -29.667 100 -89 100c-23.333 0 -46.833 -7.33301 -70.5 -22s-42.5 -32.334 -56.5 -53.001v-353h-75v483h75v-70c12 18.667 33 37 63 55
s61 27 93 27c35.333 0 64 -8.33301 86 -25s36.667 -38.334 44 -65.001c14.667 24 37 45 67 63s61.667 27 95 27c90 0 135 -48.667 135 -146v-349z" />
    <glyph glyph-name="n" unicode="n" horiz-adv-x="551" 
d="M476 0l-74.998 0.000976562v316c0 40.667 -9.33301 69.5 -28 86.5s-45.334 25.5 -80.001 25.5c-28 0 -55.167 -7.33301 -81.5 -22s-46.833 -32.334 -61.5 -53.001v-353h-75v483h75v-70c18.667 22 43.667 41.167 75 57.5s63.666 24.5 96.999 24.5
c102.667 0 154 -52 154 -156v-339z" />
    <glyph glyph-name="o" unicode="o" 
d="M286 -12c-72 0 -129.833 24.333 -173.5 73s-65.5 109 -65.5 181s21.833 132.167 65.5 180.5s101.5 72.5 173.5 72.5s129.833 -24.167 173.5 -72.5s65.5 -108.5 65.5 -180.5s-21.833 -132.333 -65.5 -181s-101.5 -73 -173.5 -73zM286 55
c49.333 0 88.333 18.166 117 54.499s43 80.5 43 132.5s-14.333 96 -43 132s-67.667 54 -117 54s-88.5 -18.167 -117.5 -54.5s-43.5 -80.166 -43.5 -131.499c0 -52 14.5 -96.167 43.5 -132.5s68.167 -54.5 117.5 -54.5z" />
    <glyph glyph-name="p" unicode="p" 
d="M313 -12c-68 0 -122.333 28.334 -163 85.001v-257h-75v667h75v-72c18 25.333 41.333 45.666 70 60.999s59.667 23 93 23c64 0 115.833 -22.833 155.5 -68.5s59.5 -107.167 59.5 -184.5s-19.833 -139 -59.5 -185s-91.5 -69 -155.5 -69zM294 55.001
c47.333 0 85 17.499 113 52.499s42 79.833 42 134.5s-14 99.334 -42 134.001s-65.667 52 -113 52c-28.667 0 -56.5 -7.5 -83.5 -22.5s-47.167 -33.167 -60.5 -54.5v-218c13.333 -22 33.5 -40.5 60.5 -55.5s54.833 -22.5 83.5 -22.5z" />
    <glyph glyph-name="q" unicode="q" 
d="M277 55c29.333 0 57.5 7.50098 84.5 22.501s46.833 33.5 59.5 55.5v218c-12.667 21.333 -32.5 39.5 -59.5 54.5s-55.167 22.5 -84.5 22.5c-47.333 0 -84.833 -17.333 -112.5 -52s-41.5 -79.334 -41.5 -134.001s13.833 -99.5 41.5 -134.5s65.167 -52.5 112.5 -52.5z
M259 -11.999c-64 0 -115.833 22.999 -155.5 68.999s-59.5 107.667 -59.5 185s19.833 138.833 59.5 184.5s91.5 68.5 155.5 68.5c33.333 0 64.333 -7.66699 93 -23s51.667 -35.666 69 -60.999v72h75v-667h-75v257c-40.667 -56.667 -94.667 -85 -162 -85z" />
    <glyph glyph-name="r" unicode="r" horiz-adv-x="330" 
d="M150 0h-75v483h75v-78c44.667 58.667 98.334 88 161.001 88v-77c-8.66699 2 -18.667 3 -30 3c-22.667 0 -47.334 -8 -74.001 -24s-45.667 -33.667 -57 -53v-342z" />
    <glyph glyph-name="s" unicode="s" horiz-adv-x="465" 
d="M228 -12c-82 0 -147 25.3389 -195 76.0059l39 54c16.667 -19.333 39.5 -35.666 68.5 -48.999s59.167 -20 90.5 -20c36 0 64 7.66699 84 23s30 35.333 30 60c0 21.333 -10.333 38.166 -31 50.499s-45.5 21.666 -74.5 27.999s-58.167 13.666 -87.5 21.999
s-54.333 22.666 -75 42.999s-31 47.166 -31 80.499c0 39.333 16.167 72.333 48.5 99s76.166 40 131.499 40c72.667 0 132.334 -23.333 179.001 -70l-35 -52c-34 40.667 -82 61 -144 61c-32.667 0 -58.667 -7.16699 -78 -21.5s-29 -32.5 -29 -54.5
c0 -19.333 10.333 -34.5 31 -45.5s45.667 -19.667 75 -26s58.5 -13.833 87.5 -22.5s53.833 -23.834 74.5 -45.501s31 -49.834 31 -84.501c0 -42.667 -16.667 -77.667 -50 -105s-80 -41 -140 -41z" />
    <glyph glyph-name="t" unicode="t" horiz-adv-x="294" 
d="M197 -12c-35.333 0 -62 9.66699 -80 29s-27 47.333 -27 84v316h-80v66h80v132h75v-132h98v-66h-98v-300c0 -18.667 4.16699 -33.667 12.5 -45s20.5 -17 36.5 -17c22 0 39 6.66699 51 20l22 -56c-22 -20.667 -52 -31 -90 -31z" />
    <glyph glyph-name="u" unicode="u" horiz-adv-x="551" 
d="M476 0h-74.999v68c-20 -22.667 -45.167 -41.667 -75.5 -57s-62.5 -23 -96.5 -23c-102.667 0 -154 51.333 -154 154v341h75v-318c0 -40 9.16699 -68.333 27.5 -85s45.166 -25 80.499 -25c28 0 55.167 7 81.5 21s46.833 31.333 61.5 52v355h75v-483z" />
    <glyph glyph-name="v" unicode="v" horiz-adv-x="490" 
d="M286 0h-82l-201 483h81l161 -396l160 396h82z" />
    <glyph glyph-name="w" unicode="w" horiz-adv-x="734" 
d="M568 0h-75l-126 388l-126 -388h-75l-154 483h78l118 -385l127 385h64l127 -385l118 385h78z" />
    <glyph glyph-name="x" unicode="x" horiz-adv-x="486" 
d="M475 0h-87l-145 198l-145 -198h-86l185 248l-175 235h87l134 -184l134 184h87l-175 -235z" />
    <glyph glyph-name="y" unicode="y" horiz-adv-x="490" 
d="M48 -189l12.001 68.001c12 -5.33301 25.667 -8 41 -8c17.333 0 31.666 3.66699 42.999 11s21 20.666 29 39.999l32 73l-202 488h81l161 -396l160 396h82l-242 -581c-26.667 -64 -74 -96.667 -142 -98c-20.667 0 -39 2.33301 -55 7z" />
    <glyph glyph-name="z" unicode="z" horiz-adv-x="472" 
d="M420 0h-368v58l266 359h-266v66h364v-57l-268 -361h272v-65z" />
    <glyph glyph-name="braceleft" unicode="{" horiz-adv-x="260" 
d="M243 -190l-61 -0.00195312c-33.333 0 -62.5 12.5 -87.5 37.5s-37.5 57.167 -37.5 96.5v206c0 20 -4.5 36.5 -13.5 49.5s-21.833 19.5 -38.5 19.5v50c16.667 0 29.5 6.5 38.5 19.5s13.5 29.5 13.5 49.5v205c0 40 12.5 72.5 37.5 97.5s54.167 37.5 87.5 37.5h61v-55h-61
c-18 0 -33.5 -7.5 -46.5 -22.5s-19.5 -34.167 -19.5 -57.5v-211c0 -45.333 -15.333 -74.666 -46 -87.999c30.667 -13.333 46 -42.666 46 -87.999v-211c0 -22.667 6.5 -41.667 19.5 -57s28.5 -23 46.5 -23h61v-55z" />
    <glyph glyph-name="bar" unicode="|" horiz-adv-x="211" 
d="M133 -20h-55v707h55v-707z" />
    <glyph glyph-name="braceright" unicode="}" horiz-adv-x="260" 
d="M17 -190v55.002h61c18 0 33.5 7.66699 46.5 23s19.5 34.333 19.5 57v211c0 45.333 15.333 74.666 46 87.999c-30.667 13.333 -46 42.666 -46 87.999v211c0 23.333 -6.5 42.5 -19.5 57.5s-28.5 22.5 -46.5 22.5h-61v55h61c33.333 0 62.5 -12.5 87.5 -37.5
s37.5 -57.5 37.5 -97.5v-205c0 -20 4.5 -36.5 13.5 -49.5s21.833 -19.5 38.5 -19.5v-50c-16.667 0 -29.5 -6.5 -38.5 -19.5s-13.5 -29.5 -13.5 -49.5v-206c0 -39.333 -12.5 -71.5 -37.5 -96.5s-54.167 -37.5 -87.5 -37.5h-61z" />
    <glyph glyph-name="asciitilde" unicode="~" horiz-adv-x="503" 
d="M419 667l56 -7.00098c-3.33301 -34 -7.5 -63.667 -12.5 -89s-12.5 -50 -22.5 -74s-23.667 -42.333 -41 -55s-38 -19 -62 -19c-23.333 0 -42.666 6.5 -57.999 19.5s-26.833 28.833 -34.5 47.5s-14.667 37.334 -21 56.001s-14.166 34.5 -23.499 47.5s-21 19.5 -35 19.5
c-42 0 -69.333 -63.667 -82 -191l-56 7c3.33301 33.333 7.66602 62.833 12.999 88.5s13 50.5 23 74.5s23.667 42.333 41 55s37.666 19 60.999 19s42.833 -6.5 58.5 -19.5s27.334 -29 35.001 -48s14.5 -37.833 20.5 -56.5s13.667 -34.5 23 -47.5s21 -19.5 35 -19.5
c43.333 0 70.666 64 81.999 192z" />
    <glyph glyph-name="nbspace" unicode="&#xa0;" horiz-adv-x="258" 
 />
    <glyph glyph-name="exclamdown" unicode="&#xa1;" horiz-adv-x="230" 
d="M69 -184l15 480h62l16 -480h-93zM60 438c0 14.667 5.5 27.5 16.5 38.5s23.833 16.5 38.5 16.5s27.5 -5.5 38.5 -16.5s16.5 -23.833 16.5 -38.5s-5.33301 -27.5 -16 -38.5s-23.667 -16.5 -39 -16.5s-28.333 5.5 -39 16.5s-16 23.833 -16 38.5z" />
    <glyph glyph-name="cent" unicode="&#xa2;" horiz-adv-x="495" 
d="M252 -100l0.000976562 91.001c-61.333 8 -110.833 35.167 -148.5 81.5s-56.5 102.833 -56.5 169.5c0 65.333 18.833 121.166 56.5 167.499s87.167 73.833 148.5 82.5v73h59v-71c62.667 -5.33301 114 -33 154 -83l-50 -46c-26.667 36 -61.334 56.667 -104.001 62v-371
c42 4 76.667 24.667 104 62l50 -46c-38.667 -50 -90 -77.667 -154 -83v-89h-59zM125.001 242.001c0 -46.667 11.333 -86.667 34 -120s53.667 -54.333 93 -63v364c-39.333 -8.66699 -70.333 -29.5 -93 -62.5s-34 -72.5 -34 -118.5z" />
    <glyph glyph-name="sterling" unicode="&#xa3;" horiz-adv-x="518" 
d="M19 268l0.000976562 53.998h106c-18.667 21.333 -31.5 36.5 -38.5 45.5s-15.167 24.333 -24.5 46s-14 43.834 -14 66.501c0 54.667 22 101.167 66 139.5s96.667 57.5 158 57.5c45.333 0 85.666 -9.83301 120.999 -29.5s62.333 -47.167 81 -82.5l-67 -40
c-9.33301 22.667 -25.5 42 -48.5 58s-49.167 24 -78.5 24c-39.333 0 -73 -11.667 -101 -35s-42 -54.333 -42 -93c0 -17.333 3 -34 9 -50s11.833 -28.333 17.5 -37s15.167 -21.167 28.5 -37.5s22 -27.166 26 -32.499h150v-54h-122c4.66699 -15.333 7 -29.666 7 -42.999
c0 -52 -25.333 -96 -76 -132c16.667 6 34 9 52 9c22 0 47.5 -6.83301 76.5 -20.5s52.833 -20.5 71.5 -20.5c20.667 0 39.667 4.16699 57 12.5s30 17.5 38 27.5l36 -67c-32.667 -31.333 -77.667 -47 -135 -47c-31.333 0 -63 7.66699 -95 23s-60 23 -84 23
c-28 0 -67.333 -13.333 -118 -40l-30 62c42.667 19.333 75.5 42.166 98.5 68.499s34.5 54.5 34.5 84.5c0 20 -5 40 -15 60h-145z" />
    <glyph glyph-name="currency" unicode="&#xa4;" horiz-adv-x="598" 
d="M299 93c-57.333 0 -107 15.666 -149 46.999l-75 -76l-47 45l77 77c-30 42.667 -45 91.667 -45 147c0 57.333 15.333 106.333 46 147l-79 79l47 46l78 -79c41.333 30.667 90.333 46 147 46c57.333 0 106 -15.333 146 -46l78 78l46 -46l-78 -78c31.333 -42 47 -91 47 -147
c0 -55.333 -15.333 -104.666 -46 -147.999l77 -76l-46 -45l-77 75c-41.333 -30.667 -90.333 -46 -147 -46zM299 160.999c50 0 89.5 16.833 118.5 50.5s43.5 74.167 43.5 121.5s-14.5 87.5 -43.5 120.5s-68.5 49.5 -118.5 49.5s-89.5 -16.667 -118.5 -50
s-43.5 -73.333 -43.5 -120c0 -47.333 14.5 -87.833 43.5 -121.5s68.5 -50.5 118.5 -50.5z" />
    <glyph glyph-name="yen" unicode="&#xa5;" horiz-adv-x="626" 
d="M355 0h-83v122h-250v53h250v107h-250v52h214l-227 333h97l207 -310l207 310h97l-227 -333h215v-52h-250v-107h250v-53h-250v-122z" />
    <glyph glyph-name="brokenbar" unicode="&#xa6;" horiz-adv-x="211" 
d="M133 -20h-55v316h55v-316zM133 371h-55v316h55v-316z" />
    <glyph glyph-name="section" unicode="&#xa7;" horiz-adv-x="468" 
d="M418 315c0 -58 -30.666 -100.666 -91.999 -127.999c61.333 -23.333 92 -63.666 92 -120.999c0 -46 -17.333 -82 -52 -108s-80.667 -39 -138 -39c-76 0 -140.667 26 -194 78l38 49c40 -48 92 -72 156 -72c35.333 0 63.666 7.66699 84.999 23s32 36.666 32 63.999
c0 22.667 -10.333 40.5 -31 53.5s-45.5 23 -74.5 30s-58.167 14.667 -87.5 23s-54.333 22.666 -75 42.999s-31 46.833 -31 79.5c0 33.333 10.833 60.833 32.5 82.5s49.167 36.834 82.5 45.501c-76.667 24 -115 65 -115 123c0 38.667 16.167 71 48.5 97s76.166 39 131.499 39
c78 0 137.333 -23.667 178 -71l-34 -45c-33.333 40 -80.666 60 -141.999 60c-32 0 -58.167 -7.33301 -78.5 -22s-30.5 -34 -30.5 -58c0 -20.667 10.333 -36.834 31 -48.501s45.667 -20.5 75 -26.5s58.5 -13.333 87.5 -22s53.833 -23.667 74.5 -45s31 -49.333 31 -84z
M344.001 305.001c0 26 -10.168 45.665 -30.501 58.998s-47.833 24.333 -82.5 33c-41.333 -10.667 -70.333 -24 -87 -40s-25 -35.667 -25 -59c0 -17.333 7.33301 -32.166 22 -44.499s28.5 -20.666 41.5 -24.999s35.5 -10.5 67.5 -18.5
c4.66699 -1.33301 8.33398 -2.33301 11.001 -3c55.333 24 83 56.667 83 98z" />
    <glyph glyph-name="dieresis" unicode="&#xa8;" horiz-adv-x="272" 
d="M286 604c0 -12.667 -4.66699 -23.667 -14 -33s-20.333 -14 -33 -14s-23.667 4.66699 -33 14s-14 20.333 -14 33s4.66699 23.5 14 32.5s20.333 13.5 33 13.5s23.667 -4.5 33 -13.5s14 -19.833 14 -32.5zM79 604c0 -12.667 -4.5 -23.667 -13.5 -33s-19.833 -14 -32.5 -14
s-23.667 4.5 -33 13.5s-14 20.167 -14 33.5c0 12.667 4.66699 23.5 14 32.5s20.333 13.5 33 13.5s23.5 -4.5 32.5 -13.5s13.5 -19.833 13.5 -32.5z" />
    <glyph glyph-name="copyright" unicode="&#xa9;" horiz-adv-x="778" 
d="M734 334c0 -95.333 -33.667 -176.668 -101 -244.001s-148.666 -101 -243.999 -101s-176.666 33.833 -243.999 101.5s-101 148.834 -101 243.501c0 95.333 33.667 176.666 101 243.999s148.666 101 243.999 101s176.666 -33.667 243.999 -101s101 -148.666 101 -243.999z
M703 333.998c0 86.667 -30.667 160.667 -92 222s-135.333 92 -222 92s-160.667 -30.667 -222 -92s-92 -135.333 -92 -222s30.667 -160.667 92 -222s135.333 -92 222 -92s160.667 30.667 222 92s92 135.333 92 222zM512 211.998l26 -24.999c-38 -44 -87 -66 -147 -66
c-58 0 -107.167 20.5 -147.5 61.5s-60.5 91.833 -60.5 152.5s20.167 111.334 60.5 152.001s89.5 61 147.5 61c60 0 108.667 -22 146 -66l-25 -24c-12.667 17.333 -30.167 31.166 -52.5 41.499s-45.166 15.5 -68.499 15.5c-46.667 0 -86.834 -16.833 -120.501 -50.5
s-50.5 -76.834 -50.5 -129.501c0 -51.333 17 -94.333 51 -129s74 -52 120 -52c24 0 46.833 5.33301 68.5 16s39.167 24.667 52.5 42z" />
    <glyph glyph-name="ordfeminine" unicode="&#xaa;" horiz-adv-x="378" 
d="M317 326h-57v35c-26.667 -28.667 -62.334 -43 -107.001 -43c-29.333 0 -55.333 9.33301 -78 28s-34 44 -34 76c0 32.667 11.167 58 33.5 76s48.5 27 78.5 27c44.667 0 80.334 -14 107.001 -42v55c0 20 -7.66699 35.833 -23 47.5s-34 17.5 -56 17.5
c-39.333 0 -72.333 -15.333 -99 -46l-25 37c35.333 36 79 54 131 54c38 0 69 -9 93 -27s36 -46 36 -84v-211zM175 356c38 0 66.333 12.666 85 37.999v56c-18.667 25.333 -47 38 -85 38c-22 0 -40.167 -6.16699 -54.5 -18.5s-21.5 -28.166 -21.5 -47.499
c0 -20 7.16699 -36 21.5 -48s32.5 -18 54.5 -18z" />
    <glyph glyph-name="guillemotleft" unicode="&#xab;" horiz-adv-x="439" 
d="M409 63h-75l-160 180l160 177h75l-160 -177zM265 63h-75l-160 180l160 177h75l-160 -177z" />
    <glyph glyph-name="logicalnot" unicode="&#xac;" horiz-adv-x="504" 
d="M470 457v-246h-55v193h-386v53h441z" />
    <glyph glyph-name="uni00AD" unicode="&#xad;" horiz-adv-x="300" 
d="M270 209h-240v66h240v-66z" />
    <glyph glyph-name="registered" unicode="&#xae;" horiz-adv-x="494" 
d="M459 465c0 -58.667 -20.667 -108.667 -62 -150s-91.333 -62 -150 -62s-108.667 20.667 -150 62s-62 91.333 -62 150s20.667 108.667 62 150s91.333 62 150 62c59.333 0 109.5 -20.5 150.5 -61.5s61.5 -91.167 61.5 -150.5zM430 465
c0 50.667 -17.833 93.834 -53.5 129.501s-78.834 53.5 -129.501 53.5c-51.333 0 -94.833 -17.833 -130.5 -53.5s-53.5 -78.834 -53.5 -129.501s18 -94 54 -130s79.333 -54 130 -54s93.834 18 129.501 54s53.5 79.333 53.5 130zM345 343l-40 -0.000976562l-63 96h-44v-96h-32
v243h99c21.333 0 39.5 -6.83301 54.5 -20.5s22.5 -31.5 22.5 -53.5c0 -23.333 -7.5 -41.166 -22.5 -53.499s-28.167 -18.5 -39.5 -18.5zM309 511.999c0 12.667 -4.5 23.5 -13.5 32.5s-19.167 13.5 -30.5 13.5h-67v-90h67c10.667 0 20.667 4.33301 30 13s14 19 14 31z" />
    <glyph glyph-name="macron" unicode="&#xaf;" horiz-adv-x="363" 
d="M363 572h-363v48h363v-48z" />
    <glyph glyph-name="degree" unicode="&#xb0;" horiz-adv-x="290" 
d="M267 555c0 -34 -12 -62.833 -36 -86.5s-53 -35.5 -87 -35.5c-33.333 0 -61.833 11.833 -85.5 35.5s-35.5 52.5 -35.5 86.5c0 33.333 11.833 62 35.5 86s52.167 36 85.5 36c34 0 63 -12 87 -36s36 -52.667 36 -86zM219 555c0 20 -7.33301 37.333 -22 52
s-32.334 22 -53.001 22c-20 0 -37 -7.33301 -51 -22s-21 -32 -21 -52c0 -20.667 7 -38.167 21 -52.5s31 -21.5 51 -21.5c20.667 0 38.334 7.16699 53.001 21.5s22 31.833 22 52.5z" />
    <glyph glyph-name="plusminus" unicode="&#xb1;" horiz-adv-x="499" 
d="M470 324h-192v-214h-57v214h-192v52h192v207h57v-207h192v-52zM470 0h-441v52h441v-52z" />
    <glyph glyph-name="twosuperior" unicode="&#xb2;" horiz-adv-x="388" 
d="M341 421h-291.001v45c82.667 58.667 141.5 105.5 176.5 140.5s52.5 67.833 52.5 98.5c0 24 -8.33301 42.167 -25 54.5s-36.667 18.5 -60 18.5c-48.667 0 -86 -17.333 -112 -52l-33 38c33.333 42 82.333 63 147 63c40 0 73.833 -10.167 101.5 -30.5s41.5 -49.5 41.5 -87.5
c0 -37.333 -16.667 -74.5 -50 -111.5s-83.666 -79.5 -150.999 -127.5h203v-49z" />
    <glyph glyph-name="threesuperior" unicode="&#xb3;" horiz-adv-x="388" 
d="M343 530c0 -34.667 -13.6699 -62.666 -41.0029 -83.999s-64 -32 -110 -32c-68.667 0 -118.667 21.667 -150 65l32 38c29.333 -36 68 -54 116 -54c28.667 0 51.334 6.33301 68.001 19s25 29.667 25 51c0 46 -34.667 69 -104 69c-22.667 0 -36 -0.333008 -40 -1v50
c4.66699 -0.666992 17.667 -1 39 -1c65.333 0 98 21.333 98 64c0 20 -8.5 35.667 -25.5 47s-38.167 17 -63.5 17c-42.667 0 -79 -16.333 -109 -49l-31 36c36.667 41.333 85 62 145 62c42.667 0 77.334 -9.66699 104.001 -29s40 -45.333 40 -78
c0 -26.667 -9 -47.834 -27 -63.501s-38.667 -25.5 -62 -29.5c22.667 -2 44.334 -11.333 65.001 -28s31 -39.667 31 -69z" />
    <glyph glyph-name="acute" unicode="&#xb4;" horiz-adv-x="226" 
d="M226 700l-169 -144h-57l148 144h78z" />
    <glyph glyph-name="mu" unicode="&#xb5;" horiz-adv-x="565" 
d="M150 36l0.000976562 -220.001h-75v667h75v-318c0 -74.667 36.667 -112 110 -112c27.333 0 54 7.33301 80 22s46.333 32.334 61 53.001v355h75v-370c0 -38.667 15.667 -58 47 -58c7.33301 0 13.666 0.666992 18.999 2l6 -65c-14.667 -2.66699 -28 -4 -40 -4
c-58.667 0 -93.334 28.667 -104.001 86c-18 -24.667 -40.667 -45.167 -68 -61.5s-55.666 -24.5 -84.999 -24.5c-50 0 -83.667 16 -101 48z" />
    <glyph glyph-name="paragraph" unicode="&#xb6;" horiz-adv-x="449" 
d="M378 -100h-45v722h-89v-722h-45v423c-47.333 0 -87.833 16.833 -121.5 50.5s-50.5 74.167 -50.5 121.5s16.833 87.833 50.5 121.5s74.167 50.5 121.5 50.5h179v-767z" />
    <glyph glyph-name="periodcentered" unicode="&#xb7;" horiz-adv-x="230" 
d="M170 244c0 -14.667 -5.5 -27.334 -16.5 -38.001s-23.833 -16 -38.5 -16s-27.5 5.33301 -38.5 16s-16.5 23.334 -16.5 38.001s5.33301 27.5 16 38.5s23.667 16.5 39 16.5s28.333 -5.5 39 -16.5s16 -23.833 16 -38.5z" />
    <glyph glyph-name="cedilla" unicode="&#xb8;" horiz-adv-x="205" 
d="M101 -191c-42 0 -75.666 9.99902 -100.999 29.999l19 38c23.333 -19.333 50 -29 80 -29c16.667 0 31 3.83301 43 11.5s18 17.834 18 30.501c0 23.333 -12.333 35 -37 35c-15.333 0 -28 -5.66699 -38 -17l-33 19l31 84h45l-26 -66c10.667 7.33301 23 11 37 11
c19.333 0 35.166 -6.16699 47.499 -18.5s18.5 -28.5 18.5 -48.5c0 -24 -10 -43.333 -30 -58s-44.667 -22 -74 -22z" />
    <glyph glyph-name="onesuperior" unicode="&#xb9;" horiz-adv-x="235" 
d="M175 421h-60v322l-66 -69l-35 37l108 110h53v-400z" />
    <glyph glyph-name="ordmasculine" unicode="&#xba;" horiz-adv-x="405" 
d="M202 318c-48.667 0 -87.834 15.833 -117.501 47.5s-44.5 70.834 -44.5 117.501s14.833 85.834 44.5 117.501s68.834 47.5 117.501 47.5c49.333 0 88.833 -15.833 118.5 -47.5s44.5 -70.834 44.5 -117.501s-14.833 -85.834 -44.5 -117.501s-69.167 -47.5 -118.5 -47.5z
M202 366c32 0 57.333 11 76 33s28 50 28 84c0 33.333 -9.33301 60.833 -28 82.5s-44 32.5 -76 32.5c-31.333 0 -56.166 -10.833 -74.499 -32.5s-27.5 -49.167 -27.5 -82.5c0 -34 9.16699 -62 27.5 -84s43.166 -33 74.499 -33z" />
    <glyph glyph-name="guillemotright" unicode="&#xbb;" horiz-adv-x="439" 
d="M265 243l-160 -180h-75l160 180l-160 177h75zM409 243l-160 -180h-75l160 180l-160 177h75z" />
    <glyph glyph-name="onequarter" unicode="&#xbc;" horiz-adv-x="770" 
d="M175 267h-60v322l-66 -69l-35 37l108 110h53v-400zM733 100h-58v-100h-59v100h-196v44l172 256h83v-251h58v-49zM616 149v198l-136 -198h136zM590 667l-427 -667h-55l426 667h56z" />
    <glyph glyph-name="onehalf" unicode="&#xbd;" horiz-adv-x="807" 
d="M175 267h-60v322l-66 -69l-35 37l108 110h53v-400zM759 0h-291.001v45c82.667 58.667 141.5 105.5 176.5 140.5s52.5 67.833 52.5 98.5c0 24 -8.33301 42.167 -25 54.5s-36.667 18.5 -60 18.5c-48.667 0 -86 -17.333 -112 -52l-33 38c32.667 42 81.667 63 147 63
c40 0 73.833 -10.167 101.5 -30.5s41.5 -49.5 41.5 -87.5c0 -37.333 -16.667 -74.5 -50 -111.5s-83.666 -79.5 -150.999 -127.5h203v-49zM589.999 667l-427 -667h-55l426 667h56z" />
    <glyph glyph-name="threequarters" unicode="&#xbe;" horiz-adv-x="878" 
d="M842 100h-58v-100h-59v100h-196v44l172 256h83v-251h58v-49zM725 149v198l-136 -198h136zM698 667l-427 -667h-55l426 667h56zM343 376c0 -34.667 -13.6699 -62.666 -41.0029 -83.999s-64 -32 -110 -32c-68.667 0 -118.667 21.667 -150 65l32 38
c29.333 -36 68 -54 116 -54c28.667 0 51.334 6.33301 68.001 19s25 29.667 25 51c0 46 -34.667 69 -104 69c-22.667 0 -36 -0.333008 -40 -1v50c4.66699 -0.666992 17.667 -1 39 -1c65.333 0 98 21.333 98 64c0 20 -8.5 35.667 -25.5 47s-38.167 17 -63.5 17
c-42.667 0 -79 -16.333 -109 -49l-31 36c36.667 41.333 85 62 145 62c42.667 0 77.334 -9.66699 104.001 -29s40 -45.333 40 -78c0 -26.667 -9 -47.834 -27 -63.501s-38.667 -25.5 -62 -29.5c22.667 -2 44.334 -11.333 65.001 -28s31 -39.667 31 -69z" />
    <glyph glyph-name="questiondown" unicode="&#xbf;" horiz-adv-x="394" 
d="M258 296c26 -23.333 39.001 -50.668 39.001 -82.001c0 -23.333 -6.16699 -44.333 -18.5 -63s-27.333 -34.5 -45 -47.5l-53 -37.5c-17.667 -12 -32.667 -26.167 -45 -42.5s-18.5 -34.166 -18.5 -53.499c0 -26 10.167 -47.833 30.5 -65.5s49.166 -26.5 86.499 -26.5
c66 0 119.333 27 160 81l49 -53c-52 -68 -124 -102 -216 -102c-59.333 0 -106.833 14.833 -142.5 44.5s-53.5 66.5 -53.5 110.5c0 28 6.66699 53.167 20 75.5s29.5 40.5 48.5 54.5l56.5 40c18.667 12.667 34.667 26.667 48 42s20 32 20 50c0 19.333 -8.66699 35.333 -26 48z
M238.001 492.998c14.667 0 27.5 -5.5 38.5 -16.5s16.5 -24.167 16.5 -39.5c0 -14.667 -5.5 -27.334 -16.5 -38.001s-23.833 -16 -38.5 -16s-27.5 5.33301 -38.5 16s-16.5 23.334 -16.5 38.001c0 15.333 5.5 28.5 16.5 39.5s23.833 16.5 38.5 16.5z" />
    <glyph glyph-name="Agrave" unicode="&#xc0;" horiz-adv-x="658" 
d="M649 0h-95l-59 148h-332l-59 -148h-95l268 667h103zM470 222l-141 359l-142 -359h283zM386 723h-57l-169 144h78z" />
    <glyph glyph-name="Aacute" unicode="&#xc1;" horiz-adv-x="658" 
d="M649 0h-95l-59 148h-332l-59 -148h-95l268 667h103zM470 222l-141 359l-142 -359h283zM498 867l-169 -144h-57l148 144h78z" />
    <glyph glyph-name="Acircumflex" unicode="&#xc2;" horiz-adv-x="658" 
d="M463 723h-51l-83 106l-80 -106h-51l95 144h72zM649 0h-95l-59 148h-332l-59 -148h-95l268 667h103zM470 222l-141 359l-142 -359h283z" />
    <glyph glyph-name="Atilde" unicode="&#xc3;" horiz-adv-x="658" 
d="M649 0h-95l-59 148h-332l-59 -148h-95l268 667h103zM470 222l-141 359l-142 -359h283zM389 721c-16.667 0 -31.166 4.83301 -43.499 14.5s-21.5 20.167 -27.5 31.5s-13.5 21.833 -22.5 31.5s-18.833 14.5 -29.5 14.5c-14 0 -25.5 -7.16699 -34.5 -21.5
s-13.5 -35.833 -13.5 -64.5h-45c0 40 8.5 72.333 25.5 97s40.833 37 71.5 37c16 0 30.167 -4.83301 42.5 -14.5s21.666 -20.167 27.999 -31.5s14 -21.833 23 -31.5s18.833 -14.5 29.5 -14.5c14 0 25.5 7.16699 34.5 21.5s13.5 35.833 13.5 64.5h45
c0 -40 -8.5 -72.333 -25.5 -97s-40.833 -37 -71.5 -37z" />
    <glyph glyph-name="Adieresis" unicode="&#xc4;" horiz-adv-x="658" 
d="M480 771c0 -12.667 -4.66699 -23.667 -14 -33s-20.333 -14 -33 -14s-23.667 4.66699 -33 14s-14 20.333 -14 33s4.66699 23.5 14 32.5s20.333 13.5 33 13.5s23.667 -4.5 33 -13.5s14 -19.833 14 -32.5zM273 771c0 -12.667 -4.5 -23.667 -13.5 -33s-19.833 -14 -32.5 -14
s-23.667 4.66699 -33 14s-14 20.333 -14 33s4.66699 23.5 14 32.5s20.333 13.5 33 13.5s23.5 -4.5 32.5 -13.5s13.5 -19.833 13.5 -32.5zM649 0h-95l-59 148h-332l-59 -148h-95l268 667h103zM470 222l-141 359l-142 -359h283z" />
    <glyph glyph-name="Aring" unicode="&#xc5;" horiz-adv-x="658" 
d="M649 0h-95l-59 148h-332l-59 -148h-95l268 667h103zM470 222l-141 359l-142 -359h283zM329 690c-27.333 0 -50.5 9.66699 -69.5 29s-28.5 42.333 -28.5 69c0 27.333 9.66699 50.666 29 69.999s42.333 29 69 29s49.667 -9.66699 69 -29s29 -42.666 29 -69.999
c0 -26.667 -9.5 -49.667 -28.5 -69s-42.167 -29 -69.5 -29zM329 729c16 0 29.667 5.83301 41 17.5s17 25.5 17 41.5c0 16.667 -5.5 30.667 -16.5 42s-24.833 17 -41.5 17c-16 0 -29.667 -5.66699 -41 -17s-17 -25.333 -17 -42c0 -16 5.66699 -29.833 17 -41.5
s25 -17.5 41 -17.5z" />
    <glyph glyph-name="AE" unicode="&#xc6;" horiz-adv-x="947" 
d="M893 0h-437v148h-263l-91 -148h-95l416 667h470v-74h-354v-215h347v-74h-347v-230h354v-74zM456 222v359l-222 -359h222z" />
    <glyph glyph-name="Ccedilla" unicode="&#xc7;" horiz-adv-x="676" 
d="M388 -187c-42.667 0 -76.334 10 -101.001 30l19 38c23.333 -19.333 50 -29 80 -29c16.667 0 31 3.83301 43 11.5s18 17.834 18 30.501c0 23.333 -12.333 35 -37 35c-15.333 0 -28 -5.66699 -38 -17l-33 19l21 59c-89.333 7.33301 -163.166 42.5 -221.499 105.5
s-87.5 142.167 -87.5 237.5c0 101.333 32.833 184.166 98.5 248.499s147.167 96.5 244.5 96.5c106.667 0 191 -44 253 -132l-70 -39c-19.333 28.667 -45.333 52 -78 70s-67.667 27 -105 27c-73.333 0 -134.5 -25.5 -183.5 -76.5s-73.5 -115.833 -73.5 -194.5
s24.5 -143.5 73.5 -194.5s110.167 -76.5 183.5 -76.5c37.333 0 72.333 8.83301 105 26.5s58.667 41.167 78 70.5l71 -39c-63.333 -85.333 -144.666 -129.333 -243.999 -132l-15 -39c10.667 7.33301 23 11 37 11c19.333 0 35.166 -6.16699 47.499 -18.5
s18.5 -28.5 18.5 -48.5c0 -24 -10 -43.333 -30 -58s-44.667 -22 -74 -22z" />
    <glyph glyph-name="Egrave" unicode="&#xc8;" horiz-adv-x="569" 
d="M515 0h-437v667h437v-74h-354v-215h347v-74h-347v-230h354v-74zM353 723h-57l-169 144h78z" />
    <glyph glyph-name="Eacute" unicode="&#xc9;" horiz-adv-x="569" 
d="M465 867l-169 -144h-57l148 144h78zM515 0h-437v667h437v-74h-354v-215h347v-74h-347v-230h354v-74z" />
    <glyph glyph-name="Ecircumflex" unicode="&#xca;" horiz-adv-x="569" 
d="M428 723h-51l-83 106l-80 -106h-51l95 144h72zM515 0h-437v667h437v-74h-354v-215h347v-74h-347v-230h354v-74z" />
    <glyph glyph-name="Edieresis" unicode="&#xcb;" horiz-adv-x="569" 
d="M446 771c0 -12.667 -4.66699 -23.667 -14 -33s-20.333 -14 -33 -14s-23.667 4.66699 -33 14s-14 20.333 -14 33s4.66699 23.5 14 32.5s20.333 13.5 33 13.5s23.667 -4.5 33 -13.5s14 -19.833 14 -32.5zM239 771c0 -12.667 -4.5 -23.667 -13.5 -33s-19.833 -14 -32.5 -14
s-23.667 4.66699 -33 14s-14 20.333 -14 33s4.66699 23.5 14 32.5s20.333 13.5 33 13.5s23.5 -4.5 32.5 -13.5s13.5 -19.833 13.5 -32.5zM515 0h-437v667h437v-74h-354v-215h347v-74h-347v-230h354v-74z" />
    <glyph glyph-name="Igrave" unicode="&#xcc;" horiz-adv-x="239" 
d="M161 0h-83v667h83v-667zM176 723h-57l-169 144h78z" />
    <glyph glyph-name="Iacute" unicode="&#xcd;" horiz-adv-x="239" 
d="M161 0h-83v667h83v-667zM289 867l-169 -144h-57l148 144h78z" />
    <glyph glyph-name="Icircumflex" unicode="&#xce;" horiz-adv-x="239" 
d="M253 723h-51l-83 106l-80 -106h-51l95 144h72zM161 0h-83v667h83v-667z" />
    <glyph glyph-name="Idieresis" unicode="&#xcf;" horiz-adv-x="239" 
d="M270 771c0 -12.667 -4.66699 -23.667 -14 -33s-20.333 -14 -33 -14s-23.667 4.66699 -33 14s-14 20.333 -14 33s4.66699 23.5 14 32.5s20.333 13.5 33 13.5s23.667 -4.5 33 -13.5s14 -19.833 14 -32.5zM63 771c0 -12.667 -4.5 -23.667 -13.5 -33s-19.833 -14 -32.5 -14
s-23.667 4.66699 -33 14s-14 20.333 -14 33s4.66699 23.5 14 32.5s20.333 13.5 33 13.5s23.5 -4.5 32.5 -13.5s13.5 -19.833 13.5 -32.5zM161 0h-83v667h83v-667z" />
    <glyph glyph-name="Eth" unicode="&#xd0;" horiz-adv-x="728" 
d="M334 0l-228 0.000976562v299h-96v61h96v307h228c102 0 184.5 -31.667 247.5 -95s94.5 -143 94.5 -239c0 -96.667 -31.5 -176.334 -94.5 -239.001s-145.5 -94 -247.5 -94zM334 74.001c78.667 0 141 24.667 187 74s69 111 69 185c0 74.667 -22.667 136.667 -68 186
s-108 74 -188 74h-145v-233h169v-61h-169v-225h145z" />
    <glyph glyph-name="Ntilde" unicode="&#xd1;" horiz-adv-x="708" 
d="M412 721c-16.667 0 -31.166 4.83301 -43.499 14.5s-21.5 20.167 -27.5 31.5s-13.5 21.833 -22.5 31.5s-18.833 14.5 -29.5 14.5c-14 0 -25.5 -7.16699 -34.5 -21.5s-13.5 -35.833 -13.5 -64.5h-45c0 40 8.5 72.333 25.5 97s40.833 37 71.5 37
c16 0 30.167 -4.83301 42.5 -14.5s21.666 -20.167 27.999 -31.5s14 -21.833 23 -31.5s18.833 -14.5 29.5 -14.5c14 0 25.5 7.16699 34.5 21.5s13.5 35.833 13.5 64.5h45c0 -40 -8.5 -72.333 -25.5 -97s-40.833 -37 -71.5 -37zM630.001 0h-80l-389 532v-532h-83v667h85
l384 -521v521h83v-667z" />
    <glyph glyph-name="Ograve" unicode="&#xd2;" horiz-adv-x="765" 
d="M440 723h-57l-169 144h78zM382 -12c-98 0 -177.667 32.667 -239 98s-92 147.666 -92 246.999s30.667 181.666 92 246.999s141 98 239 98c97.333 0 176.833 -32.667 238.5 -98s92.5 -147.666 92.5 -246.999s-30.833 -181.666 -92.5 -246.999s-141.167 -98 -238.5 -98z
M382 62c73.333 0 132.5 25.5 177.5 76.5s67.5 115.833 67.5 194.5c0 79.333 -22.5 144.333 -67.5 195s-104.167 76 -177.5 76c-74 0 -133.333 -25.333 -178 -76s-67 -115.667 -67 -195c0 -78.667 22.333 -143.5 67 -194.5s104 -76.5 178 -76.5z" />
    <glyph glyph-name="Oacute" unicode="&#xd3;" horiz-adv-x="765" 
d="M552 867l-169 -144h-57l148 144h78zM382 -12c-98 0 -177.667 32.667 -239 98s-92 147.666 -92 246.999s30.667 181.666 92 246.999s141 98 239 98c97.333 0 176.833 -32.667 238.5 -98s92.5 -147.666 92.5 -246.999s-30.833 -181.666 -92.5 -246.999
s-141.167 -98 -238.5 -98zM382 62c73.333 0 132.5 25.5 177.5 76.5s67.5 115.833 67.5 194.5c0 79.333 -22.5 144.333 -67.5 195s-104.167 76 -177.5 76c-74 0 -133.333 -25.333 -178 -76s-67 -115.667 -67 -195c0 -78.667 22.333 -143.5 67 -194.5s104 -76.5 178 -76.5z
" />
    <glyph glyph-name="Ocircumflex" unicode="&#xd4;" horiz-adv-x="765" 
d="M517 723h-51l-83 106l-80 -106h-51l95 144h72zM382 -12c-98 0 -177.667 32.667 -239 98s-92 147.666 -92 246.999s30.667 181.666 92 246.999s141 98 239 98c97.333 0 176.833 -32.667 238.5 -98s92.5 -147.666 92.5 -246.999s-30.833 -181.666 -92.5 -246.999
s-141.167 -98 -238.5 -98zM382 62c73.333 0 132.5 25.5 177.5 76.5s67.5 115.833 67.5 194.5c0 79.333 -22.5 144.333 -67.5 195s-104.167 76 -177.5 76c-74 0 -133.333 -25.333 -178 -76s-67 -115.667 -67 -195c0 -78.667 22.333 -143.5 67 -194.5s104 -76.5 178 -76.5z
" />
    <glyph glyph-name="Otilde" unicode="&#xd5;" horiz-adv-x="765" 
d="M382 -12c-98 0 -177.667 32.667 -239 98s-92 147.666 -92 246.999s30.667 181.666 92 246.999s141 98 239 98c97.333 0 176.833 -32.667 238.5 -98s92.5 -147.666 92.5 -246.999s-30.833 -181.666 -92.5 -246.999s-141.167 -98 -238.5 -98zM382 62
c73.333 0 132.5 25.5 177.5 76.5s67.5 115.833 67.5 194.5c0 79.333 -22.5 144.333 -67.5 195s-104.167 76 -177.5 76c-74 0 -133.333 -25.333 -178 -76s-67 -115.667 -67 -195c0 -78.667 22.333 -143.5 67 -194.5s104 -76.5 178 -76.5zM442 721
c-16.667 0 -31.166 4.83301 -43.499 14.5s-21.5 20.167 -27.5 31.5s-13.5 21.833 -22.5 31.5s-18.833 14.5 -29.5 14.5c-14 0 -25.5 -7.16699 -34.5 -21.5s-13.5 -35.833 -13.5 -64.5h-45c0 40 8.5 72.333 25.5 97s40.833 37 71.5 37c16 0 30.167 -4.83301 42.5 -14.5
s21.666 -20.167 27.999 -31.5s14 -21.833 23 -31.5s18.833 -14.5 29.5 -14.5c14 0 25.5 7.16699 34.5 21.5s13.5 35.833 13.5 64.5h45c0 -40 -8.5 -72.333 -25.5 -97s-40.833 -37 -71.5 -37z" />
    <glyph glyph-name="Odieresis" unicode="&#xd6;" horiz-adv-x="765" 
d="M532 771c0 -12.667 -4.66699 -23.667 -14 -33s-20.333 -14 -33 -14s-23.667 4.66699 -33 14s-14 20.333 -14 33s4.66699 23.5 14 32.5s20.333 13.5 33 13.5s23.667 -4.5 33 -13.5s14 -19.833 14 -32.5zM325 771c0 -12.667 -4.5 -23.667 -13.5 -33s-19.833 -14 -32.5 -14
s-23.667 4.66699 -33 14s-14 20.333 -14 33s4.66699 23.5 14 32.5s20.333 13.5 33 13.5s23.5 -4.5 32.5 -13.5s13.5 -19.833 13.5 -32.5zM382 -12c-98 0 -177.667 32.667 -239 98s-92 147.666 -92 246.999s30.667 181.666 92 246.999s141 98 239 98
c97.333 0 176.833 -32.667 238.5 -98s92.5 -147.666 92.5 -246.999s-30.833 -181.666 -92.5 -246.999s-141.167 -98 -238.5 -98zM382 62c73.333 0 132.5 25.5 177.5 76.5s67.5 115.833 67.5 194.5c0 79.333 -22.5 144.333 -67.5 195s-104.167 76 -177.5 76
c-74 0 -133.333 -25.333 -178 -76s-67 -115.667 -67 -195c0 -78.667 22.333 -143.5 67 -194.5s104 -76.5 178 -76.5z" />
    <glyph glyph-name="multiply" unicode="&#xd7;" horiz-adv-x="499" 
d="M398 148l-149 149l-148 -149l-37 37l148 149l-148 148l37 38l148 -149l149 149l37 -38l-148 -148l148 -149z" />
    <glyph glyph-name="Oslash" unicode="&#xd8;" horiz-adv-x="765" 
d="M382 -12c-64.667 0 -122.333 15.001 -173 45.001l-22 -33h-66l44 65c-76 65.333 -114 154.666 -114 267.999c0 99.333 30.667 181.666 92 246.999s141 98 239 98c61.333 0 117 -14 167 -42l21 31h66l-42 -62c38 -31.333 67.333 -70.5 88 -117.5s31 -98.5 31 -154.5
c0 -99.333 -30.833 -181.666 -92.5 -246.999s-141.167 -98 -238.5 -98zM382.001 62.001c73.333 0 132.5 25.5 177.5 76.5s67.5 115.833 67.5 194.5c0 86.667 -26 155 -78 205l-297 -441c36.667 -23.333 80 -35 130 -35zM137.001 333.001c0 -84 24.332 -151 72.999 -201
l296 440c-37.333 21.333 -78.666 32 -123.999 32c-74 0 -133.333 -25.333 -178 -76s-67 -115.667 -67 -195z" />
    <glyph glyph-name="Ugrave" unicode="&#xd9;" horiz-adv-x="700" 
d="M350 -12c-88.667 0 -156.169 24.167 -202.502 72.5s-69.5 114.5 -69.5 198.5v408h83v-406c0 -62 16.333 -110.667 49 -146s79.334 -53 140.001 -53s107.334 17.667 140.001 53s49 84 49 146v406h83v-407c0 -84.667 -23.167 -151.167 -69.5 -199.5
s-113.833 -72.5 -202.5 -72.5zM406.998 723h-57l-169 144h78z" />
    <glyph glyph-name="Uacute" unicode="&#xda;" horiz-adv-x="700" 
d="M519 867l-169 -144h-57l148 144h78zM350 -12c-88.667 0 -156.169 24.167 -202.502 72.5s-69.5 114.5 -69.5 198.5v408h83v-406c0 -62 16.333 -110.667 49 -146s79.334 -53 140.001 -53s107.334 17.667 140.001 53s49 84 49 146v406h83v-407
c0 -84.667 -23.167 -151.167 -69.5 -199.5s-113.833 -72.5 -202.5 -72.5z" />
    <glyph glyph-name="Ucircumflex" unicode="&#xdb;" horiz-adv-x="700" 
d="M485 723h-51l-83 106l-80 -106h-51l95 144h72zM350 -12c-88.667 0 -156.169 24.167 -202.502 72.5s-69.5 114.5 -69.5 198.5v408h83v-406c0 -62 16.333 -110.667 49 -146s79.334 -53 140.001 -53s107.334 17.667 140.001 53s49 84 49 146v406h83v-407
c0 -84.667 -23.167 -151.167 -69.5 -199.5s-113.833 -72.5 -202.5 -72.5z" />
    <glyph glyph-name="Udieresis" unicode="&#xdc;" horiz-adv-x="700" 
d="M501 771c0 -12.667 -4.66699 -23.667 -14 -33s-20.333 -14 -33 -14s-23.667 4.66699 -33 14s-14 20.333 -14 33s4.66699 23.5 14 32.5s20.333 13.5 33 13.5s23.667 -4.5 33 -13.5s14 -19.833 14 -32.5zM294 771c0 -12.667 -4.5 -23.667 -13.5 -33s-19.833 -14 -32.5 -14
c-13.333 0 -24.5 4.66699 -33.5 14s-13.5 20.333 -13.5 33s4.66699 23.5 14 32.5s20.333 13.5 33 13.5s23.5 -4.5 32.5 -13.5s13.5 -19.833 13.5 -32.5zM350 -12c-88.667 0 -156.169 24.167 -202.502 72.5s-69.5 114.5 -69.5 198.5v408h83v-406
c0 -62 16.333 -110.667 49 -146s79.334 -53 140.001 -53s107.334 17.667 140.001 53s49 84 49 146v406h83v-407c0 -84.667 -23.167 -151.167 -69.5 -199.5s-113.833 -72.5 -202.5 -72.5z" />
    <glyph glyph-name="Yacute" unicode="&#xdd;" horiz-adv-x="626" 
d="M355 0h-83v282l-263 385h97l207 -310l207 310h97l-262 -385v-282zM482 867l-169 -144h-57l148 144h78z" />
    <glyph glyph-name="Thorn" unicode="&#xde;" horiz-adv-x="587" 
d="M161 0h-83v667h83v-119h185c64.667 0 115.667 -19.333 153 -58s56 -86.667 56 -144c0 -56.667 -18.833 -104.167 -56.5 -142.5s-88.5 -57.5 -152.5 -57.5h-185v-146zM336 220c39.333 0 71.333 11.668 96 35.001s37 53.666 37 90.999s-12.333 68 -37 92s-56.667 36 -96 36
h-175v-254h175z" />
    <glyph glyph-name="germandbls" unicode="&#xdf;" horiz-adv-x="597" 
d="M578 135c0 -41.333 -16.165 -76.1602 -48.498 -104.493s-78.166 -42.5 -137.499 -42.5c-44 0 -79.833 6.66699 -107.5 20s-53.834 32.666 -78.501 57.999l38 52c15.333 -20 35.833 -36.5 61.5 -49.5s54.5 -19.5 86.5 -19.5c36 0 63.833 8.16699 83.5 24.5
s29.5 36.166 29.5 59.499c0 21.333 -9.83301 38.166 -29.5 50.499s-43.5 21.833 -71.5 28.5s-56.167 14.167 -84.5 22.5s-52.333 22.666 -72 42.999s-29.5 46.5 -29.5 78.5c0 24.667 7.66699 46.667 23 66s32 34 50 44s34.667 21.667 50 35s23 27 23 41
c0 21.333 -10 38 -30 50s-43 18 -69 18c-32.667 0 -60 -10.167 -82 -30.5s-33 -47.166 -33 -80.499v-499h-75v499c0 50 17.5 92.167 52.5 126.5s81.167 51.5 138.5 51.5c48 0 89.167 -11.5 123.5 -34.5s51.5 -53.5 51.5 -91.5c0 -24.667 -7.83301 -46.334 -23.5 -65.001
s-32.834 -32.834 -51.501 -42.501s-35.834 -22 -51.501 -37s-23.5 -31.5 -23.5 -49.5c0 -18.667 9.83301 -33.5 29.5 -44.5s43.667 -19.5 72 -25.5s56.5 -13.333 84.5 -22s51.833 -23.834 71.5 -45.501s29.5 -49.834 29.5 -84.501z" />
    <glyph glyph-name="agrave" unicode="&#xe0;" horiz-adv-x="527" 
d="M452 0l-74.999 -0.000976562v55c-40.667 -44.667 -94 -67 -160 -67c-44.667 0 -84 14.333 -118 43s-51 67.667 -51 117c0 50.667 16.833 89.834 50.5 117.501s73.167 41.5 118.5 41.5c68.667 0 122 -22 160 -66v87c0 32 -11.333 57 -34 75s-52 27 -88 27
c-56.667 0 -106 -22.333 -148 -67l-35 52c51.333 53.333 115.666 80 192.999 80c55.333 0 100.333 -13.333 135 -40s52 -67.667 52 -123v-332zM244.001 41.999c60 0 104.333 20.001 133 60.001v91c-28.667 40 -73 60 -133 60c-34.667 0 -63.167 -9.83301 -85.5 -29.5
s-33.5 -45.167 -33.5 -76.5c0 -30.667 11.167 -55.834 33.5 -75.501s50.833 -29.5 85.5 -29.5zM322.001 556h-57l-169 144h78z" />
    <glyph glyph-name="aacute" unicode="&#xe1;" horiz-adv-x="527" 
d="M452 0l-74.999 -0.000976562v55c-40.667 -44.667 -94 -67 -160 -67c-44.667 0 -84 14.333 -118 43s-51 67.667 -51 117c0 50.667 16.833 89.834 50.5 117.501s73.167 41.5 118.5 41.5c68.667 0 122 -22 160 -66v87c0 32 -11.333 57 -34 75s-52 27 -88 27
c-56.667 0 -106 -22.333 -148 -67l-35 52c51.333 53.333 115.666 80 192.999 80c55.333 0 100.333 -13.333 135 -40s52 -67.667 52 -123v-332zM244.001 41.999c60 0 104.333 20.001 133 60.001v91c-28.667 40 -73 60 -133 60c-34.667 0 -63.167 -9.83301 -85.5 -29.5
s-33.5 -45.167 -33.5 -76.5c0 -30.667 11.167 -55.834 33.5 -75.501s50.833 -29.5 85.5 -29.5zM434.001 700l-169 -144h-57l148 144h78z" />
    <glyph glyph-name="acircumflex" unicode="&#xe2;" horiz-adv-x="527" 
d="M452 0l-74.999 -0.000976562v55c-40.667 -44.667 -94 -67 -160 -67c-44.667 0 -84 14.333 -118 43s-51 67.667 -51 117c0 50.667 16.833 89.834 50.5 117.501s73.167 41.5 118.5 41.5c68.667 0 122 -22 160 -66v87c0 32 -11.333 57 -34 75s-52 27 -88 27
c-56.667 0 -106 -22.333 -148 -67l-35 52c51.333 53.333 115.666 80 192.999 80c55.333 0 100.333 -13.333 135 -40s52 -67.667 52 -123v-332zM244.001 41.999c60 0 104.333 20.001 133 60.001v91c-28.667 40 -73 60 -133 60c-34.667 0 -63.167 -9.83301 -85.5 -29.5
s-33.5 -45.167 -33.5 -76.5c0 -30.667 11.167 -55.834 33.5 -75.501s50.833 -29.5 85.5 -29.5zM398.001 556h-51l-83 106l-80 -106h-51l95 144h72z" />
    <glyph glyph-name="atilde" unicode="&#xe3;" horiz-adv-x="527" 
d="M452 0l-74.999 -0.000976562v55c-40.667 -44.667 -94 -67 -160 -67c-44.667 0 -84 14.333 -118 43s-51 67.667 -51 117c0 50.667 16.833 89.834 50.5 117.501s73.167 41.5 118.5 41.5c68.667 0 122 -22 160 -66v87c0 32 -11.333 57 -34 75s-52 27 -88 27
c-56.667 0 -106 -22.333 -148 -67l-35 52c51.333 53.333 115.666 80 192.999 80c55.333 0 100.333 -13.333 135 -40s52 -67.667 52 -123v-332zM244.001 41.999c60 0 104.333 20.001 133 60.001v91c-28.667 40 -73 60 -133 60c-34.667 0 -63.167 -9.83301 -85.5 -29.5
s-33.5 -45.167 -33.5 -76.5c0 -30.667 11.167 -55.834 33.5 -75.501s50.833 -29.5 85.5 -29.5zM325.001 554c-16.667 0 -31.166 4.83301 -43.499 14.5s-21.5 20.167 -27.5 31.5s-13.5 21.833 -22.5 31.5s-18.833 14.5 -29.5 14.5c-14 0 -25.5 -7.16699 -34.5 -21.5
s-13.5 -35.833 -13.5 -64.5h-45c0 40 8.5 72.333 25.5 97s40.833 37 71.5 37c16 0 30.167 -4.83301 42.5 -14.5s21.666 -20.167 27.999 -31.5s14 -21.833 23 -31.5s18.833 -14.5 29.5 -14.5c14 0 25.5 7.16699 34.5 21.5s13.5 35.833 13.5 64.5h45
c0 -40 -8.5 -72.333 -25.5 -97s-40.833 -37 -71.5 -37z" />
    <glyph glyph-name="adieresis" unicode="&#xe4;" horiz-adv-x="527" 
d="M452 0l-74.999 -0.000976562v55c-40.667 -44.667 -94 -67 -160 -67c-44.667 0 -84 14.333 -118 43s-51 67.667 -51 117c0 50.667 16.833 89.834 50.5 117.501s73.167 41.5 118.5 41.5c68.667 0 122 -22 160 -66v87c0 32 -11.333 57 -34 75s-52 27 -88 27
c-56.667 0 -106 -22.333 -148 -67l-35 52c51.333 53.333 115.666 80 192.999 80c55.333 0 100.333 -13.333 135 -40s52 -67.667 52 -123v-332zM244.001 41.999c60 0 104.333 20.001 133 60.001v91c-28.667 40 -73 60 -133 60c-34.667 0 -63.167 -9.83301 -85.5 -29.5
s-33.5 -45.167 -33.5 -76.5c0 -30.667 11.167 -55.834 33.5 -75.501s50.833 -29.5 85.5 -29.5zM415.001 604c0 -12.667 -4.66699 -23.667 -14 -33s-20.333 -14 -33 -14s-23.667 4.66699 -33 14s-14 20.333 -14 33s4.66699 23.5 14 32.5s20.333 13.5 33 13.5
s23.667 -4.5 33 -13.5s14 -19.833 14 -32.5zM208.001 604c0 -12.667 -4.5 -23.667 -13.5 -33s-19.833 -14 -32.5 -14c-13.333 0 -24.5 4.5 -33.5 13.5s-13.5 20.167 -13.5 33.5c0 12.667 4.66699 23.5 14 32.5s20.333 13.5 33 13.5s23.5 -4.5 32.5 -13.5
s13.5 -19.833 13.5 -32.5z" />
    <glyph glyph-name="aring" unicode="&#xe5;" horiz-adv-x="527" 
d="M452 0l-74.999 -0.000976562v55c-40.667 -44.667 -94 -67 -160 -67c-44.667 0 -84 14.333 -118 43s-51 67.667 -51 117c0 50.667 16.833 89.834 50.5 117.501s73.167 41.5 118.5 41.5c68.667 0 122 -22 160 -66v87c0 32 -11.333 57 -34 75s-52 27 -88 27
c-56.667 0 -106 -22.333 -148 -67l-35 52c51.333 53.333 115.666 80 192.999 80c55.333 0 100.333 -13.333 135 -40s52 -67.667 52 -123v-332zM244.001 41.999c60 0 104.333 20.001 133 60.001v91c-28.667 40 -73 60 -133 60c-34.667 0 -63.167 -9.83301 -85.5 -29.5
s-33.5 -45.167 -33.5 -76.5c0 -30.667 11.167 -55.834 33.5 -75.501s50.833 -29.5 85.5 -29.5zM265.001 543c-27.333 0 -50.5 9.5 -69.5 28.5s-28.5 42.167 -28.5 69.5s9.66699 50.666 29 69.999s42.333 29 69 29s49.667 -9.66699 69 -29s29 -42.666 29 -69.999
s-9.5 -50.5 -28.5 -69.5s-42.167 -28.5 -69.5 -28.5zM265.001 582c16 0 29.667 5.83301 41 17.5s17 25.5 17 41.5c0 16.667 -5.5 30.667 -16.5 42s-24.833 17 -41.5 17c-16 0 -29.667 -5.66699 -41 -17s-17 -25.333 -17 -42c0 -16 5.66699 -29.833 17 -41.5
s25 -17.5 41 -17.5z" />
    <glyph glyph-name="ae" unicode="&#xe6;" horiz-adv-x="889" 
d="M843 217l-366.999 -0.00195312c3.33301 -47.333 19.333 -86.666 48 -117.999s66.334 -47 113.001 -47c56 0 102.333 20.333 139 61l36 -51c-48 -49.333 -107.333 -74 -178 -74c-90.667 0 -155 38.667 -193 116c-17.333 -34.667 -43.833 -62.667 -79.5 -84
s-75.5 -32 -119.5 -32c-54.667 0 -100.667 14.167 -138 42.5s-56 67.5 -56 117.5s17.167 89 51.5 117s76.5 42 126.5 42c74.667 0 133 -21.333 175 -64v86c0 31.333 -12.167 56 -36.5 74s-56.5 27 -96.5 27c-62.667 0 -116.334 -22.333 -161.001 -67l-35 52
c52.667 53.333 121 80 205 80c42.667 0 79.667 -8.66699 111 -26s51.333 -43.666 60 -78.999c40 70 99.667 105 179 105c67.333 0 120.166 -24.333 158.499 -73s57.5 -110.667 57.5 -186v-19zM476.001 271.998h293.001c-0.666992 42 -13.334 79.333 -38.001 112
s-61 49 -109 49c-44 0 -78.833 -16.5 -104.5 -49.5s-39.5 -70.167 -41.5 -111.5zM401.002 179.998v12c-34.667 40.667 -83 61 -145 61c-39.333 0 -71 -9.16699 -95 -27.5s-36 -42.833 -36 -73.5c0 -30 12 -54.167 36 -72.5s55.667 -27.5 95 -27.5
c41.333 0 75.833 13 103.5 39s41.5 55.667 41.5 89z" />
    <glyph glyph-name="ccedilla" unicode="&#xe7;" horiz-adv-x="495" 
d="M289 -189c-42 0 -75.666 9.99902 -100.999 29.999l19 38c23.333 -19.333 50 -29 80 -29c16.667 0 31 3.83301 43 11.5s18 17.834 18 30.501c0 23.333 -12.333 35 -37 35c-15.333 0 -28 -5.66699 -38 -17l-33 19l22 61c-64 6 -115.833 32.333 -155.5 79
s-59.5 104.334 -59.5 173.001c0 72.667 22.333 133 67 181s102.667 72 174 72c74.667 0 133.667 -28 177 -84l-50 -46c-30.667 42 -71.667 63 -123 63c-50.667 0 -91.167 -17.333 -121.5 -52s-45.5 -79.334 -45.5 -134.001s15.167 -99.5 45.5 -134.5
s70.833 -52.5 121.5 -52.5s91.667 21 123 63l50 -46c-40 -51.333 -93 -79 -159 -83l-16 -42c10.667 7.33301 23 11 37 11c19.333 0 35.166 -6.16699 47.499 -18.5s18.5 -28.5 18.5 -48.5c0 -24 -10 -43.333 -30 -58s-44.667 -22 -74 -22z" />
    <glyph glyph-name="egrave" unicode="&#xe8;" horiz-adv-x="563" 
d="M293 -12c-72 0 -130.999 23.5 -176.999 70.5s-69 108.167 -69 183.5c0 70.667 22.667 130.5 68 179.5s102 73.5 170 73.5c71.333 0 127.833 -24.5 169.5 -73.5s62.5 -110.833 62.5 -185.5v-19h-391c3.33301 -47.333 20.666 -87 51.999 -119s72 -48 122 -48
c60 0 109.667 20.333 149 61l36 -49c-49.333 -49.333 -113.333 -74 -192 -74zM443.001 272c-0.666992 41.333 -14.667 78.5 -42 111.5s-66.333 49.5 -117 49.5c-48 0 -85.833 -16.333 -113.5 -49s-42.5 -70 -44.5 -112h317zM342.001 556h-57l-169 144h78z" />
    <glyph glyph-name="eacute" unicode="&#xe9;" horiz-adv-x="563" 
d="M454 700l-169 -144h-57l148 144h78zM293 -12c-72 0 -130.999 23.5 -176.999 70.5s-69 108.167 -69 183.5c0 70.667 22.667 130.5 68 179.5s102 73.5 170 73.5c71.333 0 127.833 -24.5 169.5 -73.5s62.5 -110.833 62.5 -185.5v-19h-391
c3.33301 -47.333 20.666 -87 51.999 -119s72 -48 122 -48c60 0 109.667 20.333 149 61l36 -49c-49.333 -49.333 -113.333 -74 -192 -74zM443.001 272c-0.666992 41.333 -14.667 78.5 -42 111.5s-66.333 49.5 -117 49.5c-48 0 -85.833 -16.333 -113.5 -49
s-42.5 -70 -44.5 -112h317z" />
    <glyph glyph-name="ecircumflex" unicode="&#xea;" horiz-adv-x="563" 
d="M419 556h-51l-83 106l-80 -106h-51l95 144h72zM293 -12c-72 0 -130.999 23.5 -176.999 70.5s-69 108.167 -69 183.5c0 70.667 22.667 130.5 68 179.5s102 73.5 170 73.5c71.333 0 127.833 -24.5 169.5 -73.5s62.5 -110.833 62.5 -185.5v-19h-391
c3.33301 -47.333 20.666 -87 51.999 -119s72 -48 122 -48c60 0 109.667 20.333 149 61l36 -49c-49.333 -49.333 -113.333 -74 -192 -74zM443.001 272c-0.666992 41.333 -14.667 78.5 -42 111.5s-66.333 49.5 -117 49.5c-48 0 -85.833 -16.333 -113.5 -49
s-42.5 -70 -44.5 -112h317z" />
    <glyph glyph-name="edieresis" unicode="&#xeb;" horiz-adv-x="563" 
d="M436 604c0 -12.667 -4.66699 -23.667 -14 -33s-20.333 -14 -33 -14s-23.667 4.66699 -33 14s-14 20.333 -14 33s4.66699 23.5 14 32.5s20.333 13.5 33 13.5s23.667 -4.5 33 -13.5s14 -19.833 14 -32.5zM229 604c0 -12.667 -4.5 -23.667 -13.5 -33s-19.833 -14 -32.5 -14
s-23.667 4.5 -33 13.5s-14 20.167 -14 33.5c0 12.667 4.66699 23.5 14 32.5s20.333 13.5 33 13.5s23.5 -4.5 32.5 -13.5s13.5 -19.833 13.5 -32.5zM293 -12c-72 0 -130.999 23.5 -176.999 70.5s-69 108.167 -69 183.5c0 70.667 22.667 130.5 68 179.5s102 73.5 170 73.5
c71.333 0 127.833 -24.5 169.5 -73.5s62.5 -110.833 62.5 -185.5v-19h-391c3.33301 -47.333 20.666 -87 51.999 -119s72 -48 122 -48c60 0 109.667 20.333 149 61l36 -49c-49.333 -49.333 -113.333 -74 -192 -74zM443.001 272c-0.666992 41.333 -14.667 78.5 -42 111.5
s-66.333 49.5 -117 49.5c-48 0 -85.833 -16.333 -113.5 -49s-42.5 -70 -44.5 -112h317z" />
    <glyph glyph-name="igrave" unicode="&#xec;" horiz-adv-x="225" 
d="M150 0h-75v483h75v-483zM169 556h-57l-169 144h78z" />
    <glyph glyph-name="iacute" unicode="&#xed;" horiz-adv-x="225" 
d="M282 700l-169 -144h-57l148 144h78zM150 0h-75v483h75v-483z" />
    <glyph glyph-name="icircumflex" unicode="&#xee;" horiz-adv-x="225" 
d="M245 556h-51l-83 106l-80 -106h-51l95 144h72zM150 0h-75v483h75v-483z" />
    <glyph glyph-name="idieresis" unicode="&#xef;" horiz-adv-x="225" 
d="M263 604c0 -12.667 -4.66699 -23.667 -14 -33s-20.333 -14 -33 -14s-23.667 4.66699 -33 14s-14 20.333 -14 33s4.66699 23.5 14 32.5s20.333 13.5 33 13.5s23.667 -4.5 33 -13.5s14 -19.833 14 -32.5zM56 604c0 -12.667 -4.5 -23.667 -13.5 -33s-19.833 -14 -32.5 -14
c-13.333 0 -24.5 4.5 -33.5 13.5s-13.5 20.167 -13.5 33.5c0 12.667 4.66699 23.5 14 32.5s20.333 13.5 33 13.5s23.5 -4.5 32.5 -13.5s13.5 -19.833 13.5 -32.5zM150 0h-75v483h75v-483z" />
    <glyph glyph-name="eth" unicode="&#xf0;" 
d="M122 497l-18 41.9971l118 52l-75 48l41 62c44.667 -27.333 82 -52.666 112 -75.999l108 48l17 -41l-86 -38c124 -105.333 186 -221 186 -347c0 -76 -21.667 -138.167 -65 -186.5s-101.333 -72.5 -174 -72.5c-71.333 0 -129 23.333 -173 70s-66 105.334 -66 176.001
s20.667 129.167 62 175.5s94 69.5 158 69.5s116.667 -29.667 158 -89c-32.667 58.667 -86 115.334 -160 170.001zM286 54.9971c49.333 0 88.333 17.333 117 52s43 77 43 127c0 49.333 -14.333 91.333 -43 126s-67.667 52 -117 52s-88.5 -17.333 -117.5 -52
s-43.5 -76.667 -43.5 -126c0 -50 14.5 -92.333 43.5 -127s68.167 -52 117.5 -52z" />
    <glyph glyph-name="ntilde" unicode="&#xf1;" horiz-adv-x="551" 
d="M476 0l-74.998 0.000976562v316c0 40.667 -9.33301 69.5 -28 86.5s-45.334 25.5 -80.001 25.5c-28 0 -55.167 -7.33301 -81.5 -22s-46.833 -32.334 -61.5 -53.001v-353h-75v483h75v-70c18.667 22 43.667 41.167 75 57.5s63.666 24.5 96.999 24.5
c102.667 0 154 -52 154 -156v-339zM336.002 554.001c-16.667 0 -31.166 4.83301 -43.499 14.5s-21.5 20.167 -27.5 31.5s-13.5 21.833 -22.5 31.5s-18.833 14.5 -29.5 14.5c-14 0 -25.5 -7.16699 -34.5 -21.5s-13.5 -35.833 -13.5 -64.5h-45c0 40 8.5 72.333 25.5 97
s40.833 37 71.5 37c16 0 30.167 -4.83301 42.5 -14.5s21.666 -20.167 27.999 -31.5s14 -21.833 23 -31.5s18.833 -14.5 29.5 -14.5c14 0 25.5 7.16699 34.5 21.5s13.5 35.833 13.5 64.5h45c0 -40 -8.5 -72.333 -25.5 -97s-40.833 -37 -71.5 -37z" />
    <glyph glyph-name="ograve" unicode="&#xf2;" 
d="M286 -12c-72 0 -129.833 24.333 -173.5 73s-65.5 109 -65.5 181s21.833 132.167 65.5 180.5s101.5 72.5 173.5 72.5s129.833 -24.167 173.5 -72.5s65.5 -108.5 65.5 -180.5s-21.833 -132.333 -65.5 -181s-101.5 -73 -173.5 -73zM286 55
c49.333 0 88.333 18.166 117 54.499s43 80.5 43 132.5s-14.333 96 -43 132s-67.667 54 -117 54s-88.5 -18.167 -117.5 -54.5s-43.5 -80.166 -43.5 -131.499c0 -52 14.5 -96.167 43.5 -132.5s68.167 -54.5 117.5 -54.5zM343 555.999h-57l-169 144h78z" />
    <glyph glyph-name="oacute" unicode="&#xf3;" 
d="M455 700l-169 -144h-57l148 144h78zM286 -12c-72 0 -129.833 24.333 -173.5 73s-65.5 109 -65.5 181s21.833 132.167 65.5 180.5s101.5 72.5 173.5 72.5s129.833 -24.167 173.5 -72.5s65.5 -108.5 65.5 -180.5s-21.833 -132.333 -65.5 -181s-101.5 -73 -173.5 -73z
M286 55c49.333 0 88.333 18.166 117 54.499s43 80.5 43 132.5s-14.333 96 -43 132s-67.667 54 -117 54s-88.5 -18.167 -117.5 -54.5s-43.5 -80.166 -43.5 -131.499c0 -52 14.5 -96.167 43.5 -132.5s68.167 -54.5 117.5 -54.5z" />
    <glyph glyph-name="ocircumflex" unicode="&#xf4;" 
d="M419 556h-51l-83 106l-80 -106h-51l95 144h72zM286 -12c-72 0 -129.833 24.333 -173.5 73s-65.5 109 -65.5 181s21.833 132.167 65.5 180.5s101.5 72.5 173.5 72.5s129.833 -24.167 173.5 -72.5s65.5 -108.5 65.5 -180.5s-21.833 -132.333 -65.5 -181
s-101.5 -73 -173.5 -73zM286 55c49.333 0 88.333 18.166 117 54.499s43 80.5 43 132.5s-14.333 96 -43 132s-67.667 54 -117 54s-88.5 -18.167 -117.5 -54.5s-43.5 -80.166 -43.5 -131.499c0 -52 14.5 -96.167 43.5 -132.5s68.167 -54.5 117.5 -54.5z" />
    <glyph glyph-name="otilde" unicode="&#xf5;" 
d="M286 -12c-72 0 -129.833 24.333 -173.5 73s-65.5 109 -65.5 181s21.833 132.167 65.5 180.5s101.5 72.5 173.5 72.5s129.833 -24.167 173.5 -72.5s65.5 -108.5 65.5 -180.5s-21.833 -132.333 -65.5 -181s-101.5 -73 -173.5 -73zM286 55
c49.333 0 88.333 18.166 117 54.499s43 80.5 43 132.5s-14.333 96 -43 132s-67.667 54 -117 54s-88.5 -18.167 -117.5 -54.5s-43.5 -80.166 -43.5 -131.499c0 -52 14.5 -96.167 43.5 -132.5s68.167 -54.5 117.5 -54.5zM346 553.999c-16.667 0 -31.166 4.83301 -43.499 14.5
s-21.5 20.167 -27.5 31.5s-13.5 21.833 -22.5 31.5s-18.833 14.5 -29.5 14.5c-14 0 -25.5 -7.16699 -34.5 -21.5s-13.5 -35.833 -13.5 -64.5h-45c0 40 8.5 72.333 25.5 97s40.833 37 71.5 37c16 0 30.167 -4.83301 42.5 -14.5s21.666 -20.167 27.999 -31.5
s14 -21.833 23 -31.5s18.833 -14.5 29.5 -14.5c14 0 25.5 7.16699 34.5 21.5s13.5 35.833 13.5 64.5h45c0 -40 -8.5 -72.333 -25.5 -97s-40.833 -37 -71.5 -37z" />
    <glyph glyph-name="odieresis" unicode="&#xf6;" 
d="M436 604c0 -12.667 -4.66699 -23.667 -14 -33s-20.333 -14 -33 -14s-23.667 4.66699 -33 14s-14 20.333 -14 33s4.66699 23.5 14 32.5s20.333 13.5 33 13.5s23.667 -4.5 33 -13.5s14 -19.833 14 -32.5zM229 604c0 -12.667 -4.5 -23.667 -13.5 -33s-19.833 -14 -32.5 -14
s-23.667 4.5 -33 13.5s-14 20.167 -14 33.5c0 12.667 4.66699 23.5 14 32.5s20.333 13.5 33 13.5s23.5 -4.5 32.5 -13.5s13.5 -19.833 13.5 -32.5zM286 -12c-72 0 -129.833 24.333 -173.5 73s-65.5 109 -65.5 181s21.833 132.167 65.5 180.5s101.5 72.5 173.5 72.5
s129.833 -24.167 173.5 -72.5s65.5 -108.5 65.5 -180.5s-21.833 -132.333 -65.5 -181s-101.5 -73 -173.5 -73zM286 55c49.333 0 88.333 18.166 117 54.499s43 80.5 43 132.5s-14.333 96 -43 132s-67.667 54 -117 54s-88.5 -18.167 -117.5 -54.5
s-43.5 -80.166 -43.5 -131.499c0 -52 14.5 -96.167 43.5 -132.5s68.167 -54.5 117.5 -54.5z" />
    <glyph glyph-name="divide" unicode="&#xf7;" horiz-adv-x="511" 
d="M302 526c0 -12.667 -4.66699 -23.5 -14 -32.5s-20.333 -13.5 -33 -13.5s-23.334 4.5 -32.001 13.5s-13 19.833 -13 32.5s4.33301 23.5 13 32.5s19.334 13.5 32.001 13.5c13.333 0 24.5 -4.5 33.5 -13.5s13.5 -19.833 13.5 -32.5zM482 311h-453v52h453v-52zM302 144
c0 -12.667 -4.66699 -23.5 -14 -32.5s-20.333 -13.5 -33 -13.5s-23.334 4.5 -32.001 13.5s-13 19.833 -13 32.5s4.33301 23.5 13 32.5s19.334 13.5 32.001 13.5s23.667 -4.5 33 -13.5s14 -19.833 14 -32.5z" />
    <glyph glyph-name="oslash" unicode="&#xf8;" 
d="M118 0l-54.002 0.000976562l48 61c-43.333 47.333 -65 107.666 -65 180.999c0 72 21.833 132.167 65.5 180.5s101.5 72.5 173.5 72.5c52.667 0 98.334 -13.667 137.001 -41l23 29h54l-45 -57c46.667 -48 70 -109.333 70 -184c0 -72 -21.833 -132.333 -65.5 -181
s-101.5 -73 -173.5 -73c-55.333 0 -102.666 15 -141.999 45zM285.998 55.001c49.333 0 88.333 18.166 117 54.499s43 80.5 43 132.5c0 48.667 -12.667 90.334 -38 125.001l-220 -278c28 -22.667 60.667 -34 98 -34zM124.998 242c0 -46.667 11.333 -87.001 34 -121.001
l219 277c-25.333 20 -56 30 -92 30c-49.333 0 -88.5 -18.167 -117.5 -54.5s-43.5 -80.166 -43.5 -131.499z" />
    <glyph glyph-name="ugrave" unicode="&#xf9;" horiz-adv-x="551" 
d="M476 0h-74.999v68c-20 -22.667 -45.167 -41.667 -75.5 -57s-62.5 -23 -96.5 -23c-102.667 0 -154 51.333 -154 154v341h75v-318c0 -40 9.16699 -68.333 27.5 -85s45.166 -25 80.499 -25c28 0 55.167 7 81.5 21s46.833 31.333 61.5 52v355h75v-483zM332.001 556h-57
l-169 144h78z" />
    <glyph glyph-name="uacute" unicode="&#xfa;" horiz-adv-x="551" 
d="M444 700l-169 -144h-57l148 144h78zM476 0h-74.999v68c-20 -22.667 -45.167 -41.667 -75.5 -57s-62.5 -23 -96.5 -23c-102.667 0 -154 51.333 -154 154v341h75v-318c0 -40 9.16699 -68.333 27.5 -85s45.166 -25 80.499 -25c28 0 55.167 7 81.5 21s46.833 31.333 61.5 52
v355h75v-483z" />
    <glyph glyph-name="ucircumflex" unicode="&#xfb;" horiz-adv-x="551" 
d="M408 556h-51l-83 106l-80 -106h-51l95 144h72zM476 0h-74.999v68c-20 -22.667 -45.167 -41.667 -75.5 -57s-62.5 -23 -96.5 -23c-102.667 0 -154 51.333 -154 154v341h75v-318c0 -40 9.16699 -68.333 27.5 -85s45.166 -25 80.499 -25c28 0 55.167 7 81.5 21
s46.833 31.333 61.5 52v355h75v-483z" />
    <glyph glyph-name="udieresis" unicode="&#xfc;" horiz-adv-x="551" 
d="M427 604c0 -12.667 -4.66699 -23.667 -14 -33s-20.333 -14 -33 -14s-23.667 4.66699 -33 14s-14 20.333 -14 33s4.66699 23.5 14 32.5s20.333 13.5 33 13.5s23.667 -4.5 33 -13.5s14 -19.833 14 -32.5zM220 604c0 -12.667 -4.5 -23.667 -13.5 -33s-19.833 -14 -32.5 -14
c-13.333 0 -24.5 4.5 -33.5 13.5s-13.5 20.167 -13.5 33.5c0 12.667 4.66699 23.5 14 32.5s20.333 13.5 33 13.5s23.5 -4.5 32.5 -13.5s13.5 -19.833 13.5 -32.5zM476 0h-74.999v68c-20 -22.667 -45.167 -41.667 -75.5 -57s-62.5 -23 -96.5 -23
c-102.667 0 -154 51.333 -154 154v341h75v-318c0 -40 9.16699 -68.333 27.5 -85s45.166 -25 80.499 -25c28 0 55.167 7 81.5 21s46.833 31.333 61.5 52v355h75v-483z" />
    <glyph glyph-name="yacute" unicode="&#xfd;" horiz-adv-x="490" 
d="M48 -189l12.001 68.001c12 -5.33301 25.667 -8 41 -8c17.333 0 31.666 3.66699 42.999 11s21 20.666 29 39.999l32 73l-202 488h81l161 -396l160 396h82l-242 -581c-26.667 -64 -74 -96.667 -142 -98c-20.667 0 -39 2.33301 -55 7zM414.001 700.001l-169 -144h-57
l148 144h78z" />
    <glyph glyph-name="thorn" unicode="&#xfe;" 
d="M313 -12c-68 0 -122.333 28.334 -163 85.001v-257h-75v851h75v-256c18 25.333 41.333 45.666 70 60.999s59.667 23 93 23c64 0 115.833 -22.833 155.5 -68.5s59.5 -107.167 59.5 -184.5s-19.833 -139 -59.5 -185s-91.5 -69 -155.5 -69zM294 55.001
c47.333 0 85 17.499 113 52.499s42 79.833 42 134.5s-14 99.334 -42 134.001s-65.667 52 -113 52c-28.667 0 -56.5 -7.5 -83.5 -22.5s-47.167 -33.167 -60.5 -54.5v-218c13.333 -22 33.5 -40.5 60.5 -55.5s54.833 -22.5 83.5 -22.5z" />
    <glyph glyph-name="ydieresis" unicode="&#xff;" horiz-adv-x="490" 
d="M48 -189l12.001 68.001c12 -5.33301 25.667 -8 41 -8c17.333 0 31.666 3.66699 42.999 11s21 20.666 29 39.999l32 73l-202 488h81l161 -396l160 396h82l-242 -581c-26.667 -64 -74 -96.667 -142 -98c-20.667 0 -39 2.33301 -55 7zM395.001 604.001
c0 -12.667 -4.66699 -23.667 -14 -33s-20.333 -14 -33 -14s-23.667 4.66699 -33 14s-14 20.333 -14 33s4.66699 23.5 14 32.5s20.333 13.5 33 13.5s23.667 -4.5 33 -13.5s14 -19.833 14 -32.5zM188.001 604.001c0 -12.667 -4.5 -23.667 -13.5 -33s-19.833 -14 -32.5 -14
c-13.333 0 -24.5 4.5 -33.5 13.5s-13.5 20.167 -13.5 33.5c0 12.667 4.66699 23.5 14 32.5s20.333 13.5 33 13.5s23.5 -4.5 32.5 -13.5s13.5 -19.833 13.5 -32.5z" />
    <glyph glyph-name="Amacron" unicode="&#x100;" horiz-adv-x="658" 
d="M649 0h-95l-59 148h-332l-59 -148h-95l268 667h103zM470 222l-141 359l-142 -359h283zM510 739h-363v48h363v-48z" />
    <glyph glyph-name="amacron" unicode="&#x101;" horiz-adv-x="527" 
d="M452 0l-74.999 -0.000976562v55c-40.667 -44.667 -94 -67 -160 -67c-44.667 0 -84 14.333 -118 43s-51 67.667 -51 117c0 50.667 16.833 89.834 50.5 117.501s73.167 41.5 118.5 41.5c68.667 0 122 -22 160 -66v87c0 32 -11.333 57 -34 75s-52 27 -88 27
c-56.667 0 -106 -22.333 -148 -67l-35 52c51.333 53.333 115.666 80 192.999 80c55.333 0 100.333 -13.333 135 -40s52 -67.667 52 -123v-332zM244.001 41.999c60 0 104.333 20.001 133 60.001v91c-28.667 40 -73 60 -133 60c-34.667 0 -63.167 -9.83301 -85.5 -29.5
s-33.5 -45.167 -33.5 -76.5c0 -30.667 11.167 -55.834 33.5 -75.501s50.833 -29.5 85.5 -29.5zM445.001 572h-363v48h363v-48z" />
    <glyph glyph-name="Abreve" unicode="&#x102;" horiz-adv-x="658" 
d="M649 0h-95l-59 148h-332l-59 -148h-95l268 667h103zM470 222l-141 359l-142 -359h283zM504 793c-43.333 -58.667 -101.666 -88 -174.999 -88c-72.667 0 -131.334 29.333 -176.001 88l37 32c34.667 -48 81 -72 139 -72c58.667 0 104.667 24 138 72z" />
    <glyph glyph-name="abreve" unicode="&#x103;" horiz-adv-x="527" 
d="M452 0l-74.999 -0.000976562v55c-40.667 -44.667 -94 -67 -160 -67c-44.667 0 -84 14.333 -118 43s-51 67.667 -51 117c0 50.667 16.833 89.834 50.5 117.501s73.167 41.5 118.5 41.5c68.667 0 122 -22 160 -66v87c0 32 -11.333 57 -34 75s-52 27 -88 27
c-56.667 0 -106 -22.333 -148 -67l-35 52c51.333 53.333 115.666 80 192.999 80c55.333 0 100.333 -13.333 135 -40s52 -67.667 52 -123v-332zM244.001 41.999c60 0 104.333 20.001 133 60.001v91c-28.667 40 -73 60 -133 60c-34.667 0 -63.167 -9.83301 -85.5 -29.5
s-33.5 -45.167 -33.5 -76.5c0 -30.667 11.167 -55.834 33.5 -75.501s50.833 -29.5 85.5 -29.5zM439.001 626c-43.333 -58.667 -101.666 -88 -174.999 -88c-72.667 0 -131.334 29.333 -176.001 88l37 32c34.667 -48 81 -72 139 -72c58.667 0 104.667 24 138 72z" />
    <glyph glyph-name="Aogonek" unicode="&#x104;" horiz-adv-x="658" 
d="M669 -105l37.001 -21.002c-17.333 -40 -47 -60 -89 -60c-25.333 0 -46.5 7.33301 -63.5 22s-25.5 36.334 -25.5 65.001c0 38 17.667 71 53 99h-27l-59 148h-332l-59 -148h-95l268 667h103l269 -667c-50.667 -25.333 -76 -57.666 -76 -96.999c0 -33.333 14.667 -50 44 -50
c25.333 0 42.666 14 51.999 42zM470.001 221.998l-141 359l-142 -359h283z" />
    <glyph glyph-name="aogonek" unicode="&#x105;" horiz-adv-x="527" 
d="M472 -105l37.002 -21.0029c-17.333 -40 -47 -60 -89 -60c-25.333 0 -46.5 7.33301 -63.5 22s-25.5 36.334 -25.5 65.001c0 38 17.667 71 53 99h-7v55c-40.667 -44.667 -94 -67 -160 -67c-44.667 0 -84 14.333 -118 43s-51 67.667 -51 117
c0 50.667 16.833 89.834 50.5 117.501s73.167 41.5 118.5 41.5c68.667 0 122 -22 160 -66v87c0 32 -11.333 57 -34 75s-52 27 -88 27c-56.667 0 -106 -22.333 -148 -67l-35 52c51.333 53.333 115.666 80 192.999 80c55.333 0 100.333 -13.333 135 -40s52 -67.667 52 -123
v-332c-50.667 -25.333 -76 -57.666 -76 -96.999c0 -33.333 14.667 -50 44 -50c25.333 0 42.666 14 51.999 42zM244.002 41.9971c60 0 104.333 20.001 133 60.001v91c-28.667 40 -73 60 -133 60c-34.667 0 -63.167 -9.83301 -85.5 -29.5s-33.5 -45.167 -33.5 -76.5
c0 -30.667 11.167 -55.834 33.5 -75.501s50.833 -29.5 85.5 -29.5z" />
    <glyph glyph-name="Cacute" unicode="&#x106;" horiz-adv-x="676" 
d="M563 867l-169 -144h-57l148 144h78zM394 -12c-97.333 0 -178.832 32.1689 -244.499 96.502s-98.5 147.166 -98.5 248.499s32.833 184.166 98.5 248.499s147.167 96.5 244.5 96.5c106.667 0 191 -44 253 -132l-70 -39c-19.333 28.667 -45.333 52 -78 70
s-67.667 27 -105 27c-73.333 0 -134.5 -25.5 -183.5 -76.5s-73.5 -115.833 -73.5 -194.5s24.5 -143.5 73.5 -194.5s110.167 -76.5 183.5 -76.5c37.333 0 72.333 8.83301 105 26.5s58.667 41.167 78 70.5l71 -39c-64.667 -88 -149.334 -132 -254.001 -132z" />
    <glyph glyph-name="cacute" unicode="&#x107;" horiz-adv-x="495" 
d="M456 700l-169 -144h-57l148 144h78zM288 -12c-71.333 0 -129.333 24.168 -174 72.501s-67 108.833 -67 181.5s22.333 133 67 181s102.667 72 174 72c74.667 0 133.667 -28 177 -84l-50 -46c-30.667 42 -71.667 63 -123 63c-50.667 0 -91.167 -17.333 -121.5 -52
s-45.5 -79.334 -45.5 -134.001s15.167 -99.5 45.5 -134.5s70.833 -52.5 121.5 -52.5s91.667 21 123 63l50 -46c-43.333 -56 -102.333 -84 -177 -84z" />
    <glyph glyph-name="Ccircumflex" unicode="&#x108;" horiz-adv-x="676" 
d="M526 723h-51l-83 106l-80 -106h-51l95 144h72zM394 -12c-97.333 0 -178.832 32.1689 -244.499 96.502s-98.5 147.166 -98.5 248.499s32.833 184.166 98.5 248.499s147.167 96.5 244.5 96.5c106.667 0 191 -44 253 -132l-70 -39c-19.333 28.667 -45.333 52 -78 70
s-67.667 27 -105 27c-73.333 0 -134.5 -25.5 -183.5 -76.5s-73.5 -115.833 -73.5 -194.5s24.5 -143.5 73.5 -194.5s110.167 -76.5 183.5 -76.5c37.333 0 72.333 8.83301 105 26.5s58.667 41.167 78 70.5l71 -39c-64.667 -88 -149.334 -132 -254.001 -132z" />
    <glyph glyph-name="ccircumflex" unicode="&#x109;" horiz-adv-x="495" 
d="M421 556h-51l-83 106l-80 -106h-51l95 144h72zM288 -12c-71.333 0 -129.333 24.168 -174 72.501s-67 108.833 -67 181.5s22.333 133 67 181s102.667 72 174 72c74.667 0 133.667 -28 177 -84l-50 -46c-30.667 42 -71.667 63 -123 63
c-50.667 0 -91.167 -17.333 -121.5 -52s-45.5 -79.334 -45.5 -134.001s15.167 -99.5 45.5 -134.5s70.833 -52.5 121.5 -52.5s91.667 21 123 63l50 -46c-43.333 -56 -102.333 -84 -177 -84z" />
    <glyph glyph-name="Cdotaccent" unicode="&#x10a;" horiz-adv-x="676" 
d="M394 -12c-97.333 0 -178.832 32.1689 -244.499 96.502s-98.5 147.166 -98.5 248.499s32.833 184.166 98.5 248.499s147.167 96.5 244.5 96.5c106.667 0 191 -44 253 -132l-70 -39c-19.333 28.667 -45.333 52 -78 70s-67.667 27 -105 27
c-73.333 0 -134.5 -25.5 -183.5 -76.5s-73.5 -115.833 -73.5 -194.5s24.5 -143.5 73.5 -194.5s110.167 -76.5 183.5 -76.5c37.333 0 72.333 8.83301 105 26.5s58.667 41.167 78 70.5l71 -39c-64.667 -88 -149.334 -132 -254.001 -132zM396.001 722.002
c-12.667 0 -23.667 4.66699 -33 14s-14 20.333 -14 33s4.66699 23.667 14 33s20.333 14 33 14s23.5 -4.5 32.5 -13.5s13.5 -20.167 13.5 -33.5s-4.5 -24.5 -13.5 -33.5s-19.833 -13.5 -32.5 -13.5z" />
    <glyph glyph-name="cdotaccent" unicode="&#x10b;" horiz-adv-x="495" 
d="M288 -12c-71.333 0 -129.333 24.168 -174 72.501s-67 108.833 -67 181.5s22.333 133 67 181s102.667 72 174 72c74.667 0 133.667 -28 177 -84l-50 -46c-30.667 42 -71.667 63 -123 63c-50.667 0 -91.167 -17.333 -121.5 -52s-45.5 -79.334 -45.5 -134.001
s15.167 -99.5 45.5 -134.5s70.833 -52.5 121.5 -52.5s91.667 21 123 63l50 -46c-43.333 -56 -102.333 -84 -177 -84zM290 555.001c-12.667 0 -23.667 4.66699 -33 14s-14 20.333 -14 33s4.66699 23.667 14 33s20.333 14 33 14s23.5 -4.5 32.5 -13.5s13.5 -20.167 13.5 -33.5
s-4.5 -24.5 -13.5 -33.5s-19.833 -13.5 -32.5 -13.5z" />
    <glyph glyph-name="Ccaron" unicode="&#x10c;" horiz-adv-x="676" 
d="M431 723h-72l-98 144h51l83 -106l80 106h51zM394 -12c-97.333 0 -178.832 32.1689 -244.499 96.502s-98.5 147.166 -98.5 248.499s32.833 184.166 98.5 248.499s147.167 96.5 244.5 96.5c106.667 0 191 -44 253 -132l-70 -39c-19.333 28.667 -45.333 52 -78 70
s-67.667 27 -105 27c-73.333 0 -134.5 -25.5 -183.5 -76.5s-73.5 -115.833 -73.5 -194.5s24.5 -143.5 73.5 -194.5s110.167 -76.5 183.5 -76.5c37.333 0 72.333 8.83301 105 26.5s58.667 41.167 78 70.5l71 -39c-64.667 -88 -149.334 -132 -254.001 -132z" />
    <glyph glyph-name="ccaron" unicode="&#x10d;" horiz-adv-x="495" 
d="M326 556h-72l-98 144h51l83 -106l80 106h51zM288 -12c-71.333 0 -129.333 24.168 -174 72.501s-67 108.833 -67 181.5s22.333 133 67 181s102.667 72 174 72c74.667 0 133.667 -28 177 -84l-50 -46c-30.667 42 -71.667 63 -123 63c-50.667 0 -91.167 -17.333 -121.5 -52
s-45.5 -79.334 -45.5 -134.001s15.167 -99.5 45.5 -134.5s70.833 -52.5 121.5 -52.5s91.667 21 123 63l50 -46c-43.333 -56 -102.333 -84 -177 -84z" />
    <glyph glyph-name="Dcaron" unicode="&#x10e;" horiz-adv-x="700" 
d="M389 723h-72l-98 144h51l83 -106l80 106h51zM306 0l-228 0.000976562v667h228c102 0 184.5 -31.667 247.5 -95s94.5 -143 94.5 -239c0 -96.667 -31.5 -176.334 -94.5 -239.001s-145.5 -94 -247.5 -94zM306 74.001c78.667 0 141 24.667 187 74s69 111 69 185
c0 74.667 -22.667 136.667 -68 186s-108 74 -188 74h-145v-519h145z" />
    <glyph glyph-name="dcaron" unicode="&#x10f;" horiz-adv-x="644" 
d="M648 613c0 -26 -6.66699 -51 -20 -75s-30.333 -43.667 -51 -59l-33 26c15.333 10 28.5 23.167 39.5 39.5s17.167 31.833 18.5 46.5c-1.33301 -1.33301 -5 -2 -11 -2c-12 0 -22 4.16699 -30 12.5s-12 18.833 -12 31.5c0 13.333 4.5 24.5 13.5 33.5s19.833 13.5 32.5 13.5
c14.667 0 27.167 -6 37.5 -18s15.5 -28.333 15.5 -49zM500 0h-75.001v72c-41.333 -56 -95.666 -84 -162.999 -84c-64 0 -115.833 22.833 -155.5 68.5s-59.5 107.167 -59.5 184.5c0 76.667 19.833 138.167 59.5 184.5s91.5 69.5 155.5 69.5c66.667 0 121 -28.333 163 -85v257
h75v-667zM279.999 55c29.333 0 57.333 7.33398 84 22.001s47 32.667 61 54v219c-14 22 -34.5 40.5 -61.5 55.5s-54.833 22.5 -83.5 22.5c-47.333 0 -85 -17.5 -113 -52.5s-42 -79.833 -42 -134.5s14 -99.334 42 -134.001s65.667 -52 113 -52z" />
    <glyph glyph-name="Dcroat" unicode="&#x110;" horiz-adv-x="728" 
d="M334 0l-228 0.000976562v299h-96v61h96v307h228c102 0 184.5 -31.667 247.5 -95s94.5 -143 94.5 -239c0 -96.667 -31.5 -176.334 -94.5 -239.001s-145.5 -94 -247.5 -94zM334 74.001c78.667 0 141 24.667 187 74s69 111 69 185c0 74.667 -22.667 136.667 -68 186
s-108 74 -188 74h-145v-233h169v-61h-169v-225h145z" />
    <glyph glyph-name="dcroat" unicode="&#x111;" horiz-adv-x="577" 
d="M500 0h-75.001v72c-41.333 -56 -95.666 -84 -162.999 -84c-64 0 -115.833 22.833 -155.5 68.5s-59.5 107.167 -59.5 184.5c0 76.667 19.833 138.167 59.5 184.5s91.5 69.5 155.5 69.5c66.667 0 121 -28.333 163 -85v125h-157v48h157v84h75v-84h68v-48h-68v-535z
M279.999 55c29.333 0 57.333 7.33398 84 22.001s47 32.667 61 54v219c-14 22 -34.5 40.5 -61.5 55.5s-54.833 22.5 -83.5 22.5c-47.333 0 -85 -17.5 -113 -52.5s-42 -79.833 -42 -134.5s14 -99.334 42 -134.001s65.667 -52 113 -52z" />
    <glyph glyph-name="Emacron" unicode="&#x112;" horiz-adv-x="569" 
d="M515 0h-437v667h437v-74h-354v-215h347v-74h-347v-230h354v-74zM477 739h-363v48h363v-48z" />
    <glyph glyph-name="emacron" unicode="&#x113;" horiz-adv-x="563" 
d="M293 -12c-72 0 -130.999 23.5 -176.999 70.5s-69 108.167 -69 183.5c0 70.667 22.667 130.5 68 179.5s102 73.5 170 73.5c71.333 0 127.833 -24.5 169.5 -73.5s62.5 -110.833 62.5 -185.5v-19h-391c3.33301 -47.333 20.666 -87 51.999 -119s72 -48 122 -48
c60 0 109.667 20.333 149 61l36 -49c-49.333 -49.333 -113.333 -74 -192 -74zM443.001 272c-0.666992 41.333 -14.667 78.5 -42 111.5s-66.333 49.5 -117 49.5c-48 0 -85.833 -16.333 -113.5 -49s-42.5 -70 -44.5 -112h317zM466.001 572h-363v48h363v-48z" />
    <glyph glyph-name="Ebreve" unicode="&#x114;" horiz-adv-x="569" 
d="M515 0h-437v667h437v-74h-354v-215h347v-74h-347v-230h354v-74zM473 793c-43.333 -58.667 -101.666 -88 -174.999 -88c-72.667 0 -131.334 29.333 -176.001 88l37 32c34.667 -48 81 -72 139 -72c58.667 0 104.667 24 138 72z" />
    <glyph glyph-name="ebreve" unicode="&#x115;" horiz-adv-x="563" 
d="M293 -12c-72 0 -130.999 23.5 -176.999 70.5s-69 108.167 -69 183.5c0 70.667 22.667 130.5 68 179.5s102 73.5 170 73.5c71.333 0 127.833 -24.5 169.5 -73.5s62.5 -110.833 62.5 -185.5v-19h-391c3.33301 -47.333 20.666 -87 51.999 -119s72 -48 122 -48
c60 0 109.667 20.333 149 61l36 -49c-49.333 -49.333 -113.333 -74 -192 -74zM443.001 272c-0.666992 41.333 -14.667 78.5 -42 111.5s-66.333 49.5 -117 49.5c-48 0 -85.833 -16.333 -113.5 -49s-42.5 -70 -44.5 -112h317zM462.001 626
c-43.333 -58.667 -101.666 -88 -174.999 -88c-72.667 0 -131.334 29.333 -176.001 88l37 32c34.667 -48 81 -72 139 -72c58.667 0 104.667 24 138 72z" />
    <glyph glyph-name="Edotaccent" unicode="&#x116;" horiz-adv-x="569" 
d="M515 0h-437v667h437v-74h-354v-215h347v-74h-347v-230h354v-74zM300 722c-12.667 0 -23.667 4.66699 -33 14s-14 20.333 -14 33s4.66699 23.667 14 33s20.333 14 33 14s23.5 -4.5 32.5 -13.5s13.5 -20.167 13.5 -33.5s-4.5 -24.5 -13.5 -33.5s-19.833 -13.5 -32.5 -13.5z
" />
    <glyph glyph-name="edotaccent" unicode="&#x117;" horiz-adv-x="563" 
d="M293 -12c-72 0 -130.999 23.5 -176.999 70.5s-69 108.167 -69 183.5c0 70.667 22.667 130.5 68 179.5s102 73.5 170 73.5c71.333 0 127.833 -24.5 169.5 -73.5s62.5 -110.833 62.5 -185.5v-19h-391c3.33301 -47.333 20.666 -87 51.999 -119s72 -48 122 -48
c60 0 109.667 20.333 149 61l36 -49c-49.333 -49.333 -113.333 -74 -192 -74zM443.001 272c-0.666992 41.333 -14.667 78.5 -42 111.5s-66.333 49.5 -117 49.5c-48 0 -85.833 -16.333 -113.5 -49s-42.5 -70 -44.5 -112h317zM286.001 555c-12.667 0 -23.667 4.66699 -33 14
s-14 20.333 -14 33s4.66699 23.667 14 33s20.333 14 33 14s23.5 -4.5 32.5 -13.5s13.5 -20.167 13.5 -33.5s-4.5 -24.5 -13.5 -33.5s-19.833 -13.5 -32.5 -13.5z" />
    <glyph glyph-name="Eogonek" unicode="&#x118;" horiz-adv-x="569" 
d="M515 0c-50.667 -25.333 -75.999 -57.668 -75.999 -97.001c0 -33.333 14.667 -50 44 -50c25.333 0 42.666 14 51.999 42l37 -21c-17.333 -40 -47 -60 -89 -60c-25.333 0 -46.5 7.33301 -63.5 22s-25.5 36.334 -25.5 65.001c0 38 17.667 71 53 99h-369v667h437v-74h-354
v-215h347v-74h-347v-230h354v-74z" />
    <glyph glyph-name="eogonek" unicode="&#x119;" horiz-adv-x="563" 
d="M293 -12c-72 0 -130.998 23.499 -176.998 70.499s-69 108.167 -69 183.5c0 70.667 22.667 130.5 68 179.5s102 73.5 170 73.5c71.333 0 127.833 -24.5 169.5 -73.5s62.5 -110.833 62.5 -185.5v-19h-391c3.33301 -47.333 20.666 -87 51.999 -119s72 -48 122 -48
c60 0 109.667 20.333 149 61l36 -49c-30.667 -30.667 -66 -51.334 -106 -62.001c-50 -25.333 -75 -57.666 -75 -96.999c0 -33.333 14.667 -50 44 -50c25.333 0 42.666 14 51.999 42l37 -21c-17.333 -40 -47 -60 -89 -60c-25.333 0 -46.5 7.33301 -63.5 22
s-25.5 36.334 -25.5 65.001c0 32 13 61 39 87h-5zM443.002 271.999c-0.666992 41.333 -14.667 78.5 -42 111.5s-66.333 49.5 -117 49.5c-48 0 -85.833 -16.333 -113.5 -49s-42.5 -70 -44.5 -112h317z" />
    <glyph glyph-name="Ecaron" unicode="&#x11a;" horiz-adv-x="569" 
d="M335 723h-72l-98 144h51l83 -106l80 106h51zM515 0h-437v667h437v-74h-354v-215h347v-74h-347v-230h354v-74z" />
    <glyph glyph-name="ecaron" unicode="&#x11b;" horiz-adv-x="563" 
d="M323 556h-72l-98 144h51l83 -106l80 106h51zM293 -12c-72 0 -130.999 23.5 -176.999 70.5s-69 108.167 -69 183.5c0 70.667 22.667 130.5 68 179.5s102 73.5 170 73.5c71.333 0 127.833 -24.5 169.5 -73.5s62.5 -110.833 62.5 -185.5v-19h-391
c3.33301 -47.333 20.666 -87 51.999 -119s72 -48 122 -48c60 0 109.667 20.333 149 61l36 -49c-49.333 -49.333 -113.333 -74 -192 -74zM443.001 272c-0.666992 41.333 -14.667 78.5 -42 111.5s-66.333 49.5 -117 49.5c-48 0 -85.833 -16.333 -113.5 -49
s-42.5 -70 -44.5 -112h317z" />
    <glyph glyph-name="Gcircumflex" unicode="&#x11c;" horiz-adv-x="713" 
d="M531 723h-51l-83 106l-80 -106h-51l95 144h72zM394 -13c-96.667 0 -178.001 32.168 -244.001 96.501s-99 147.5 -99 249.5s33 185 99 249s147.333 96 244 96c105.333 0 191.666 -41.667 258.999 -125l-66 -41c-21.333 28 -49.166 50.333 -83.499 67s-70.833 25 -109.5 25
c-73.333 0 -134.5 -25.5 -183.5 -76.5s-73.5 -115.833 -73.5 -194.5s24.5 -143.667 73.5 -195s110.167 -77 183.5 -77c36.667 0 70.834 7.16699 102.501 21.5s57.167 31.166 76.5 50.499v136h-229v74h312v-241c-68.667 -76.667 -156 -115 -262 -115z" />
    <glyph glyph-name="gcircumflex" unicode="&#x11d;" horiz-adv-x="574" 
d="M423 556h-51l-83 106l-80 -106h-51l95 144h72zM269 -196c-42.667 0 -78.999 5.16797 -108.999 15.501s-58.667 29.166 -86 56.499l38 56c36.667 -44 89 -66 157 -66c44.667 0 81.667 11.833 111 35.5s44 60.167 44 109.5v69c-18 -25.333 -41.333 -46 -70 -62
s-59.334 -24 -92.001 -24c-64 0 -115.833 22.5 -155.5 67.5s-59.5 105.833 -59.5 182.5s19.833 137.667 59.5 183s91.5 68 155.5 68c66 0 120 -28.333 162 -85v73h75v-469c0 -74 -21.667 -127.5 -65 -160.5s-98.333 -49.5 -165 -49.5zM280.001 60.001
c28.667 0 56.5 7.66699 83.5 23s47.167 34 60.5 56v211c-13.333 22 -33.333 40.5 -60 55.5s-54.667 22.5 -84 22.5c-48 0 -85.833 -17 -113.5 -51s-41.5 -78.333 -41.5 -133c0 -54 14 -98.167 42 -132.5s65.667 -51.5 113 -51.5z" />
    <glyph glyph-name="Gbreve" unicode="&#x11e;" horiz-adv-x="713" 
d="M394 -13c-96.667 0 -178.001 32.168 -244.001 96.501s-99 147.5 -99 249.5s33 185 99 249s147.333 96 244 96c105.333 0 191.666 -41.667 258.999 -125l-66 -41c-21.333 28 -49.166 50.333 -83.499 67s-70.833 25 -109.5 25c-73.333 0 -134.5 -25.5 -183.5 -76.5
s-73.5 -115.833 -73.5 -194.5s24.5 -143.667 73.5 -195s110.167 -77 183.5 -77c36.667 0 70.834 7.16699 102.501 21.5s57.167 31.166 76.5 50.499v136h-229v74h312v-241c-68.667 -76.667 -156 -115 -262 -115zM571.999 793.001c-43.333 -58.667 -101.666 -88 -174.999 -88
c-72.667 0 -131.334 29.333 -176.001 88l37 32c34.667 -48 81 -72 139 -72c58.667 0 104.667 24 138 72z" />
    <glyph glyph-name="gbreve" unicode="&#x11f;" horiz-adv-x="574" 
d="M269 -196c-42.667 0 -78.999 5.16797 -108.999 15.501s-58.667 29.166 -86 56.499l38 56c36.667 -44 89 -66 157 -66c44.667 0 81.667 11.833 111 35.5s44 60.167 44 109.5v69c-18 -25.333 -41.333 -46 -70 -62s-59.334 -24 -92.001 -24c-64 0 -115.833 22.5 -155.5 67.5
s-59.5 105.833 -59.5 182.5s19.833 137.667 59.5 183s91.5 68 155.5 68c66 0 120 -28.333 162 -85v73h75v-469c0 -74 -21.667 -127.5 -65 -160.5s-98.333 -49.5 -165 -49.5zM280.001 60.001c28.667 0 56.5 7.66699 83.5 23s47.167 34 60.5 56v211
c-13.333 22 -33.333 40.5 -60 55.5s-54.667 22.5 -84 22.5c-48 0 -85.833 -17 -113.5 -51s-41.5 -78.333 -41.5 -133c0 -54 14 -98.167 42 -132.5s65.667 -51.5 113 -51.5zM465.001 626.001c-43.333 -58.667 -101.666 -88 -174.999 -88
c-72.667 0 -131.334 29.333 -176.001 88l37 32c34.667 -48 81 -72 139 -72c58.667 0 104.667 24 138 72z" />
    <glyph glyph-name="Gdotaccent" unicode="&#x120;" horiz-adv-x="713" 
d="M394 -13c-96.667 0 -178.001 32.168 -244.001 96.501s-99 147.5 -99 249.5s33 185 99 249s147.333 96 244 96c105.333 0 191.666 -41.667 258.999 -125l-66 -41c-21.333 28 -49.166 50.333 -83.499 67s-70.833 25 -109.5 25c-73.333 0 -134.5 -25.5 -183.5 -76.5
s-73.5 -115.833 -73.5 -194.5s24.5 -143.667 73.5 -195s110.167 -77 183.5 -77c36.667 0 70.834 7.16699 102.501 21.5s57.167 31.166 76.5 50.499v136h-229v74h312v-241c-68.667 -76.667 -156 -115 -262 -115zM395.999 722.001c-12.667 0 -23.667 4.66699 -33 14
s-14 20.333 -14 33s4.66699 23.667 14 33s20.333 14 33 14s23.5 -4.5 32.5 -13.5s13.5 -20.167 13.5 -33.5s-4.5 -24.5 -13.5 -33.5s-19.833 -13.5 -32.5 -13.5z" />
    <glyph glyph-name="gdotaccent" unicode="&#x121;" horiz-adv-x="574" 
d="M269 -196c-42.667 0 -78.999 5.16797 -108.999 15.501s-58.667 29.166 -86 56.499l38 56c36.667 -44 89 -66 157 -66c44.667 0 81.667 11.833 111 35.5s44 60.167 44 109.5v69c-18 -25.333 -41.333 -46 -70 -62s-59.334 -24 -92.001 -24c-64 0 -115.833 22.5 -155.5 67.5
s-59.5 105.833 -59.5 182.5s19.833 137.667 59.5 183s91.5 68 155.5 68c66 0 120 -28.333 162 -85v73h75v-469c0 -74 -21.667 -127.5 -65 -160.5s-98.333 -49.5 -165 -49.5zM280.001 60.001c28.667 0 56.5 7.66699 83.5 23s47.167 34 60.5 56v211
c-13.333 22 -33.333 40.5 -60 55.5s-54.667 22.5 -84 22.5c-48 0 -85.833 -17 -113.5 -51s-41.5 -78.333 -41.5 -133c0 -54 14 -98.167 42 -132.5s65.667 -51.5 113 -51.5zM289.001 555.001c-12.667 0 -23.667 4.66699 -33 14s-14 20.333 -14 33s4.66699 23.667 14 33
s20.333 14 33 14s23.5 -4.5 32.5 -13.5s13.5 -20.167 13.5 -33.5s-4.5 -24.5 -13.5 -33.5s-19.833 -13.5 -32.5 -13.5z" />
    <glyph glyph-name="Gcommaaccent" unicode="&#x122;" horiz-adv-x="713" 
d="M448 -138c0 -26 -6.66699 -51 -20 -75s-30.333 -43.667 -51 -59l-33 26c15.333 10 28.5 23.167 39.5 39.5s17.167 31.833 18.5 46.5c-1.33301 -1.33301 -5 -2 -11 -2c-12 0 -22 4.16699 -30 12.5s-12 18.833 -12 31.5c0 13.333 4.5 24.5 13.5 33.5s19.833 13.5 32.5 13.5
c14.667 0 27.167 -6 37.5 -18s15.5 -28.333 15.5 -49zM394 -13c-96.667 0 -178.001 32.168 -244.001 96.501s-99 147.5 -99 249.5s33 185 99 249s147.333 96 244 96c105.333 0 191.666 -41.667 258.999 -125l-66 -41c-21.333 28 -49.166 50.333 -83.499 67
s-70.833 25 -109.5 25c-73.333 0 -134.5 -25.5 -183.5 -76.5s-73.5 -115.833 -73.5 -194.5s24.5 -143.667 73.5 -195s110.167 -77 183.5 -77c36.667 0 70.834 7.16699 102.501 21.5s57.167 31.166 76.5 50.499v136h-229v74h312v-241c-68.667 -76.667 -156 -115 -262 -115z
" />
    <glyph glyph-name="gcommaaccent" unicode="&#x123;" horiz-adv-x="574" 
d="M238 611c0 28.667 6.5 55.835 19.5 81.502s29.5 45.5 49.5 59.5l33 -27c-14.667 -10 -27.667 -22.833 -39 -38.5s-17.333 -30.834 -18 -45.501c1.33301 0.666992 3 1 5 1c11.333 0 21.833 -4.5 31.5 -13.5s14.5 -19.5 14.5 -31.5s-4.66699 -22.667 -14 -32
s-20.666 -14 -33.999 -14c-12.667 0 -23.834 5.16699 -33.501 15.5s-14.5 25.166 -14.5 44.499zM269 -195.999c-42.667 0 -78.999 5.16797 -108.999 15.501s-58.667 29.166 -86 56.499l38 56c36.667 -44 89 -66 157 -66c44.667 0 81.667 11.833 111 35.5s44 60.167 44 109.5
v69c-18 -25.333 -41.333 -46 -70 -62s-59.334 -24 -92.001 -24c-64 0 -115.833 22.5 -155.5 67.5s-59.5 105.833 -59.5 182.5s19.833 137.667 59.5 183s91.5 68 155.5 68c66 0 120 -28.333 162 -85v73h75v-469c0 -74 -21.667 -127.5 -65 -160.5s-98.333 -49.5 -165 -49.5z
M280.001 60.002c28.667 0 56.5 7.66699 83.5 23s47.167 34 60.5 56v211c-13.333 22 -33.333 40.5 -60 55.5s-54.667 22.5 -84 22.5c-48 0 -85.833 -17 -113.5 -51s-41.5 -78.333 -41.5 -133c0 -54 14 -98.167 42 -132.5s65.667 -51.5 113 -51.5z" />
    <glyph glyph-name="Hcircumflex" unicode="&#x124;" horiz-adv-x="712" 
d="M486 723h-51l-83 106l-80 -106h-51l95 144h72zM634 0h-83v306h-390v-306h-83v667h83v-287h390v287h83v-667z" />
    <glyph glyph-name="hcircumflex" unicode="&#x125;" horiz-adv-x="552" 
d="M410 723h-51l-83 106l-80 -106h-51l95 144h72zM477 0l-75.002 0.000976562v318c0 40 -9.33301 68.333 -28 85s-45.667 25 -81 25c-27.333 0 -54.166 -7.33301 -80.499 -22s-47.166 -32.334 -62.499 -53.001v-353h-75v667h75v-254c18.667 22 43.667 41.167 75 57.5
s64 24.5 98 24.5c102.667 0 154 -51.333 154 -154v-341z" />
    <glyph glyph-name="Hbar" unicode="&#x126;" horiz-adv-x="731" 
d="M644 0h-83v306h-390v-306h-83v498h-78v48h78v121h83v-121h390v121h83v-121h77v-48h-77v-498zM171 380h390v118h-390v-118z" />
    <glyph glyph-name="hbar" unicode="&#x127;" horiz-adv-x="554" 
d="M308 535l-156.002 0.000976562v-122c18.667 22 43.667 41.167 75 57.5s64 24.5 98 24.5c102.667 0 154 -51.333 154 -154v-341h-75v318c0 40 -9.33301 68.333 -28 85s-45.667 25 -81 25c-27.333 0 -54.166 -7.33301 -80.499 -22s-47.166 -32.334 -62.499 -53.001v-353
h-75v535h-68v48h68v84h75v-84h156v-48z" />
    <glyph glyph-name="Itilde" unicode="&#x128;" horiz-adv-x="239" 
d="M161 0h-83v667h83v-667zM179 721c-16.667 0 -31.166 4.83301 -43.499 14.5s-21.5 20.167 -27.5 31.5s-13.5 21.833 -22.5 31.5s-18.833 14.5 -29.5 14.5c-14 0 -25.5 -7.16699 -34.5 -21.5s-13.5 -35.833 -13.5 -64.5h-45c0 40 8.5 72.333 25.5 97s40.833 37 71.5 37
c16 0 30.167 -4.83301 42.5 -14.5s21.666 -20.167 27.999 -31.5s14 -21.833 23 -31.5s18.833 -14.5 29.5 -14.5c14 0 25.5 7.16699 34.5 21.5s13.5 35.833 13.5 64.5h45c0 -40 -8.5 -72.333 -25.5 -97s-40.833 -37 -71.5 -37z" />
    <glyph glyph-name="itilde" unicode="&#x129;" horiz-adv-x="225" 
d="M150 0h-75v483h75v-483zM172 554c-16.667 0 -31.166 4.83301 -43.499 14.5s-21.5 20.167 -27.5 31.5s-13.5 21.833 -22.5 31.5s-18.833 14.5 -29.5 14.5c-14 0 -25.5 -7.16699 -34.5 -21.5s-13.5 -35.833 -13.5 -64.5h-45c0 40 8.5 72.333 25.5 97s40.833 37 71.5 37
c16 0 30.167 -4.83301 42.5 -14.5s21.666 -20.167 27.999 -31.5s14 -21.833 23 -31.5s18.833 -14.5 29.5 -14.5c14 0 25.5 7.16699 34.5 21.5s13.5 35.833 13.5 64.5h45c0 -40 -8.5 -72.333 -25.5 -97s-40.833 -37 -71.5 -37z" />
    <glyph glyph-name="Imacron" unicode="&#x12a;" horiz-adv-x="239" 
d="M161 0h-83v667h83v-667zM302 739h-363v48h363v-48z" />
    <glyph glyph-name="imacron" unicode="&#x12b;" horiz-adv-x="225" 
d="M150 0h-75v483h75v-483zM294 572h-363v48h363v-48z" />
    <glyph glyph-name="Ibreve" unicode="&#x12c;" horiz-adv-x="239" 
d="M161 0h-83v667h83v-667zM296 793c-43.333 -58.667 -101.666 -88 -174.999 -88c-72.667 0 -131.334 29.333 -176.001 88l37 32c34.667 -48 81 -72 139 -72c58.667 0 104.667 24 138 72z" />
    <glyph glyph-name="ibreve" unicode="&#x12d;" horiz-adv-x="225" 
d="M150 0h-75v483h75v-483zM288 626c-43.333 -58.667 -101.666 -88 -174.999 -88c-72.667 0 -131.334 29.333 -176.001 88l37 32c34.667 -48 81 -72 139 -72c58.667 0 104.667 24 138 72z" />
    <glyph glyph-name="Iogonek" unicode="&#x12e;" horiz-adv-x="239" 
d="M181 -105l37.001 -21.002c-17.333 -40 -47 -60 -89 -60c-25.333 0 -46.5 7.33301 -63.5 22s-25.5 36.334 -25.5 65.001c0 38 17.667 71 53 99h-15v667h83v-667c-50.667 -25.333 -76 -57.666 -76 -96.999c0 -33.333 14.667 -50 44 -50c25.333 0 42.666 14 51.999 42z" />
    <glyph glyph-name="iogonek" unicode="&#x12f;" horiz-adv-x="225" 
d="M170 -105l37.001 -21.002c-17.333 -40 -47 -60 -89 -60c-25.333 0 -46.5 7.33301 -63.5 22s-25.5 36.334 -25.5 65.001c0 38 17.667 71 53 99h-7v483h75v-483c-50.667 -25.333 -76 -57.666 -76 -96.999c0 -33.333 14.667 -50 44 -50c25.333 0 42.666 14 51.999 42z
M112.001 551.998c-13.333 0 -25 4.83301 -35 14.5s-15 21.5 -15 35.5s5 26 15 36s21.667 15 35 15c14 0 26 -5 36 -15s15 -22 15 -36s-5 -25.833 -15 -35.5s-22 -14.5 -36 -14.5z" />
    <glyph glyph-name="Idotaccent" unicode="&#x130;" horiz-adv-x="239" 
d="M161 0h-83v667h83v-667zM120 722c-12.667 0 -23.667 4.66699 -33 14s-14 20.333 -14 33s4.66699 23.667 14 33s20.333 14 33 14s23.5 -4.5 32.5 -13.5s13.5 -20.167 13.5 -33.5s-4.5 -24.5 -13.5 -33.5s-19.833 -13.5 -32.5 -13.5z" />
    <glyph glyph-name="dotlessi" unicode="&#x131;" horiz-adv-x="225" 
d="M150 0h-75v483h75v-483z" />
    <glyph glyph-name="IJ" unicode="&#x132;" horiz-adv-x="713" 
d="M161 0h-83v667h83v-667zM424 -12c-72 0 -130 25.666 -174 76.999l43 63c36.667 -44 78.667 -66 126 -66c40.667 0 73.167 12.833 97.5 38.5s36.5 59.5 36.5 101.5v465h83v-466c0 -69.333 -19.667 -122.166 -59 -158.499s-90.333 -54.5 -153 -54.5z" />
    <glyph glyph-name="ij" unicode="&#x133;" horiz-adv-x="451" 
d="M112 552c-13.333 0 -25 4.83301 -35 14.5s-15 21.5 -15 35.5s5 26 15 36s21.667 15 35 15c14 0 26 -5 36 -15s15 -22 15 -36s-5 -25.833 -15 -35.5s-22 -14.5 -36 -14.5zM150 0h-75v483h75v-483zM337 552c-13.333 0 -25 4.83301 -35 14.5s-15 21.5 -15 35.5s5 26 15 36
s21.667 15 35 15c14 0 26 -5 36 -15s15 -22 15 -36s-5 -25.833 -15 -35.5s-22 -14.5 -36 -14.5zM232 -196c-40 0 -75.333 12.001 -106 36.001l27 57c20.667 -20.667 43.667 -31 69 -31c24 0 43 7.16699 57 21.5s21 36.166 21 65.499v530h75v-530
c0 -47.333 -12.333 -84 -37 -110s-60 -39 -106 -39z" />
    <glyph glyph-name="Jcircumflex" unicode="&#x134;" horiz-adv-x="475" 
d="M488 723h-51l-83 106l-80 -106h-51l95 144h72zM185 -12c-72 0 -130 25.666 -174 76.999l43 63c36.667 -44 78.667 -66 126 -66c40.667 0 73.167 12.833 97.5 38.5s36.5 59.5 36.5 101.5v465h83v-466c0 -69.333 -19.667 -122.166 -59 -158.499s-90.333 -54.5 -153 -54.5z
" />
    <glyph glyph-name="jcircumflex" unicode="&#x135;" horiz-adv-x="225" 
d="M247 556h-51l-83 106l-80 -106h-51l95 144h72zM7 -196c-39.333 0 -74.667 12.001 -106 36.001l27 57c20.667 -20.667 43.667 -31 69 -31c24 0 43 7.16699 57 21.5s21 36.166 21 65.499v530h75v-530c0 -47.333 -12.333 -84 -37 -110s-60 -39 -106 -39z" />
    <glyph glyph-name="Kcommaaccent" unicode="&#x136;" horiz-adv-x="606" 
d="M360 -138c0 -26 -6.66699 -51 -20 -75s-30.333 -43.667 -51 -59l-33 26c15.333 10 28.5 23.167 39.5 39.5s17.167 31.833 18.5 46.5c-1.33301 -1.33301 -5 -2 -11 -2c-12 0 -22 4.16699 -30 12.5s-12 18.833 -12 31.5c0 13.333 4.5 24.5 13.5 33.5s19.833 13.5 32.5 13.5
c14.667 0 27.167 -6 37.5 -18s15.5 -28.333 15.5 -49zM584 0h-103l-253 300l-67 -76v-224h-83v667h83v-345l295 345h104l-278 -317z" />
    <glyph glyph-name="kcommaaccent" unicode="&#x137;" horiz-adv-x="514" 
d="M314 -138c0 -26 -6.66699 -51 -20 -75s-30.333 -43.667 -51 -59l-33 26c15.333 10 28.5 23.167 39.5 39.5s17.167 31.833 18.5 46.5c-1.33301 -1.33301 -5 -2 -11 -2c-12 0 -22 4.16699 -30 12.5s-12 18.833 -12 31.5c0 13.333 4.5 24.5 13.5 33.5s19.833 13.5 32.5 13.5
c14.667 0 27.167 -6 37.5 -18s15.5 -28.333 15.5 -49zM500 0h-96l-174 217l-80 -79v-138h-75v667h75v-441l254 257h95l-214 -219z" />
    <glyph glyph-name="kgreenlandic" unicode="&#x138;" horiz-adv-x="514" 
d="M500 0h-96l-174 217l-80 -79v-138h-75v483h75v-257l254 257h95l-214 -219z" />
    <glyph glyph-name="Lacute" unicode="&#x139;" horiz-adv-x="510" 
d="M443 867l-169 -144h-57l148 144h78zM471 0h-393v667h83v-593h310v-74z" />
    <glyph glyph-name="lacute" unicode="&#x13a;" horiz-adv-x="225" 
d="M282 867l-169 -144h-57l148 144h78zM150 0h-75v667h75v-667z" />
    <glyph glyph-name="Lcommaaccent" unicode="&#x13b;" horiz-adv-x="510" 
d="M319 -138c0 -26 -6.66699 -51 -20 -75s-30.333 -43.667 -51 -59l-33 26c15.333 10 28.5 23.167 39.5 39.5s17.167 31.833 18.5 46.5c-1.33301 -1.33301 -5 -2 -11 -2c-12 0 -22 4.16699 -30 12.5s-12 18.833 -12 31.5c0 13.333 4.5 24.5 13.5 33.5s19.833 13.5 32.5 13.5
c14.667 0 27.167 -6 37.5 -18s15.5 -28.333 15.5 -49zM471 0h-393v667h83v-593h310v-74z" />
    <glyph glyph-name="lcommaaccent" unicode="&#x13c;" horiz-adv-x="225" 
d="M170 -138c0 -26 -6.66699 -51 -20 -75s-30.333 -43.667 -51 -59l-33 26c15.333 10 28.5 23.167 39.5 39.5s17.167 31.833 18.5 46.5c-1.33301 -1.33301 -5 -2 -11 -2c-12 0 -22 4.16699 -30 12.5s-12 18.833 -12 31.5c0 13.333 4.5 24.5 13.5 33.5s19.833 13.5 32.5 13.5
c14.667 0 27.167 -6 37.5 -18s15.5 -28.333 15.5 -49zM150 0h-75v667h75v-667z" />
    <glyph glyph-name="Lcaron" unicode="&#x13d;" horiz-adv-x="510" 
d="M354 613c0 -26 -6.66699 -51 -20 -75s-30.333 -43.667 -51 -59l-33 26c15.333 10 28.5 23.167 39.5 39.5s17.167 31.833 18.5 46.5c-1.33301 -1.33301 -5 -2 -11 -2c-12 0 -22 4.16699 -30 12.5s-12 18.833 -12 31.5c0 13.333 4.5 24.5 13.5 33.5s19.833 13.5 32.5 13.5
c14.667 0 27.167 -6 37.5 -18s15.5 -28.333 15.5 -49zM471 0h-393v667h83v-593h310v-74z" />
    <glyph glyph-name="lcaron" unicode="&#x13e;" horiz-adv-x="291" 
d="M311 613c0 -26 -6.66699 -51 -20 -75s-30.333 -43.667 -51 -59l-33 26c15.333 10 28.5 23.167 39.5 39.5s17.167 31.833 18.5 46.5c-1.33301 -1.33301 -5 -2 -11 -2c-12 0 -22 4.16699 -30 12.5s-12 18.833 -12 31.5c0 13.333 4.5 24.5 13.5 33.5s19.833 13.5 32.5 13.5
c14.667 0 27.167 -6 37.5 -18s15.5 -28.333 15.5 -49zM150 0h-75v667h75v-667z" />
    <glyph glyph-name="Ldot" unicode="&#x13f;" horiz-adv-x="510" 
d="M471 0h-393v667h83v-593h310v-74zM424 341c0 -14.667 -5.5 -27.334 -16.5 -38.001s-23.833 -16 -38.5 -16s-27.5 5.33301 -38.5 16s-16.5 23.334 -16.5 38.001c0 15.333 5.33301 28.333 16 39s23.667 16 39 16s28.333 -5.33301 39 -16s16 -23.667 16 -39z" />
    <glyph glyph-name="ldot" unicode="&#x140;" horiz-adv-x="307" 
d="M150 0h-75v667h75v-667zM321 244c0 -14.667 -5.5 -27.334 -16.5 -38.001s-23.833 -16 -38.5 -16s-27.5 5.33301 -38.5 16s-16.5 23.334 -16.5 38.001s5.5 27.5 16.5 38.5s23.833 16.5 38.5 16.5s27.5 -5.5 38.5 -16.5s16.5 -23.833 16.5 -38.5z" />
    <glyph glyph-name="Lslash" unicode="&#x141;" horiz-adv-x="529" 
d="M10 221v72l87 50v324h83v-276l97 56v-72l-97 -56v-245h310v-74h-393v271z" />
    <glyph glyph-name="lslash" unicode="&#x142;" horiz-adv-x="287" 
d="M10 228v60l96 55v324h75v-281l95 54v-60l-95 -54v-326h-75v283z" />
    <glyph glyph-name="Nacute" unicode="&#x143;" horiz-adv-x="708" 
d="M531 867l-169 -144h-57l148 144h78zM630 0h-80l-389 532v-532h-83v667h85l384 -521v521h83v-667z" />
    <glyph glyph-name="nacute" unicode="&#x144;" horiz-adv-x="551" 
d="M444 700l-169 -144h-57l148 144h78zM476 0l-74.998 0.000976562v316c0 40.667 -9.33301 69.5 -28 86.5s-45.334 25.5 -80.001 25.5c-28 0 -55.167 -7.33301 -81.5 -22s-46.833 -32.334 -61.5 -53.001v-353h-75v483h75v-70c18.667 22 43.667 41.167 75 57.5
s63.666 24.5 96.999 24.5c102.667 0 154 -52 154 -156v-339z" />
    <glyph glyph-name="Ncommaaccent" unicode="&#x145;" horiz-adv-x="708" 
d="M411 -138c0 -26 -6.66699 -51 -20 -75s-30.333 -43.667 -51 -59l-33 26c15.333 10 28.5 23.167 39.5 39.5s17.167 31.833 18.5 46.5c-1.33301 -1.33301 -5 -2 -11 -2c-12 0 -22 4.16699 -30 12.5s-12 18.833 -12 31.5c0 13.333 4.5 24.5 13.5 33.5s19.833 13.5 32.5 13.5
c14.667 0 27.167 -6 37.5 -18s15.5 -28.333 15.5 -49zM630 0h-80l-389 532v-532h-83v667h85l384 -521v521h83v-667z" />
    <glyph glyph-name="ncommaaccent" unicode="&#x146;" horiz-adv-x="551" 
d="M330 -138c0 -26 -6.66699 -51 -20 -75s-30.333 -43.667 -51 -59l-33 26c15.333 10 28.5 23.167 39.5 39.5s17.167 31.833 18.5 46.5c-1.33301 -1.33301 -5 -2 -11 -2c-12 0 -22 4.16699 -30 12.5s-12 18.833 -12 31.5c0 13.333 4.5 24.5 13.5 33.5s19.833 13.5 32.5 13.5
c14.667 0 27.167 -6 37.5 -18s15.5 -28.333 15.5 -49zM476 0l-74.998 0.000976562v316c0 40.667 -9.33301 69.5 -28 86.5s-45.334 25.5 -80.001 25.5c-28 0 -55.167 -7.33301 -81.5 -22s-46.833 -32.334 -61.5 -53.001v-353h-75v483h75v-70c18.667 22 43.667 41.167 75 57.5
s63.666 24.5 96.999 24.5c102.667 0 154 -52 154 -156v-339z" />
    <glyph glyph-name="Ncaron" unicode="&#x147;" horiz-adv-x="708" 
d="M390 723h-72l-98 144h51l83 -106l80 106h51zM630 0h-80l-389 532v-532h-83v667h85l384 -521v521h83v-667z" />
    <glyph glyph-name="ncaron" unicode="&#x148;" horiz-adv-x="551" 
d="M314 556h-72l-98 144h51l83 -106l80 106h51zM476 0l-74.998 0.000976562v316c0 40.667 -9.33301 69.5 -28 86.5s-45.334 25.5 -80.001 25.5c-28 0 -55.167 -7.33301 -81.5 -22s-46.833 -32.334 -61.5 -53.001v-353h-75v483h75v-70c18.667 22 43.667 41.167 75 57.5
s63.666 24.5 96.999 24.5c102.667 0 154 -52 154 -156v-339z" />
    <glyph glyph-name="napostrophe" unicode="&#x149;" horiz-adv-x="551" 
d="M161 676c0 -26 -6.66699 -51 -20 -75s-30.333 -43.667 -51 -59l-33 26c15.333 10 28.5 23.167 39.5 39.5s17.167 31.833 18.5 46.5c-1.33301 -1.33301 -5 -2 -11 -2c-12 0 -22 4.16699 -30 12.5s-12 18.833 -12 31.5c0 13.333 4.5 24.5 13.5 33.5s19.833 13.5 32.5 13.5
c14.667 0 27.167 -6 37.5 -18s15.5 -28.333 15.5 -49zM476 0l-74.998 0.000976562v316c0 40.667 -9.33301 69.5 -28 86.5s-45.334 25.5 -80.001 25.5c-28 0 -55.167 -7.33301 -81.5 -22s-46.833 -32.334 -61.5 -53.001v-353h-75v483h75v-70c18.667 22 43.667 41.167 75 57.5
s63.666 24.5 96.999 24.5c102.667 0 154 -52 154 -156v-339z" />
    <glyph glyph-name="Eng" unicode="&#x14a;" horiz-adv-x="708" 
d="M418 -196c-72 0 -130 25.667 -174 77l44 63c35.333 -44 77 -66 125 -66c38.667 0 70 11.5 94 34.5s37 53.5 39 91.5l-385 528v-532h-83v667h85l384 -521v521h83v-652c0 -69.333 -19.667 -121.833 -59 -157.5s-90.333 -53.5 -153 -53.5z" />
    <glyph glyph-name="eng" unicode="&#x14b;" horiz-adv-x="551" 
d="M476 339l0.00195312 -385.999c0 -48 -12.333 -84.833 -37 -110.5s-60 -38.5 -106 -38.5c-39.333 0 -74.333 12 -105 36l26 61c20 -20 43 -30 69 -30c24 0 43 6.83301 57 20.5s21 34.167 21 61.5v363c0 40.667 -9.33301 69.5 -28 86.5s-45.334 25.5 -80.001 25.5
c-28 0 -55.167 -7.33301 -81.5 -22s-46.833 -32.334 -61.5 -53.001v-353h-75v483h75v-70c18.667 22 43.667 41.167 75 57.5s63.666 24.5 96.999 24.5c102.667 0 154 -52 154 -156z" />
    <glyph glyph-name="Omacron" unicode="&#x14c;" horiz-adv-x="765" 
d="M563 739h-363v48h363v-48zM382 -12c-98 0 -177.667 32.667 -239 98s-92 147.666 -92 246.999s30.667 181.666 92 246.999s141 98 239 98c97.333 0 176.833 -32.667 238.5 -98s92.5 -147.666 92.5 -246.999s-30.833 -181.666 -92.5 -246.999s-141.167 -98 -238.5 -98z
M382 62c73.333 0 132.5 25.5 177.5 76.5s67.5 115.833 67.5 194.5c0 79.333 -22.5 144.333 -67.5 195s-104.167 76 -177.5 76c-74 0 -133.333 -25.333 -178 -76s-67 -115.667 -67 -195c0 -78.667 22.333 -143.5 67 -194.5s104 -76.5 178 -76.5z" />
    <glyph glyph-name="omacron" unicode="&#x14d;" 
d="M467 572h-363v48h363v-48zM286 -12c-72 0 -129.833 24.333 -173.5 73s-65.5 109 -65.5 181s21.833 132.167 65.5 180.5s101.5 72.5 173.5 72.5s129.833 -24.167 173.5 -72.5s65.5 -108.5 65.5 -180.5s-21.833 -132.333 -65.5 -181s-101.5 -73 -173.5 -73zM286 55
c49.333 0 88.333 18.166 117 54.499s43 80.5 43 132.5s-14.333 96 -43 132s-67.667 54 -117 54s-88.5 -18.167 -117.5 -54.5s-43.5 -80.166 -43.5 -131.499c0 -52 14.5 -96.167 43.5 -132.5s68.167 -54.5 117.5 -54.5z" />
    <glyph glyph-name="Obreve" unicode="&#x14e;" horiz-adv-x="765" 
d="M382 -12c-98 0 -177.667 32.667 -239 98s-92 147.666 -92 246.999s30.667 181.666 92 246.999s141 98 239 98c97.333 0 176.833 -32.667 238.5 -98s92.5 -147.666 92.5 -246.999s-30.833 -181.666 -92.5 -246.999s-141.167 -98 -238.5 -98zM382 62
c73.333 0 132.5 25.5 177.5 76.5s67.5 115.833 67.5 194.5c0 79.333 -22.5 144.333 -67.5 195s-104.167 76 -177.5 76c-74 0 -133.333 -25.333 -178 -76s-67 -115.667 -67 -195c0 -78.667 22.333 -143.5 67 -194.5s104 -76.5 178 -76.5zM557 793
c-43.333 -58.667 -101.666 -88 -174.999 -88c-72.667 0 -131.334 29.333 -176.001 88l37 32c34.667 -48 81 -72 139 -72c58.667 0 104.667 24 138 72z" />
    <glyph glyph-name="obreve" unicode="&#x14f;" 
d="M286 -12c-72 0 -129.833 24.333 -173.5 73s-65.5 109 -65.5 181s21.833 132.167 65.5 180.5s101.5 72.5 173.5 72.5s129.833 -24.167 173.5 -72.5s65.5 -108.5 65.5 -180.5s-21.833 -132.333 -65.5 -181s-101.5 -73 -173.5 -73zM286 55
c49.333 0 88.333 18.166 117 54.499s43 80.5 43 132.5s-14.333 96 -43 132s-67.667 54 -117 54s-88.5 -18.167 -117.5 -54.5s-43.5 -80.166 -43.5 -131.499c0 -52 14.5 -96.167 43.5 -132.5s68.167 -54.5 117.5 -54.5zM462 625.999
c-43.333 -58.667 -101.666 -88 -174.999 -88c-72.667 0 -131.334 29.333 -176.001 88l37 32c34.667 -48 81 -72 139 -72c58.667 0 104.667 24 138 72z" />
    <glyph glyph-name="Ohungarumlaut" unicode="&#x150;" horiz-adv-x="765" 
d="M435 867l-115 -144h-48l94 144h69zM577 867l-115 -144h-48l94 144h69zM382 -12c-98 0 -177.667 32.667 -239 98s-92 147.666 -92 246.999s30.667 181.666 92 246.999s141 98 239 98c97.333 0 176.833 -32.667 238.5 -98s92.5 -147.666 92.5 -246.999
s-30.833 -181.666 -92.5 -246.999s-141.167 -98 -238.5 -98zM382 62c73.333 0 132.5 25.5 177.5 76.5s67.5 115.833 67.5 194.5c0 79.333 -22.5 144.333 -67.5 195s-104.167 76 -177.5 76c-74 0 -133.333 -25.333 -178 -76s-67 -115.667 -67 -195
c0 -78.667 22.333 -143.5 67 -194.5s104 -76.5 178 -76.5z" />
    <glyph glyph-name="ohungarumlaut" unicode="&#x151;" 
d="M339 700l-115 -144h-48l94 144h69zM481 700l-115 -144h-48l94 144h69zM286 -12c-72 0 -129.833 24.333 -173.5 73s-65.5 109 -65.5 181s21.833 132.167 65.5 180.5s101.5 72.5 173.5 72.5s129.833 -24.167 173.5 -72.5s65.5 -108.5 65.5 -180.5
s-21.833 -132.333 -65.5 -181s-101.5 -73 -173.5 -73zM286 55c49.333 0 88.333 18.166 117 54.499s43 80.5 43 132.5s-14.333 96 -43 132s-67.667 54 -117 54s-88.5 -18.167 -117.5 -54.5s-43.5 -80.166 -43.5 -131.499c0 -52 14.5 -96.167 43.5 -132.5
s68.167 -54.5 117.5 -54.5z" />
    <glyph glyph-name="OE" unicode="&#x152;" horiz-adv-x="1105" 
d="M1051 0l-438 0.000976562v120c-24 -42 -57.5 -74.5 -100.5 -97.5s-88.833 -34.5 -137.5 -34.5c-96 0 -174 32.667 -234 98s-90 147.666 -90 246.999s30 181.5 90 246.5s138 97.5 234 97.5c48.667 0 94.5 -11.333 137.5 -34s76.5 -55 100.5 -97v121h438v-74h-355v-215h348
v-74h-348v-230h355v-74zM613 223.001v219.999c-19.333 52 -49.166 91.667 -89.499 119s-86.833 41 -139.5 41c-74.667 0 -134.5 -25.167 -179.5 -75.5s-67.5 -115.166 -67.5 -194.499s22.5 -144.333 67.5 -195s104.833 -76 179.5 -76c52.667 0 99.167 13.833 139.5 41.5
s70.166 67.5 89.499 119.5z" />
    <glyph glyph-name="oe" unicode="&#x153;" horiz-adv-x="962" 
d="M916 217l-390.004 -0.00195312c3.33301 -47.333 20.5 -87 51.5 -119s71.5 -48 121.5 -48c59.333 0 109.333 20.333 150 61l36 -49c-50.667 -49.333 -114.667 -74 -192 -74c-55.333 0 -99.666 13.833 -132.999 41.5s-58.333 59.834 -75 96.501
c-41.333 -92 -107.666 -138 -198.999 -138c-72 0 -129.833 24.333 -173.5 73s-65.5 109 -65.5 181s21.833 132.167 65.5 180.5s101.5 72.5 173.5 72.5c28 0 54 -4.66699 78 -14s43.833 -21.5 59.5 -36.5s28.334 -29.5 38.001 -43.5s17.834 -28.667 24.501 -44
c14.667 34.667 38.5 66.334 71.5 95.001s75.167 43 126.5 43c71.333 0 127.833 -24.5 169.5 -73.5s62.5 -110.833 62.5 -185.5v-19zM524.996 271.998h317.999c-1.33301 41.333 -15.666 78.5 -42.999 111.5s-66.333 49.5 -117 49.5c-48 0 -85.833 -16.333 -113.5 -49
s-42.5 -70 -44.5 -112zM445.995 241.998c0 52.667 -14.5 96.834 -43.5 132.501s-67.833 53.5 -116.5 53.5s-87.667 -17.833 -117 -53.5s-44 -79.834 -44 -132.501s14.667 -97.167 44 -133.5s68.333 -54.5 117 -54.5s87.5 18 116.5 54s43.5 80.667 43.5 134z" />
    <glyph glyph-name="Racute" unicode="&#x154;" horiz-adv-x="608" 
d="M480 867l-169 -144h-57l148 144h78zM562 0l-98 0.000976562l-170 265h-133v-265h-83v667h268c62 0 112.333 -18.333 151 -55s58 -85.334 58 -146.001c0 -57.333 -16.667 -103 -50 -137s-74.333 -53 -123 -57zM336 338.001c39.333 0 71.333 12 96 36s37 54.667 37 92
s-12.333 67.833 -37 91.5s-56.667 35.5 -96 35.5h-175v-255h175z" />
    <glyph glyph-name="racute" unicode="&#x155;" horiz-adv-x="330" 
d="M362 700l-169 -144h-57l148 144h78zM150 0h-75v483h75v-78c44.667 58.667 98.334 88 161.001 88v-77c-8.66699 2 -18.667 3 -30 3c-22.667 0 -47.334 -8 -74.001 -24s-45.667 -33.667 -57 -53v-342z" />
    <glyph glyph-name="Rcommaaccent" unicode="&#x156;" horiz-adv-x="608" 
d="M362 -138c0 -26 -6.66699 -51 -20 -75s-30.333 -43.667 -51 -59l-33 26c15.333 10 28.5 23.167 39.5 39.5s17.167 31.833 18.5 46.5c-1.33301 -1.33301 -5 -2 -11 -2c-12 0 -22 4.16699 -30 12.5s-12 18.833 -12 31.5c0 13.333 4.5 24.5 13.5 33.5s19.833 13.5 32.5 13.5
c14.667 0 27.167 -6 37.5 -18s15.5 -28.333 15.5 -49zM562 0l-98 0.000976562l-170 265h-133v-265h-83v667h268c62 0 112.333 -18.333 151 -55s58 -85.334 58 -146.001c0 -57.333 -16.667 -103 -50 -137s-74.333 -53 -123 -57zM336 338.001c39.333 0 71.333 12 96 36
s37 54.667 37 92s-12.333 67.833 -37 91.5s-56.667 35.5 -96 35.5h-175v-255h175z" />
    <glyph glyph-name="rcommaaccent" unicode="&#x157;" horiz-adv-x="330" 
d="M221 -138c0 -26 -6.66699 -51 -20 -75s-30.333 -43.667 -51 -59l-33 26c15.333 10 28.5 23.167 39.5 39.5s17.167 31.833 18.5 46.5c-1.33301 -1.33301 -5 -2 -11 -2c-12 0 -22 4.16699 -30 12.5s-12 18.833 -12 31.5c0 13.333 4.5 24.5 13.5 33.5s19.833 13.5 32.5 13.5
c14.667 0 27.167 -6 37.5 -18s15.5 -28.333 15.5 -49zM150 0h-75v483h75v-78c44.667 58.667 98.334 88 161.001 88v-77c-8.66699 2 -18.667 3 -30 3c-22.667 0 -47.334 -8 -74.001 -24s-45.667 -33.667 -57 -53v-342z" />
    <glyph glyph-name="Rcaron" unicode="&#x158;" horiz-adv-x="608" 
d="M343 723h-72l-98 144h51l83 -106l80 106h51zM562 0l-98 0.000976562l-170 265h-133v-265h-83v667h268c62 0 112.333 -18.333 151 -55s58 -85.334 58 -146.001c0 -57.333 -16.667 -103 -50 -137s-74.333 -53 -123 -57zM336 338.001c39.333 0 71.333 12 96 36
s37 54.667 37 92s-12.333 67.833 -37 91.5s-56.667 35.5 -96 35.5h-175v-255h175z" />
    <glyph glyph-name="rcaron" unicode="&#x159;" horiz-adv-x="330" 
d="M229 556h-72l-98 144h51l83 -106l80 106h51zM150 0h-75v483h75v-78c44.667 58.667 98.334 88 161.001 88v-77c-8.66699 2 -18.667 3 -30 3c-22.667 0 -47.334 -8 -74.001 -24s-45.667 -33.667 -57 -53v-342z" />
    <glyph glyph-name="Sacute" unicode="&#x15a;" horiz-adv-x="586" 
d="M460 867l-169 -144h-57l148 144h78zM294 -12c-108 0 -193.334 35.3301 -256.001 105.997l49 63c56.667 -63.333 126.667 -95 210 -95c54 0 93.667 11.5 119 34.5s38 49.833 38 80.5c0 23.333 -7.33301 43 -22 59s-33.5 28.5 -56.5 37.5s-48.5 17.167 -76.5 24.5
s-56.167 15.5 -84.5 24.5s-54 19.833 -77 32.5s-41.833 30.667 -56.5 54s-22 51 -22 83c0 54.667 21.667 99.167 65 133.5s98 51.5 164 51.5c99.333 0 178.333 -31 237 -93l-50 -61c-48.667 53.333 -113 80 -193 80c-40 0 -72.833 -9.83301 -98.5 -29.5
s-38.5 -45.167 -38.5 -76.5c0 -23.333 9.83301 -42.666 29.5 -57.999s44 -26.666 73 -33.999s60.667 -16.5 95 -27.5s66 -22.667 95 -35s53.333 -32.166 73 -59.499s29.5 -60.333 29.5 -99c0 -54.667 -20.167 -101 -60.5 -139s-102.166 -57 -185.499 -57z" />
    <glyph glyph-name="sacute" unicode="&#x15b;" horiz-adv-x="465" 
d="M397 700l-169 -144h-57l148 144h78zM228 -12c-82 0 -147 25.3389 -195 76.0059l39 54c16.667 -19.333 39.5 -35.666 68.5 -48.999s59.167 -20 90.5 -20c36 0 64 7.66699 84 23s30 35.333 30 60c0 21.333 -10.333 38.166 -31 50.499s-45.5 21.666 -74.5 27.999
s-58.167 13.666 -87.5 21.999s-54.333 22.666 -75 42.999s-31 47.166 -31 80.499c0 39.333 16.167 72.333 48.5 99s76.166 40 131.499 40c72.667 0 132.334 -23.333 179.001 -70l-35 -52c-34 40.667 -82 61 -144 61c-32.667 0 -58.667 -7.16699 -78 -21.5
s-29 -32.5 -29 -54.5c0 -19.333 10.333 -34.5 31 -45.5s45.667 -19.667 75 -26s58.5 -13.833 87.5 -22.5s53.833 -23.834 74.5 -45.501s31 -49.834 31 -84.501c0 -42.667 -16.667 -77.667 -50 -105s-80 -41 -140 -41z" />
    <glyph glyph-name="Scircumflex" unicode="&#x15c;" horiz-adv-x="586" 
d="M418 723h-51l-83 106l-80 -106h-51l95 144h72zM294 -12c-108 0 -193.334 35.3301 -256.001 105.997l49 63c56.667 -63.333 126.667 -95 210 -95c54 0 93.667 11.5 119 34.5s38 49.833 38 80.5c0 23.333 -7.33301 43 -22 59s-33.5 28.5 -56.5 37.5
s-48.5 17.167 -76.5 24.5s-56.167 15.5 -84.5 24.5s-54 19.833 -77 32.5s-41.833 30.667 -56.5 54s-22 51 -22 83c0 54.667 21.667 99.167 65 133.5s98 51.5 164 51.5c99.333 0 178.333 -31 237 -93l-50 -61c-48.667 53.333 -113 80 -193 80
c-40 0 -72.833 -9.83301 -98.5 -29.5s-38.5 -45.167 -38.5 -76.5c0 -23.333 9.83301 -42.666 29.5 -57.999s44 -26.666 73 -33.999s60.667 -16.5 95 -27.5s66 -22.667 95 -35s53.333 -32.166 73 -59.499s29.5 -60.333 29.5 -99c0 -54.667 -20.167 -101 -60.5 -139
s-102.166 -57 -185.499 -57z" />
    <glyph glyph-name="scircumflex" unicode="&#x15d;" horiz-adv-x="465" 
d="M361 556h-51l-83 106l-80 -106h-51l95 144h72zM228 -12c-82 0 -147 25.3389 -195 76.0059l39 54c16.667 -19.333 39.5 -35.666 68.5 -48.999s59.167 -20 90.5 -20c36 0 64 7.66699 84 23s30 35.333 30 60c0 21.333 -10.333 38.166 -31 50.499s-45.5 21.666 -74.5 27.999
s-58.167 13.666 -87.5 21.999s-54.333 22.666 -75 42.999s-31 47.166 -31 80.499c0 39.333 16.167 72.333 48.5 99s76.166 40 131.499 40c72.667 0 132.334 -23.333 179.001 -70l-35 -52c-34 40.667 -82 61 -144 61c-32.667 0 -58.667 -7.16699 -78 -21.5
s-29 -32.5 -29 -54.5c0 -19.333 10.333 -34.5 31 -45.5s45.667 -19.667 75 -26s58.5 -13.833 87.5 -22.5s53.833 -23.834 74.5 -45.501s31 -49.834 31 -84.501c0 -42.667 -16.667 -77.667 -50 -105s-80 -41 -140 -41z" />
    <glyph glyph-name="Scedilla" unicode="&#x15e;" horiz-adv-x="586" 
d="M288 -191c-42.667 0 -76.333 9.99609 -101 29.9961l19 38c23.333 -19.333 50 -29 80 -29c16.667 0 31 3.83301 43 11.5s18 17.834 18 30.501c0 23.333 -12.333 35 -37 35c-15.333 0 -28 -5.66699 -38 -17l-33 19l23 62c-93.333 7.33301 -168 42.333 -224 105l49 63
c56.667 -63.333 126.667 -95 210 -95c54 0 93.667 11.5 119 34.5s38 49.833 38 80.5c0 23.333 -7.33301 43 -22 59s-33.5 28.5 -56.5 37.5s-48.5 17.167 -76.5 24.5s-56.167 15.5 -84.5 24.5s-54 19.833 -77 32.5s-41.833 30.667 -56.5 54s-22 51 -22 83
c0 54.667 21.667 99.167 65 133.5s98 51.5 164 51.5c99.333 0 178.333 -31 237 -93l-50 -61c-48.667 53.333 -113 80 -193 80c-40 0 -72.833 -9.83301 -98.5 -29.5s-38.5 -45.167 -38.5 -76.5c0 -23.333 9.83301 -42.666 29.5 -57.999s44 -26.666 73 -33.999
s60.667 -16.5 95 -27.5s66 -22.667 95 -35s53.333 -32.166 73 -59.499s29.5 -60.333 29.5 -99c0 -53.333 -19.167 -98.833 -57.5 -136.5s-97.166 -57.5 -176.499 -59.5l-17 -43c10.667 7.33301 23 11 37 11c19.333 0 35.166 -6.16699 47.499 -18.5s18.5 -28.5 18.5 -48.5
c0 -24 -10 -43.333 -30 -58s-44.667 -22 -74 -22z" />
    <glyph glyph-name="scedilla" unicode="&#x15f;" horiz-adv-x="465" 
d="M227 -191c-42 0 -75.666 10.0068 -100.999 30.0068l19 38c23.333 -19.333 50 -29 80 -29c16.667 0 31 3.83301 43 11.5s18 17.834 18 30.501c0 23.333 -12.333 35 -37 35c-15.333 0 -28 -5.66699 -38 -17l-33 19l23 62c-70 5.33301 -126 30.333 -168 75l39 54
c16.667 -19.333 39.5 -35.666 68.5 -48.999s59.167 -20 90.5 -20c36 0 64 7.66699 84 23s30 35.333 30 60c0 21.333 -10.333 38.166 -31 50.499s-45.5 21.666 -74.5 27.999s-58.167 13.666 -87.5 21.999s-54.333 22.666 -75 42.999s-31 47.166 -31 80.499
c0 39.333 16.167 72.333 48.5 99s76.166 40 131.499 40c72.667 0 132.334 -23.333 179.001 -70l-35 -52c-34 40.667 -82 61 -144 61c-32.667 0 -58.667 -7.16699 -78 -21.5s-29 -32.5 -29 -54.5c0 -19.333 10.333 -34.5 31 -45.5s45.667 -19.667 75 -26
s58.5 -13.833 87.5 -22.5s53.833 -23.834 74.5 -45.501s31 -49.834 31 -84.501c0 -40.667 -15 -74.334 -45 -101.001s-72.667 -41.334 -128 -44.001l-17 -44c10.667 7.33301 23 11 37 11c19.333 0 35.166 -6.16699 47.499 -18.5s18.5 -28.5 18.5 -48.5
c0 -24 -10 -43.333 -30 -58s-44.667 -22 -74 -22z" />
    <glyph glyph-name="Scaron" unicode="&#x160;" horiz-adv-x="586" 
d="M323 723h-72l-98 144h51l83 -106l80 106h51zM294 -12c-108 0 -193.334 35.3301 -256.001 105.997l49 63c56.667 -63.333 126.667 -95 210 -95c54 0 93.667 11.5 119 34.5s38 49.833 38 80.5c0 23.333 -7.33301 43 -22 59s-33.5 28.5 -56.5 37.5s-48.5 17.167 -76.5 24.5
s-56.167 15.5 -84.5 24.5s-54 19.833 -77 32.5s-41.833 30.667 -56.5 54s-22 51 -22 83c0 54.667 21.667 99.167 65 133.5s98 51.5 164 51.5c99.333 0 178.333 -31 237 -93l-50 -61c-48.667 53.333 -113 80 -193 80c-40 0 -72.833 -9.83301 -98.5 -29.5
s-38.5 -45.167 -38.5 -76.5c0 -23.333 9.83301 -42.666 29.5 -57.999s44 -26.666 73 -33.999s60.667 -16.5 95 -27.5s66 -22.667 95 -35s53.333 -32.166 73 -59.499s29.5 -60.333 29.5 -99c0 -54.667 -20.167 -101 -60.5 -139s-102.166 -57 -185.499 -57z" />
    <glyph glyph-name="scaron" unicode="&#x161;" horiz-adv-x="465" 
d="M266 556h-72l-98 144h51l83 -106l80 106h51zM228 -12c-82 0 -147 25.3389 -195 76.0059l39 54c16.667 -19.333 39.5 -35.666 68.5 -48.999s59.167 -20 90.5 -20c36 0 64 7.66699 84 23s30 35.333 30 60c0 21.333 -10.333 38.166 -31 50.499s-45.5 21.666 -74.5 27.999
s-58.167 13.666 -87.5 21.999s-54.333 22.666 -75 42.999s-31 47.166 -31 80.499c0 39.333 16.167 72.333 48.5 99s76.166 40 131.499 40c72.667 0 132.334 -23.333 179.001 -70l-35 -52c-34 40.667 -82 61 -144 61c-32.667 0 -58.667 -7.16699 -78 -21.5
s-29 -32.5 -29 -54.5c0 -19.333 10.333 -34.5 31 -45.5s45.667 -19.667 75 -26s58.5 -13.833 87.5 -22.5s53.833 -23.834 74.5 -45.501s31 -49.834 31 -84.501c0 -42.667 -16.667 -77.667 -50 -105s-80 -41 -140 -41z" />
    <glyph glyph-name="Tcommaaccent" unicode="&#x162;" horiz-adv-x="570" 
d="M341 -138c0 -26 -6.66699 -51 -20 -75s-30.333 -43.667 -51 -59l-33 26c15.333 10 28.5 23.167 39.5 39.5s17.167 31.833 18.5 46.5c-1.33301 -1.33301 -5 -2 -11 -2c-12 0 -22 4.16699 -30 12.5s-12 18.833 -12 31.5c0 13.333 4.5 24.5 13.5 33.5s19.833 13.5 32.5 13.5
c14.667 0 27.167 -6 37.5 -18s15.5 -28.333 15.5 -49zM326 0h-83v593h-211v74h506v-74h-212v-593z" />
    <glyph glyph-name="tcommaaccent" unicode="&#x163;" horiz-adv-x="294" 
d="M203 -138c0 -26 -6.66699 -51 -20 -75s-30.333 -43.667 -51 -59l-33 26c15.333 10 28.5 23.167 39.5 39.5s17.167 31.833 18.5 46.5c-1.33301 -1.33301 -5 -2 -11 -2c-12 0 -22 4.16699 -30 12.5s-12 18.833 -12 31.5c0 13.333 4.5 24.5 13.5 33.5s19.833 13.5 32.5 13.5
c14.667 0 27.167 -6 37.5 -18s15.5 -28.333 15.5 -49zM197 -12c-35.333 0 -62 9.66699 -80 29s-27 47.333 -27 84v316h-80v66h80v132h75v-132h98v-66h-98v-300c0 -18.667 4.16699 -33.667 12.5 -45s20.5 -17 36.5 -17c22 0 39 6.66699 51 20l22 -56
c-22 -20.667 -52 -31 -90 -31z" />
    <glyph glyph-name="Tcaron" unicode="&#x164;" horiz-adv-x="570" 
d="M322 723h-72l-98 144h51l83 -106l80 106h51zM326 0h-83v593h-211v74h506v-74h-212v-593z" />
    <glyph glyph-name="tcaron" unicode="&#x165;" horiz-adv-x="313" 
d="M325 676c0 -26 -6.66699 -51 -20 -75s-30.333 -43.667 -51 -59l-33 26c15.333 10 28.5 23.167 39.5 39.5s17.167 31.833 18.5 46.5c-1.33301 -1.33301 -5 -2 -11 -2c-12 0 -22 4.16699 -30 12.5s-12 18.833 -12 31.5c0 13.333 4.5 24.5 13.5 33.5s19.833 13.5 32.5 13.5
c14.667 0 27.167 -6 37.5 -18s15.5 -28.333 15.5 -49zM197 -12c-35.333 0 -62 9.66699 -80 29s-27 47.333 -27 84v316h-80v66h80v132h75v-132h98v-66h-98v-300c0 -18.667 4.16699 -33.667 12.5 -45s20.5 -17 36.5 -17c22 0 39 6.66699 51 20l22 -56
c-22 -20.667 -52 -31 -90 -31z" />
    <glyph glyph-name="Tbar" unicode="&#x166;" horiz-adv-x="570" 
d="M326 0h-83v294h-150v48h150v251h-211v74h506v-74h-212v-251h152v-48h-152v-294z" />
    <glyph glyph-name="tbar" unicode="&#x167;" horiz-adv-x="294" 
d="M197 -12c-35.333 0 -62 9.66699 -80 29s-27 47.333 -27 84v125h-80v48h80v143h-80v66h80v132h75v-132h98v-66h-98v-143h70v-48h-70v-109c0 -18.667 4.16699 -33.667 12.5 -45s20.5 -17 36.5 -17c22 0 39 6.66699 51 20l22 -56c-22 -20.667 -52 -31 -90 -31z" />
    <glyph glyph-name="Utilde" unicode="&#x168;" horiz-adv-x="700" 
d="M350 -12c-88.667 0 -156.169 24.167 -202.502 72.5s-69.5 114.5 -69.5 198.5v408h83v-406c0 -62 16.333 -110.667 49 -146s79.334 -53 140.001 -53s107.334 17.667 140.001 53s49 84 49 146v406h83v-407c0 -84.667 -23.167 -151.167 -69.5 -199.5
s-113.833 -72.5 -202.5 -72.5zM411.998 721c-16.667 0 -31.166 4.83301 -43.499 14.5s-21.5 20.167 -27.5 31.5s-13.5 21.833 -22.5 31.5s-18.833 14.5 -29.5 14.5c-14 0 -25.5 -7.16699 -34.5 -21.5s-13.5 -35.833 -13.5 -64.5h-45c0 40 8.5 72.333 25.5 97
s40.833 37 71.5 37c16 0 30.167 -4.83301 42.5 -14.5s21.666 -20.167 27.999 -31.5s14 -21.833 23 -31.5s18.833 -14.5 29.5 -14.5c14 0 25.5 7.16699 34.5 21.5s13.5 35.833 13.5 64.5h45c0 -40 -8.5 -72.333 -25.5 -97s-40.833 -37 -71.5 -37z" />
    <glyph glyph-name="utilde" unicode="&#x169;" horiz-adv-x="551" 
d="M476 0h-74.999v68c-20 -22.667 -45.167 -41.667 -75.5 -57s-62.5 -23 -96.5 -23c-102.667 0 -154 51.333 -154 154v341h75v-318c0 -40 9.16699 -68.333 27.5 -85s45.166 -25 80.499 -25c28 0 55.167 7 81.5 21s46.833 31.333 61.5 52v355h75v-483zM335.001 554
c-16.667 0 -31.166 4.83301 -43.499 14.5s-21.5 20.167 -27.5 31.5s-13.5 21.833 -22.5 31.5s-18.833 14.5 -29.5 14.5c-14 0 -25.5 -7.16699 -34.5 -21.5s-13.5 -35.833 -13.5 -64.5h-45c0 40 8.5 72.333 25.5 97s40.833 37 71.5 37c16 0 30.167 -4.83301 42.5 -14.5
s21.666 -20.167 27.999 -31.5s14 -21.833 23 -31.5s18.833 -14.5 29.5 -14.5c14 0 25.5 7.16699 34.5 21.5s13.5 35.833 13.5 64.5h45c0 -40 -8.5 -72.333 -25.5 -97s-40.833 -37 -71.5 -37z" />
    <glyph glyph-name="Umacron" unicode="&#x16a;" horiz-adv-x="700" 
d="M350 -12c-88.667 0 -156.169 24.167 -202.502 72.5s-69.5 114.5 -69.5 198.5v408h83v-406c0 -62 16.333 -110.667 49 -146s79.334 -53 140.001 -53s107.334 17.667 140.001 53s49 84 49 146v406h83v-407c0 -84.667 -23.167 -151.167 -69.5 -199.5
s-113.833 -72.5 -202.5 -72.5zM531.998 739h-363v48h363v-48z" />
    <glyph glyph-name="umacron" unicode="&#x16b;" horiz-adv-x="551" 
d="M476 0h-74.999v68c-20 -22.667 -45.167 -41.667 -75.5 -57s-62.5 -23 -96.5 -23c-102.667 0 -154 51.333 -154 154v341h75v-318c0 -40 9.16699 -68.333 27.5 -85s45.166 -25 80.499 -25c28 0 55.167 7 81.5 21s46.833 31.333 61.5 52v355h75v-483zM456.001 572h-363v48
h363v-48z" />
    <glyph glyph-name="Ubreve" unicode="&#x16c;" horiz-adv-x="700" 
d="M350 -12c-88.667 0 -156.169 24.167 -202.502 72.5s-69.5 114.5 -69.5 198.5v408h83v-406c0 -62 16.333 -110.667 49 -146s79.334 -53 140.001 -53s107.334 17.667 140.001 53s49 84 49 146v406h83v-407c0 -84.667 -23.167 -151.167 -69.5 -199.5
s-113.833 -72.5 -202.5 -72.5zM527.998 793c-43.333 -58.667 -101.666 -88 -174.999 -88c-72.667 0 -131.334 29.333 -176.001 88l37 32c34.667 -48 81 -72 139 -72c58.667 0 104.667 24 138 72z" />
    <glyph glyph-name="ubreve" unicode="&#x16d;" horiz-adv-x="551" 
d="M476 0h-74.999v68c-20 -22.667 -45.167 -41.667 -75.5 -57s-62.5 -23 -96.5 -23c-102.667 0 -154 51.333 -154 154v341h75v-318c0 -40 9.16699 -68.333 27.5 -85s45.166 -25 80.499 -25c28 0 55.167 7 81.5 21s46.833 31.333 61.5 52v355h75v-483zM452.001 626
c-43.333 -58.667 -101.666 -88 -174.999 -88c-72.667 0 -131.334 29.333 -176.001 88l37 32c34.667 -48 81 -72 139 -72c58.667 0 104.667 24 138 72z" />
    <glyph glyph-name="Uring" unicode="&#x16e;" horiz-adv-x="700" 
d="M351 710c-27.333 0 -50.5 9.66699 -69.5 29s-28.5 42.333 -28.5 69c0 27.333 9.66699 50.666 29 69.999s42.333 29 69 29s49.667 -9.66699 69 -29s29 -42.666 29 -69.999c0 -26.667 -9.5 -49.667 -28.5 -69s-42.167 -29 -69.5 -29zM351 749c16 0 29.667 5.83301 41 17.5
s17 25.5 17 41.5c0 16.667 -5.5 30.667 -16.5 42s-24.833 17 -41.5 17c-16 0 -29.667 -5.66699 -41 -17s-17 -25.333 -17 -42c0 -16 5.66699 -29.833 17 -41.5s25 -17.5 41 -17.5zM350 -12c-88.667 0 -156.169 24.167 -202.502 72.5s-69.5 114.5 -69.5 198.5v408h83v-406
c0 -62 16.333 -110.667 49 -146s79.334 -53 140.001 -53s107.334 17.667 140.001 53s49 84 49 146v406h83v-407c0 -84.667 -23.167 -151.167 -69.5 -199.5s-113.833 -72.5 -202.5 -72.5z" />
    <glyph glyph-name="uring" unicode="&#x16f;" horiz-adv-x="551" 
d="M276 543c-26.667 0 -49.667 9.5 -69 28.5s-29 42.167 -29 69.5s9.66699 50.666 29 69.999s42.333 29 69 29s49.667 -9.66699 69 -29s29 -42.666 29 -69.999s-9.66699 -50.5 -29 -69.5s-42.333 -28.5 -69 -28.5zM276 582c16 0 29.667 5.83301 41 17.5s17 25.5 17 41.5
c0 16.667 -5.5 30.667 -16.5 42s-24.833 17 -41.5 17c-16 0 -29.667 -5.66699 -41 -17s-17 -25.333 -17 -42c0 -16 5.66699 -29.833 17 -41.5s25 -17.5 41 -17.5zM476 0h-74.999v68c-20 -22.667 -45.167 -41.667 -75.5 -57s-62.5 -23 -96.5 -23
c-102.667 0 -154 51.333 -154 154v341h75v-318c0 -40 9.16699 -68.333 27.5 -85s45.166 -25 80.499 -25c28 0 55.167 7 81.5 21s46.833 31.333 61.5 52v355h75v-483z" />
    <glyph glyph-name="Uhungarumlaut" unicode="&#x170;" horiz-adv-x="700" 
d="M350 -12c-88.667 0 -156.169 24.167 -202.502 72.5s-69.5 114.5 -69.5 198.5v408h83v-406c0 -62 16.333 -110.667 49 -146s79.334 -53 140.001 -53s107.334 17.667 140.001 53s49 84 49 146v406h83v-407c0 -84.667 -23.167 -151.167 -69.5 -199.5
s-113.833 -72.5 -202.5 -72.5zM403.998 867l-115 -144h-48l94 144h69zM545.998 867l-115 -144h-48l94 144h69z" />
    <glyph glyph-name="uhungarumlaut" unicode="&#x171;" horiz-adv-x="551" 
d="M476 0h-74.999v68c-20 -22.667 -45.167 -41.667 -75.5 -57s-62.5 -23 -96.5 -23c-102.667 0 -154 51.333 -154 154v341h75v-318c0 -40 9.16699 -68.333 27.5 -85s45.166 -25 80.499 -25c28 0 55.167 7 81.5 21s46.833 31.333 61.5 52v355h75v-483zM329.001 700l-115 -144
h-48l94 144h69zM471.001 700l-115 -144h-48l94 144h69z" />
    <glyph glyph-name="Uogonek" unicode="&#x172;" horiz-adv-x="700" 
d="M350 -12c-88.667 0 -156.168 24.165 -202.501 72.498s-69.5 114.5 -69.5 198.5v408h83v-406c0 -62 16.333 -110.667 49 -146s79.334 -53 140.001 -53s107.334 17.667 140.001 53s49 84 49 146v406h83v-407c0 -67.333 -14.833 -123.5 -44.5 -168.5
s-73.167 -75.5 -130.5 -91.5c-50.667 -25.333 -76 -57.666 -76 -96.999c0 -33.333 14.667 -50 44 -50c25.333 0 42.666 14 51.999 42l37 -21c-17.333 -40 -47 -60 -89 -60c-25.333 0 -46.5 7.33301 -63.5 22s-25.5 36.334 -25.5 65.001c0 32 13 61 39 87h-15z" />
    <glyph glyph-name="uogonek" unicode="&#x173;" horiz-adv-x="551" 
d="M476 0c-50.667 -25.333 -75.998 -57.668 -75.998 -97.001c0 -33.333 14.667 -50 44 -50c25.333 0 42.666 14 51.999 42l37 -21c-17.333 -40 -47 -60 -89 -60c-25.333 0 -46.5 7.33301 -63.5 22s-25.5 36.334 -25.5 65.001c0 38 17.667 71 53 99h-7v68
c-20 -22.667 -45.167 -41.667 -75.5 -57s-62.5 -23 -96.5 -23c-102.667 0 -154 51.333 -154 154v341h75v-318c0 -40 9.16699 -68.333 27.5 -85s45.166 -25 80.499 -25c28 0 55.167 7 81.5 21s46.833 31.333 61.5 52v355h75v-483z" />
    <glyph glyph-name="Wcircumflex" unicode="&#x174;" horiz-adv-x="883" 
d="M574 723h-51l-83 106l-80 -106h-51l95 144h72zM678 0h-90l-147 538l-147 -538h-90l-190 667h92l148 -556l153 556h69l153 -556l147 556h92z" />
    <glyph glyph-name="wcircumflex" unicode="&#x175;" horiz-adv-x="734" 
d="M500 556h-51l-83 106l-80 -106h-51l95 144h72zM568 0h-75l-126 388l-126 -388h-75l-154 483h78l118 -385l127 385h64l127 -385l118 385h78z" />
    <glyph glyph-name="Ycircumflex" unicode="&#x176;" horiz-adv-x="626" 
d="M447 723h-51l-83 106l-80 -106h-51l95 144h72zM355 0h-83v282l-263 385h97l207 -310l207 310h97l-262 -385v-282z" />
    <glyph glyph-name="ycircumflex" unicode="&#x177;" horiz-adv-x="490" 
d="M48 -189l12.001 68.001c12 -5.33301 25.667 -8 41 -8c17.333 0 31.666 3.66699 42.999 11s21 20.666 29 39.999l32 73l-202 488h81l161 -396l160 396h82l-242 -581c-26.667 -64 -74 -96.667 -142 -98c-20.667 0 -39 2.33301 -55 7zM378.001 556.001h-51l-83 106l-80 -106
h-51l95 144h72z" />
    <glyph glyph-name="Ydieresis" unicode="&#x178;" horiz-adv-x="626" 
d="M465 771c0 -12.667 -4.66699 -23.667 -14 -33s-20.333 -14 -33 -14s-23.667 4.66699 -33 14s-14 20.333 -14 33s4.66699 23.5 14 32.5s20.333 13.5 33 13.5s23.667 -4.5 33 -13.5s14 -19.833 14 -32.5zM258 771c0 -12.667 -4.5 -23.667 -13.5 -33s-19.833 -14 -32.5 -14
c-13.333 0 -24.5 4.66699 -33.5 14s-13.5 20.333 -13.5 33s4.66699 23.5 14 32.5s20.333 13.5 33 13.5s23.5 -4.5 32.5 -13.5s13.5 -19.833 13.5 -32.5zM355 0h-83v282l-263 385h97l207 -310l207 310h97l-262 -385v-282z" />
    <glyph glyph-name="Zacute" unicode="&#x179;" horiz-adv-x="585" 
d="M461 867l-169 -144h-57l148 144h78zM536 0h-488v69l375 524h-375v74h481v-69l-375 -524h382v-74z" />
    <glyph glyph-name="zacute" unicode="&#x17a;" horiz-adv-x="472" 
d="M404 700l-169 -144h-57l148 144h78zM420 0h-368v58l266 359h-266v66h364v-57l-268 -361h272v-65z" />
    <glyph glyph-name="Zdotaccent" unicode="&#x17b;" horiz-adv-x="585" 
d="M536 0h-488v69l375 524h-375v74h481v-69l-375 -524h382v-74zM290 722c-12.667 0 -23.667 4.66699 -33 14s-14 20.333 -14 33s4.66699 23.667 14 33s20.333 14 33 14s23.5 -4.5 32.5 -13.5s13.5 -20.167 13.5 -33.5s-4.5 -24.5 -13.5 -33.5s-19.833 -13.5 -32.5 -13.5z
" />
    <glyph glyph-name="zdotaccent" unicode="&#x17c;" horiz-adv-x="472" 
d="M420 0h-368v58l266 359h-266v66h364v-57l-268 -361h272v-65zM235 555c-12.667 0 -23.667 4.66699 -33 14s-14 20.333 -14 33s4.66699 23.667 14 33s20.333 14 33 14s23.5 -4.5 32.5 -13.5s13.5 -20.167 13.5 -33.5s-4.5 -24.5 -13.5 -33.5s-19.833 -13.5 -32.5 -13.5z
" />
    <glyph glyph-name="Zcaron" unicode="&#x17d;" horiz-adv-x="585" 
d="M327 723h-72l-98 144h51l83 -106l80 106h51zM536 0h-488v69l375 524h-375v74h481v-69l-375 -524h382v-74z" />
    <glyph glyph-name="zcaron" unicode="&#x17e;" horiz-adv-x="472" 
d="M268 556h-72l-98 144h51l83 -106l80 106h51zM420 0h-368v58l266 359h-266v66h364v-57l-268 -361h272v-65z" />
    <glyph glyph-name="longs" unicode="&#x17f;" horiz-adv-x="283" 
d="M171 0h-75v417h-80v66h80v37c0 49.333 12.5 87.833 37.5 115.5s59.167 41.5 102.5 41.5c41.333 0 75.333 -12.333 102 -37l-31 -53c-17.333 15.333 -37.333 23 -60 23c-24 0 -42.667 -8 -56 -24s-20 -38 -20 -66v-520z" />
    <glyph glyph-name="florin" unicode="&#x192;" horiz-adv-x="431" 
d="M109 -161h-83.998l92 415h-68v68h82l46 204c10 46.667 30.667 83.5 62 110.5s68.666 40.5 111.999 40.5c39.333 0 70.666 -12 93.999 -36l-37 -61c-12 15.333 -28.667 23 -50 23c-24 0 -45 -8.16699 -63 -24.5s-30.333 -38.833 -37 -67.5l-42 -189h139v-68h-154z" />
    <glyph glyph-name="Ohorn" unicode="&#x1a0;" horiz-adv-x="765" 
d="M382 -12c-98 0 -177.667 32.668 -239 98.001s-92 147.666 -92 246.999s30.667 181.666 92 246.999s141 98 239 98c102.667 0 185.667 -36.667 249 -110c27.333 22.667 42.666 48 45.999 76c-1.33301 -1.33301 -5 -2 -11 -2c-11.333 0 -20.666 4 -27.999 12
s-11 17.667 -11 29c0 12 4 22.333 12 31s18 13 30 13c14 0 25.833 -5.66699 35.5 -17s14.5 -26.666 14.5 -45.999c0 -24.667 -6.16699 -48.334 -18.5 -71.001s-27.833 -41 -46.5 -55c39.333 -60.667 59 -129 59 -205c0 -99.333 -30.833 -181.666 -92.5 -246.999
s-141.167 -98 -238.5 -98zM382 62.001c73.333 0 132.5 25.5 177.5 76.5s67.5 115.833 67.5 194.5c0 79.333 -22.5 144.333 -67.5 195s-104.167 76 -177.5 76c-74 0 -133.333 -25.333 -178 -76s-67 -115.667 -67 -195c0 -78.667 22.333 -143.5 67 -194.5s104 -76.5 178 -76.5
z" />
    <glyph glyph-name="ohorn" unicode="&#x1a1;" 
d="M527 530c0 -47.333 -19.3311 -87.334 -57.998 -120.001c37.333 -45.333 56 -101.333 56 -168c0 -72 -21.833 -132.333 -65.5 -181s-101.5 -73 -173.5 -73s-129.833 24.333 -173.5 73s-65.5 109 -65.5 181s21.833 132.167 65.5 180.5s101.5 72.5 173.5 72.5
c61.333 0 113.666 -19 156.999 -57c24.667 21.333 38.667 45.333 42 72c-0.666992 0 -2.33398 -0.166992 -5.00098 -0.5s-4.66699 -0.5 -6 -0.5c-11.333 0 -20.833 3.83301 -28.5 11.5s-11.5 17.5 -11.5 29.5c0 11.333 4.16699 21.333 12.5 30s18.5 13 30.5 13
c14 0 25.833 -5.66699 35.5 -17s14.5 -26.666 14.5 -45.999zM286.002 54.999c49.333 0 88.333 18.166 117 54.499s43 80.5 43 132.5s-14.333 96 -43 132s-67.667 54 -117 54s-88.5 -18.167 -117.5 -54.5s-43.5 -80.166 -43.5 -131.499c0 -52 14.5 -96.167 43.5 -132.5
s68.167 -54.5 117.5 -54.5z" />
    <glyph glyph-name="Uhorn" unicode="&#x1af;" horiz-adv-x="700" 
d="M738 728c0 -32 -10.3359 -62.001 -31.0029 -90.001s-49 -49.333 -85 -64v-314c0 -84.667 -23.167 -151.167 -69.5 -199.5s-113.833 -72.5 -202.5 -72.5s-156.167 24.167 -202.5 72.5s-69.5 114.5 -69.5 198.5v408h83v-406c0 -62 16.333 -110.667 49 -146
s79.334 -53 140.001 -53s107.334 17.667 140.001 53s49 84 49 146v406h83v-54c19.333 10 36 23.833 50 41.5s21.667 35.5 23 53.5h-5c-2.66699 -0.666992 -4.66699 -1 -6 -1c-11.333 0 -20.666 3.83301 -27.999 11.5s-11 17.5 -11 29.5s4.16699 22.167 12.5 30.5
s18.5 12.5 30.5 12.5c14 0 25.833 -5.66699 35.5 -17s14.5 -26.666 14.5 -45.999z" />
    <glyph glyph-name="uhorn" unicode="&#x1b0;" horiz-adv-x="551" 
d="M476 0l-74.999 -0.000976562v68c-20 -22.667 -45.167 -41.667 -75.5 -57s-62.5 -23 -96.5 -23c-102.667 0 -154 51.333 -154 154v341h75v-318c0 -40 9.16699 -68.333 27.5 -85s45.166 -25 80.499 -25c28 0 55.167 7 81.5 21s46.833 31.333 61.5 52v355h75v-48
c32 24 49 51 51 81h-5c-2.66699 -0.666992 -4.66699 -1 -6 -1c-11.333 0 -20.833 3.83301 -28.5 11.5s-11.5 17.5 -11.5 29.5c0 11.333 4.16699 21.333 12.5 30s18.5 13 30.5 13c14 0 26 -5.66699 36 -17s15 -26.666 15 -45.999c0 -28.667 -8.5 -56 -25.5 -82
s-39.833 -46.667 -68.5 -62v-392z" />
    <glyph glyph-name="AEacute" unicode="&#x1fc;" horiz-adv-x="947" 
d="M668 867l-169 -144h-57l148 144h78zM893 0h-437v148h-263l-91 -148h-95l416 667h470v-74h-354v-215h347v-74h-347v-230h354v-74zM456 222v359l-222 -359h222z" />
    <glyph glyph-name="aeacute" unicode="&#x1fd;" horiz-adv-x="889" 
d="M586 700l-169 -144h-57l148 144h78zM843 217l-366.999 -0.00195312c3.33301 -47.333 19.333 -86.666 48 -117.999s66.334 -47 113.001 -47c56 0 102.333 20.333 139 61l36 -51c-48 -49.333 -107.333 -74 -178 -74c-90.667 0 -155 38.667 -193 116
c-17.333 -34.667 -43.833 -62.667 -79.5 -84s-75.5 -32 -119.5 -32c-54.667 0 -100.667 14.167 -138 42.5s-56 67.5 -56 117.5s17.167 89 51.5 117s76.5 42 126.5 42c74.667 0 133 -21.333 175 -64v86c0 31.333 -12.167 56 -36.5 74s-56.5 27 -96.5 27
c-62.667 0 -116.334 -22.333 -161.001 -67l-35 52c52.667 53.333 121 80 205 80c42.667 0 79.667 -8.66699 111 -26s51.333 -43.666 60 -78.999c40 70 99.667 105 179 105c67.333 0 120.166 -24.333 158.499 -73s57.5 -110.667 57.5 -186v-19zM476.001 271.998h293.001
c-0.666992 42 -13.334 79.333 -38.001 112s-61 49 -109 49c-44 0 -78.833 -16.5 -104.5 -49.5s-39.5 -70.167 -41.5 -111.5zM401.002 179.998v12c-34.667 40.667 -83 61 -145 61c-39.333 0 -71 -9.16699 -95 -27.5s-36 -42.833 -36 -73.5c0 -30 12 -54.167 36 -72.5
s55.667 -27.5 95 -27.5c41.333 0 75.833 13 103.5 39s41.5 55.667 41.5 89z" />
    <glyph glyph-name="Oslashacute" unicode="&#x1fe;" horiz-adv-x="765" 
d="M552 867l-169 -144h-57l148 144h78zM382 -12c-64.667 0 -122.333 15.001 -173 45.001l-22 -33h-66l44 65c-76 65.333 -114 154.666 -114 267.999c0 99.333 30.667 181.666 92 246.999s141 98 239 98c61.333 0 117 -14 167 -42l21 31h66l-42 -62
c38 -31.333 67.333 -70.5 88 -117.5s31 -98.5 31 -154.5c0 -99.333 -30.833 -181.666 -92.5 -246.999s-141.167 -98 -238.5 -98zM382.001 62.001c73.333 0 132.5 25.5 177.5 76.5s67.5 115.833 67.5 194.5c0 86.667 -26 155 -78 205l-297 -441
c36.667 -23.333 80 -35 130 -35zM137.001 333.001c0 -84 24.332 -151 72.999 -201l296 440c-37.333 21.333 -78.666 32 -123.999 32c-74 0 -133.333 -25.333 -178 -76s-67 -115.667 -67 -195z" />
    <glyph glyph-name="oslashacute" unicode="&#x1ff;" 
d="M455 700l-169 -144h-57l148 144h78zM118 0l-54.002 0.000976562l48 61c-43.333 47.333 -65 107.666 -65 180.999c0 72 21.833 132.167 65.5 180.5s101.5 72.5 173.5 72.5c52.667 0 98.334 -13.667 137.001 -41l23 29h54l-45 -57c46.667 -48 70 -109.333 70 -184
c0 -72 -21.833 -132.333 -65.5 -181s-101.5 -73 -173.5 -73c-55.333 0 -102.666 15 -141.999 45zM285.998 55.001c49.333 0 88.333 18.166 117 54.499s43 80.5 43 132.5c0 48.667 -12.667 90.334 -38 125.001l-220 -278c28 -22.667 60.667 -34 98 -34zM124.998 242
c0 -46.667 11.333 -87.001 34 -121.001l219 277c-25.333 20 -56 30 -92 30c-49.333 0 -88.5 -18.167 -117.5 -54.5s-43.5 -80.166 -43.5 -131.499z" />
    <glyph glyph-name="Scommaaccent" unicode="&#x218;" horiz-adv-x="586" 
d="M345 -138c0 -26 -6.66699 -51 -20 -75s-30.333 -43.667 -51 -59l-33 26c15.333 10 28.5 23.167 39.5 39.5s17.167 31.833 18.5 46.5c-1.33301 -1.33301 -5 -2 -11 -2c-12 0 -22 4.16699 -30 12.5s-12 18.833 -12 31.5c0 13.333 4.5 24.5 13.5 33.5s19.833 13.5 32.5 13.5
c14.667 0 27.167 -6 37.5 -18s15.5 -28.333 15.5 -49zM294 -12c-108 0 -193.334 35.3301 -256.001 105.997l49 63c56.667 -63.333 126.667 -95 210 -95c54 0 93.667 11.5 119 34.5s38 49.833 38 80.5c0 23.333 -7.33301 43 -22 59s-33.5 28.5 -56.5 37.5
s-48.5 17.167 -76.5 24.5s-56.167 15.5 -84.5 24.5s-54 19.833 -77 32.5s-41.833 30.667 -56.5 54s-22 51 -22 83c0 54.667 21.667 99.167 65 133.5s98 51.5 164 51.5c99.333 0 178.333 -31 237 -93l-50 -61c-48.667 53.333 -113 80 -193 80
c-40 0 -72.833 -9.83301 -98.5 -29.5s-38.5 -45.167 -38.5 -76.5c0 -23.333 9.83301 -42.666 29.5 -57.999s44 -26.666 73 -33.999s60.667 -16.5 95 -27.5s66 -22.667 95 -35s53.333 -32.166 73 -59.499s29.5 -60.333 29.5 -99c0 -54.667 -20.167 -101 -60.5 -139
s-102.166 -57 -185.499 -57z" />
    <glyph glyph-name="scommaaccent" unicode="&#x219;" horiz-adv-x="465" 
d="M291 -138c0 -26 -6.66699 -51 -20 -75s-30.333 -43.667 -51 -59l-33 26c15.333 10 28.5 23.167 39.5 39.5s17.167 31.833 18.5 46.5c-1.33301 -1.33301 -5 -2 -11 -2c-12 0 -22 4.16699 -30 12.5s-12 18.833 -12 31.5c0 13.333 4.5 24.5 13.5 33.5s19.833 13.5 32.5 13.5
c14.667 0 27.167 -6 37.5 -18s15.5 -28.333 15.5 -49zM228 -12c-82 0 -147 25.3389 -195 76.0059l39 54c16.667 -19.333 39.5 -35.666 68.5 -48.999s59.167 -20 90.5 -20c36 0 64 7.66699 84 23s30 35.333 30 60c0 21.333 -10.333 38.166 -31 50.499
s-45.5 21.666 -74.5 27.999s-58.167 13.666 -87.5 21.999s-54.333 22.666 -75 42.999s-31 47.166 -31 80.499c0 39.333 16.167 72.333 48.5 99s76.166 40 131.499 40c72.667 0 132.334 -23.333 179.001 -70l-35 -52c-34 40.667 -82 61 -144 61
c-32.667 0 -58.667 -7.16699 -78 -21.5s-29 -32.5 -29 -54.5c0 -19.333 10.333 -34.5 31 -45.5s45.667 -19.667 75 -26s58.5 -13.833 87.5 -22.5s53.833 -23.834 74.5 -45.501s31 -49.834 31 -84.501c0 -42.667 -16.667 -77.667 -50 -105s-80 -41 -140 -41z" />
    <glyph glyph-name="uni021A" unicode="&#x21a;" horiz-adv-x="570" 
d="M341 -138c0 -26 -6.66699 -51 -20 -75s-30.333 -43.667 -51 -59l-33 26c15.333 10 28.5 23.167 39.5 39.5s17.167 31.833 18.5 46.5c-1.33301 -1.33301 -5 -2 -11 -2c-12 0 -22 4.16699 -30 12.5s-12 18.833 -12 31.5c0 13.333 4.5 24.5 13.5 33.5s19.833 13.5 32.5 13.5
c14.667 0 27.167 -6 37.5 -18s15.5 -28.333 15.5 -49zM326 0h-83v593h-211v74h506v-74h-212v-593z" />
    <glyph glyph-name="uni021B" unicode="&#x21b;" horiz-adv-x="294" 
d="M203 -138c0 -26 -6.66699 -51 -20 -75s-30.333 -43.667 -51 -59l-33 26c15.333 10 28.5 23.167 39.5 39.5s17.167 31.833 18.5 46.5c-1.33301 -1.33301 -5 -2 -11 -2c-12 0 -22 4.16699 -30 12.5s-12 18.833 -12 31.5c0 13.333 4.5 24.5 13.5 33.5s19.833 13.5 32.5 13.5
c14.667 0 27.167 -6 37.5 -18s15.5 -28.333 15.5 -49zM197 -12c-35.333 0 -62 9.66699 -80 29s-27 47.333 -27 84v316h-80v66h80v132h75v-132h98v-66h-98v-300c0 -18.667 4.16699 -33.667 12.5 -45s20.5 -17 36.5 -17c22 0 39 6.66699 51 20l22 -56
c-22 -20.667 -52 -31 -90 -31z" />
    <glyph glyph-name="uni0237" unicode="&#x237;" horiz-adv-x="225" 
d="M7 -196c-39.333 0 -74.667 12.001 -106 36.001l27 57c20.667 -20.667 43.667 -31 69 -31c24 0 43 7.16699 57 21.5s21 36.166 21 65.499v530h75v-530c0 -47.333 -12.333 -84 -37 -110s-60 -39 -106 -39z" />
    <glyph glyph-name="hsuperior" unicode="&#x2b0;" horiz-adv-x="398" 
d="M338 326h-58v202c0 48 -23.667 72 -71 72c-36 0 -66.667 -15.333 -92 -46v-228h-57v434h57v-165c31.333 35.333 70 53 116 53c70 0 105 -35.667 105 -107v-215z" />
    <glyph glyph-name="uni02BC" unicode="&#x2bc;" horiz-adv-x="230" 
d="M176 601c0 -29.333 -7.66504 -57.5029 -22.998 -84.5029s-35 -49.167 -59 -66.5l-37 31c16 10.667 30.333 24.834 43 42.501s20 34.5 22 50.5c-2.66699 -1.33301 -7.33398 -2 -14.001 -2c-14 0 -25.5 4.83301 -34.5 14.5s-13.5 21.834 -13.5 36.501
s5.16699 27.334 15.5 38.001s22.833 16 37.5 16c17.333 0 32.166 -6.83301 44.499 -20.5s18.5 -32.167 18.5 -55.5z" />
    <glyph glyph-name="circumflex" unicode="&#x2c6;" horiz-adv-x="265" 
d="M265 556h-51l-83 106l-80 -106h-51l95 144h72z" />
    <glyph glyph-name="caron" unicode="&#x2c7;" horiz-adv-x="265" 
d="M170 556h-72l-98 144h51l83 -106l80 106h51z" />
    <glyph glyph-name="uni02C9" unicode="&#x2c9;" horiz-adv-x="363" 
d="M363 591h-363v48h363v-48z" />
    <glyph glyph-name="uni02CB" unicode="&#x2cb;" horiz-adv-x="226" 
d="M226 556h-57l-169 144h78z" />
    <glyph glyph-name="breve" unicode="&#x2d8;" horiz-adv-x="351" 
d="M351 626c-43.333 -58.667 -101.666 -88 -174.999 -88c-72.667 0 -131.334 29.333 -176.001 88l37 32c34.667 -48 81 -72 139 -72c58.667 0 104.667 24 138 72z" />
    <glyph glyph-name="dotaccent" unicode="&#x2d9;" horiz-adv-x="111" 
d="M56 555c-12.667 0 -23.667 4.66699 -33 14s-14 20.333 -14 33s4.66699 23.667 14 33s20.333 14 33 14s23.5 -4.5 32.5 -13.5s13.5 -20.167 13.5 -33.5s-4.5 -24.5 -13.5 -33.5s-19.833 -13.5 -32.5 -13.5z" />
    <glyph glyph-name="ring" unicode="&#x2da;" horiz-adv-x="196" 
d="M98 543c-26.667 0 -49.667 9.5 -69 28.5s-29 42.167 -29 69.5s9.66699 50.666 29 69.999s42.333 29 69 29s49.667 -9.66699 69 -29s29 -42.666 29 -69.999s-9.66699 -50.5 -29 -69.5s-42.333 -28.5 -69 -28.5zM98 582c16 0 29.667 5.83301 41 17.5s17 25.5 17 41.5
c0 16.667 -5.5 30.667 -16.5 42s-24.833 17 -41.5 17c-16 0 -29.667 -5.66699 -41 -17s-17 -25.333 -17 -42c0 -16 5.66699 -29.833 17 -41.5s25 -17.5 41 -17.5z" />
    <glyph glyph-name="ogonek" unicode="&#x2db;" horiz-adv-x="178" 
d="M141 -105l37.001 -21.002c-17.333 -40 -47 -60 -89 -60c-25.333 0 -46.5 7.33301 -63.5 22s-25.5 36.334 -25.5 65.001c0 24.667 8 47.667 24 69s37.333 39 64 53l33 -23c-50.667 -25.333 -76 -57.666 -76 -96.999c0 -33.333 14.667 -50 44 -50
c25.333 0 42.666 14 51.999 42z" />
    <glyph glyph-name="tilde" unicode="&#x2dc;" horiz-adv-x="313" 
d="M216 554c-16.667 0 -31.166 4.83301 -43.499 14.5s-21.5 20.167 -27.5 31.5s-13.5 21.833 -22.5 31.5s-18.833 14.5 -29.5 14.5c-14 0 -25.5 -7.16699 -34.5 -21.5s-13.5 -35.833 -13.5 -64.5h-45c0 40 8.5 72.333 25.5 97s40.833 37 71.5 37
c16 0 30.167 -4.83301 42.5 -14.5s21.666 -20.167 27.999 -31.5s14 -21.833 23 -31.5s18.833 -14.5 29.5 -14.5c14 0 25.5 7.16699 34.5 21.5s13.5 35.833 13.5 64.5h45c0 -40 -8.5 -72.333 -25.5 -97s-40.833 -37 -71.5 -37z" />
    <glyph glyph-name="hungarumlaut" unicode="&#x2dd;" horiz-adv-x="305" 
d="M163 700l-115 -144h-48l94 144h69zM305 700l-115 -144h-48l94 144h69z" />
    <glyph glyph-name="hookabovecomb" unicode="&#x309;" horiz-adv-x="178" 
d="M48 726l-33.002 9.00195c12 36.667 36.333 55 73 55c20.667 0 37.834 -5.83301 51.501 -17.5s20.5 -28.834 20.5 -51.501c0 -18.667 -6.33301 -36.667 -19 -54h-40c15.333 15.333 23 32.666 23 51.999c0 26 -12 39 -36 39c-19.333 0 -32.666 -10.667 -39.999 -32z" />
    <glyph glyph-name="uni037E" unicode="&#x37e;" horiz-adv-x="230" 
d="M115 380c-14.667 0 -27.5 5.5 -38.5 16.5s-16.5 23.833 -16.5 38.5c0 15.333 5.33301 28.333 16 39s23.667 16 39 16s28.333 -5.33301 39 -16s16 -23.667 16 -39c0 -14.667 -5.5 -27.5 -16.5 -38.5s-23.833 -16.5 -38.5 -16.5zM176 26
c0 -30 -7.66602 -58.501 -22.999 -85.501s-35 -48.833 -59 -65.5l-37 30c16 10.667 30.333 25 43 43s20 35 22 51c-4 -2 -8.66699 -3 -14 -3c-14 0 -25.5 4.83301 -34.5 14.5s-13.5 21.834 -13.5 36.501c0 15.333 5.16699 28.333 15.5 39s22.833 16 37.5 16
c17.333 0 32.166 -6.83301 44.499 -20.5s18.5 -32.167 18.5 -55.5z" />
    <glyph glyph-name="tonos" unicode="&#x384;" horiz-adv-x="199" 
d="M137 565h-37l19 200h76z" />
    <glyph glyph-name="dieresistonos" unicode="&#x385;" horiz-adv-x="551" 
d="M281 565h-38l19 200h76zM456 604c0 -12.667 -4.5 -23.667 -13.5 -33s-19.833 -14 -32.5 -14s-23.5 4.5 -32.5 13.5s-13.5 20.167 -13.5 33.5c0 12.667 4.5 23.5 13.5 32.5s19.833 13.5 32.5 13.5s23.5 -4.5 32.5 -13.5s13.5 -19.833 13.5 -32.5zM187 604
c0 -12.667 -4.5 -23.667 -13.5 -33s-19.833 -14 -32.5 -14s-23.5 4.5 -32.5 13.5s-13.5 20.167 -13.5 33.5c0 12.667 4.5 23.5 13.5 32.5s19.833 13.5 32.5 13.5s23.5 -4.5 32.5 -13.5s13.5 -19.833 13.5 -32.5z" />
    <glyph glyph-name="Alphatonos" unicode="&#x386;" horiz-adv-x="658" 
d="M182 565h-37l19 200h76zM649 0h-95l-59 148h-332l-59 -148h-95l268 667h103zM470 222l-141 359l-142 -359h283z" />
    <glyph glyph-name="Epsilontonos" unicode="&#x388;" horiz-adv-x="586" 
d="M24 565h-37l19 200h76zM532 0h-437v667h437v-74h-354v-215h347v-74h-347v-230h354v-74z" />
    <glyph glyph-name="Etatonos" unicode="&#x389;" horiz-adv-x="729" 
d="M24 565h-37l19 200h76zM651 0h-83v306h-390v-306h-83v667h83v-287h390v287h83v-667z" />
    <glyph glyph-name="Iotatonos" unicode="&#x38a;" horiz-adv-x="255" 
d="M24 565h-37l19 200h76zM178 0h-83v667h83v-667z" />
    <glyph glyph-name="Omicrontonos" unicode="&#x38c;" horiz-adv-x="765" 
d="M59 565h-37l19 200h76zM382 -12c-98 0 -177.667 32.667 -239 98s-92 147.666 -92 246.999s30.667 181.666 92 246.999s141 98 239 98c97.333 0 176.833 -32.667 238.5 -98s92.5 -147.666 92.5 -246.999s-30.833 -181.666 -92.5 -246.999s-141.167 -98 -238.5 -98zM382 62
c73.333 0 132.5 25.5 177.5 76.5s67.5 115.833 67.5 194.5c0 79.333 -22.5 144.333 -67.5 195s-104.167 76 -177.5 76c-74 0 -133.333 -25.333 -178 -76s-67 -115.667 -67 -195c0 -78.667 22.333 -143.5 67 -194.5s104 -76.5 178 -76.5z" />
    <glyph glyph-name="Upsilontonos" unicode="&#x38e;" horiz-adv-x="684" 
d="M24 565h-37l19 200h76zM413 0h-83v282l-263 385h97l207 -310l207 310h97l-262 -385v-282z" />
    <glyph glyph-name="Omegatonos" unicode="&#x38f;" horiz-adv-x="769" 
d="M59 565h-37l19 200h76zM73 74h135.001c-102 61.333 -153 152.666 -153 273.999c0 96.667 30.667 175.834 92 237.501s141 92.5 239 92.5c98.667 0 178.5 -30.833 239.5 -92.5s91.5 -140.834 91.5 -237.501c0 -121.333 -50.333 -212.666 -151 -273.999h134v-74h-240v74
c47.333 12 87.666 41 120.999 87s50 103.667 50 173c0 76.667 -21.667 140.667 -65 192s-103.333 77 -180 77s-136.667 -25.667 -180 -77s-65 -115.333 -65 -192c0 -69.333 16.833 -127 50.5 -173s74.167 -75 121.5 -87v-74h-240v74z" />
    <glyph glyph-name="iotadieresistonos" unicode="&#x390;" horiz-adv-x="239" 
d="M125 565h-38l19 200h76zM300 604c0 -12.667 -4.5 -23.667 -13.5 -33s-19.833 -14 -32.5 -14s-23.5 4.5 -32.5 13.5s-13.5 20.167 -13.5 33.5c0 12.667 4.5 23.5 13.5 32.5s19.833 13.5 32.5 13.5s23.5 -4.5 32.5 -13.5s13.5 -19.833 13.5 -32.5zM31 604
c0 -12.667 -4.5 -23.667 -13.5 -33s-19.833 -14 -32.5 -14s-23.5 4.5 -32.5 13.5s-13.5 20.167 -13.5 33.5c0 12.667 4.5 23.5 13.5 32.5s19.833 13.5 32.5 13.5s23.5 -4.5 32.5 -13.5s13.5 -19.833 13.5 -32.5zM182 -12c-35.333 0 -61.999 9.66699 -79.999 29
s-27 47.333 -27 84v382h75v-370c0 -38.667 15.667 -58 47 -58c7.33301 0 13.666 0.666992 18.999 2l6 -65c-14.667 -2.66699 -28 -4 -40 -4z" />
    <glyph glyph-name="Alpha" unicode="&#x391;" horiz-adv-x="658" 
d="M649 0h-95l-59 148h-332l-59 -148h-95l268 667h103zM470 222l-141 359l-142 -359h283z" />
    <glyph glyph-name="Beta" unicode="&#x392;" horiz-adv-x="629" 
d="M382 0l-303.999 0.000976562v667h297c57.333 0 102.833 -15.667 136.5 -47s50.5 -72.333 50.5 -123c0 -40 -11.333 -73.833 -34 -101.5s-50.334 -44.834 -83.001 -51.501c35.333 -5.33301 65.833 -24 91.5 -56s38.5 -68 38.5 -108c0 -54 -17.167 -97.5 -51.5 -130.5
s-81.5 -49.5 -141.5 -49.5zM361.001 378.001c36.667 0 65 10.001 85 30.001s30 45.667 30 77s-10.167 57.166 -30.5 77.499s-48.5 30.5 -84.5 30.5h-200v-215h200zM365.001 74.002c38.667 0 69 10.333 91 31s33 48.667 33 84c0 32.667 -10.833 60 -32.5 82
s-52.167 33 -91.5 33h-204v-230h204z" />
    <glyph glyph-name="Gamma" unicode="&#x393;" horiz-adv-x="550" 
d="M161 0h-83v667h437v-74h-354v-593z" />
    <glyph glyph-name="uni0394" unicode="&#x394;" horiz-adv-x="658" 
d="M649 0h-640l268 667h103zM530 74l-201 507l-201 -507h402z" />
    <glyph glyph-name="Epsilon" unicode="&#x395;" horiz-adv-x="569" 
d="M515 0h-437v667h437v-74h-354v-215h347v-74h-347v-230h354v-74z" />
    <glyph glyph-name="Zeta" unicode="&#x396;" horiz-adv-x="585" 
d="M536 0h-488v69l375 524h-375v74h481v-69l-375 -524h382v-74z" />
    <glyph glyph-name="Eta" unicode="&#x397;" horiz-adv-x="712" 
d="M634 0h-83v306h-390v-306h-83v667h83v-287h390v287h83v-667z" />
    <glyph glyph-name="Theta" unicode="&#x398;" horiz-adv-x="765" 
d="M569 304h-373v74h373v-74zM382 -12c-98 0 -177.667 32.667 -239 98s-92 147.666 -92 246.999s30.667 181.666 92 246.999s141 98 239 98c97.333 0 176.833 -32.667 238.5 -98s92.5 -147.666 92.5 -246.999s-30.833 -181.666 -92.5 -246.999s-141.167 -98 -238.5 -98z
M382 62c73.333 0 132.5 25.5 177.5 76.5s67.5 115.833 67.5 194.5c0 79.333 -22.5 144.333 -67.5 195s-104.167 76 -177.5 76c-74 0 -133.333 -25.333 -178 -76s-67 -115.667 -67 -195c0 -78.667 22.333 -143.5 67 -194.5s104 -76.5 178 -76.5z" />
    <glyph glyph-name="Iota" unicode="&#x399;" horiz-adv-x="239" 
d="M161 0h-83v667h83v-667z" />
    <glyph glyph-name="Kappa" unicode="&#x39a;" horiz-adv-x="601" 
d="M584 0h-103l-253 300l-67 -76v-224h-83v667h83v-345l295 345h104l-278 -317z" />
    <glyph glyph-name="Lambda" unicode="&#x39b;" horiz-adv-x="658" 
d="M649 0h-95l-225 581l-225 -581h-95l268 667h103z" />
    <glyph glyph-name="Mu" unicode="&#x39c;" horiz-adv-x="809" 
d="M731 0h-83v549l-227 -549h-34l-226 549v-549h-83v667h119l207 -502l208 502h119v-667z" />
    <glyph glyph-name="Nu" unicode="&#x39d;" horiz-adv-x="708" 
d="M630 0h-80l-389 532v-532h-83v667h85l384 -521v521h83v-667z" />
    <glyph glyph-name="Xi" unicode="&#x39e;" horiz-adv-x="615" 
d="M560 593h-505v74h505v-74zM560 0h-506v74h506v-74zM554 304h-492v74h492v-74z" />
    <glyph glyph-name="Omicron" unicode="&#x39f;" horiz-adv-x="765" 
d="M382 -12c-98 0 -177.667 32.667 -239 98s-92 147.666 -92 246.999s30.667 181.666 92 246.999s141 98 239 98c97.333 0 176.833 -32.667 238.5 -98s92.5 -147.666 92.5 -246.999s-30.833 -181.666 -92.5 -246.999s-141.167 -98 -238.5 -98zM382 62
c73.333 0 132.5 25.5 177.5 76.5s67.5 115.833 67.5 194.5c0 79.333 -22.5 144.333 -67.5 195s-104.167 76 -177.5 76c-74 0 -133.333 -25.333 -178 -76s-67 -115.667 -67 -195c0 -78.667 22.333 -143.5 67 -194.5s104 -76.5 178 -76.5z" />
    <glyph glyph-name="Pi" unicode="&#x3a0;" horiz-adv-x="712" 
d="M634 0h-83v593h-390v-593h-83v667h556v-667z" />
    <glyph glyph-name="Rho" unicode="&#x3a1;" horiz-adv-x="587" 
d="M161 0l-83 0.00195312v667h268c64.667 0 115.667 -19.333 153 -58s56 -86.334 56 -143.001s-18.833 -104.334 -56.5 -143.001s-88.5 -58 -152.5 -58h-185v-265zM336 339.002c39.333 0 71.333 11.833 96 35.5s37 54.167 37 91.5s-12.333 67.833 -37 91.5
s-56.667 35.5 -96 35.5h-175v-254h175z" />
    <glyph glyph-name="Sigma" unicode="&#x3a3;" horiz-adv-x="575" 
d="M157 593l229 -250l-232 -269h367v-74h-467v74l231 268l-230 251v74h466v-74h-364z" />
    <glyph glyph-name="Tau" unicode="&#x3a4;" horiz-adv-x="570" 
d="M326 0h-83v593h-211v74h506v-74h-212v-593z" />
    <glyph glyph-name="Upsilon" unicode="&#x3a5;" horiz-adv-x="626" 
d="M355 0h-83v282l-263 385h97l207 -310l207 310h97l-262 -385v-282z" />
    <glyph glyph-name="Phi" unicode="&#x3a6;" horiz-adv-x="806" 
d="M444 0h-83v65c-96 6.66699 -171.667 34 -227 82s-83 110 -83 186c0 75.333 27.667 137 83 185s131 75.333 227 82v67h83v-67c95.333 -6.66699 171 -34.167 227 -82.5s84 -109.833 84 -184.5c0 -76 -27.833 -138 -83.5 -186s-131.5 -75.333 -227.5 -82v-65zM669 333
c0 53.333 -20 97.333 -60 132s-95 55 -165 61v-386c70 6 125 26.333 165 61s60 78.667 60 132zM137 333c0 -53.333 19.833 -97.333 59.5 -132s94.5 -55 164.5 -61v386c-70 -6 -124.833 -26.333 -164.5 -61s-59.5 -78.667 -59.5 -132z" />
    <glyph glyph-name="Chi" unicode="&#x3a7;" horiz-adv-x="652" 
d="M639 0h-100l-213 284l-213 -284h-101l260 342l-245 325h101l198 -267l197 267h101l-244 -324z" />
    <glyph glyph-name="Psi" unicode="&#x3a8;" horiz-adv-x="796" 
d="M440 0l-83.001 0.000976562v125c-91.333 6.66699 -160.666 33.834 -207.999 81.501s-71 110.5 -71 188.5v272h83v-270c0 -57.333 16.667 -103 50 -137s82 -54.333 146 -61v468h83v-467c62.667 6 110.667 26.167 144 60.5s50 79.833 50 136.5v270h84v-271
c0 -78.667 -23.667 -141.834 -71 -189.501s-116.333 -74.834 -207 -81.501v-125z" />
    <glyph glyph-name="uni03A9" unicode="&#x3a9;" horiz-adv-x="765" 
d="M69 74h135.001c-102 61.333 -153 152.666 -153 273.999c0 96.667 30.667 175.834 92 237.501s141 92.5 239 92.5c98.667 0 178.5 -30.833 239.5 -92.5s91.5 -140.834 91.5 -237.501c0 -121.333 -50.333 -212.666 -151 -273.999h134v-74h-240v74
c47.333 12 87.666 41 120.999 87s50 103.667 50 173c0 76.667 -21.667 140.667 -65 192s-103.333 77 -180 77s-136.667 -25.667 -180 -77s-65 -115.333 -65 -192c0 -69.333 16.833 -127 50.5 -173s74.167 -75 121.5 -87v-74h-240v74z" />
    <glyph glyph-name="Iotadieresis" unicode="&#x3aa;" horiz-adv-x="239" 
d="M161 0h-83v667h83v-667zM269 788c0 -12.667 -4.66699 -23.667 -14 -33s-20.333 -14 -33 -14s-23.667 4.66699 -33 14s-14 20.333 -14 33s4.66699 23.5 14 32.5s20.333 13.5 33 13.5s23.667 -4.5 33 -13.5s14 -19.833 14 -32.5zM62 788c0 -12.667 -4.5 -23.667 -13.5 -33
s-19.833 -14 -32.5 -14c-13.333 0 -24.5 4.5 -33.5 13.5s-13.5 20.167 -13.5 33.5c0 12.667 4.66699 23.5 14 32.5s20.333 13.5 33 13.5s23.5 -4.5 32.5 -13.5s13.5 -19.833 13.5 -32.5z" />
    <glyph glyph-name="Upsilondieresis" unicode="&#x3ab;" horiz-adv-x="626" 
d="M355 0h-83v282l-263 385h97l207 -310l207 310h97l-262 -385v-282zM463 788c0 -12.667 -4.66699 -23.667 -14 -33s-20.333 -14 -33 -14s-23.667 4.66699 -33 14s-14 20.333 -14 33s4.66699 23.5 14 32.5s20.333 13.5 33 13.5s23.667 -4.5 33 -13.5s14 -19.833 14 -32.5z
M256 788c0 -12.667 -4.5 -23.667 -13.5 -33s-19.833 -14 -32.5 -14c-13.333 0 -24.5 4.5 -33.5 13.5s-13.5 20.167 -13.5 33.5c0 12.667 4.66699 23.5 14 32.5s20.333 13.5 33 13.5s23.5 -4.5 32.5 -13.5s13.5 -19.833 13.5 -32.5z" />
    <glyph glyph-name="alphatonos" unicode="&#x3ac;" horiz-adv-x="589" 
d="M303 565h-37l19 200h76zM566 57l5 -65c-13.333 -2.66699 -26.333 -4 -39 -4c-60.667 0 -95.334 29.667 -104.001 89c-17.333 -26 -40.833 -47.333 -70.5 -64s-61.5 -25 -95.5 -25c-64 0 -115.833 22.833 -155.5 68.5s-59.5 107.167 -59.5 184.5
c0 76.667 19.833 138.167 59.5 184.5s91.5 69.5 155.5 69.5c67.333 0 121.333 -28.333 162 -85v73h76v-370c0 -18 4 -32.167 12 -42.5s19.333 -15.5 34 -15.5c6.66699 0 13.334 0.666992 20.001 2zM280 55c29.333 0 57.333 7.33398 84 22.001s47 32.667 61 54v219
c-14 22 -34.5 40.5 -61.5 55.5s-54.833 22.5 -83.5 22.5c-47.333 0 -85 -17.5 -113 -52.5s-42 -79.833 -42 -134.5s14 -99.334 42 -134.001s65.667 -52 113 -52z" />
    <glyph glyph-name="epsilontonos" unicode="&#x3ad;" horiz-adv-x="514" 
d="M265 565h-37l19 200h76zM268 -12c-68 0 -121.83 13.168 -161.497 39.501s-59.5 60.166 -59.5 101.499c0 36 14.833 64 44.5 84s61.5 31.333 95.5 34c-32.667 4 -62.5 16.333 -89.5 37s-40.5 47.667 -40.5 81c0 40.667 20.5 72.5 61.5 95.5s94.5 34.167 160.5 33.5
c82 0 148 -25.667 198 -77l-39 -46c-40.667 41.333 -94.667 62 -162 62c-40.667 0 -74.334 -7.16699 -101.001 -21.5s-40 -32.833 -40 -55.5c0 -26.667 13.333 -46.834 40 -60.501s61 -20.5 103 -20.5h108v-61h-108c-101.333 0 -152 -26.667 -152 -80
c0 -25.333 12.833 -45.666 38.5 -60.999s60.167 -23 103.5 -23c75.333 0 135.666 21.667 180.999 65l37 -48c-52.667 -52.667 -125.334 -79 -218.001 -79z" />
    <glyph glyph-name="etatonos" unicode="&#x3ae;" horiz-adv-x="551" 
d="M284 565h-37l19 200h76zM476 -184l-74.998 0.000976562v500c0 40.667 -9.33301 69.5 -28 86.5s-45.334 25.5 -80.001 25.5c-28 0 -55.167 -7.33301 -81.5 -22s-46.833 -32.334 -61.5 -53.001v-353h-75v483h75v-70c18.667 22 43.667 41.167 75 57.5
s63.666 24.5 96.999 24.5c102.667 0 154 -52 154 -156v-523z" />
    <glyph glyph-name="iotatonos" unicode="&#x3af;" horiz-adv-x="239" 
d="M129 565h-37l19 200h76zM182 -12c-35.333 0 -61.999 9.66699 -79.999 29s-27 47.333 -27 84v382h75v-370c0 -38.667 15.667 -58 47 -58c7.33301 0 13.666 0.666992 18.999 2l6 -65c-14.667 -2.66699 -28 -4 -40 -4z" />
    <glyph glyph-name="upsilondieresistonos" unicode="&#x3b0;" horiz-adv-x="562" 
d="M286 565h-38l19 200h76zM461 604c0 -12.667 -4.5 -23.667 -13.5 -33s-19.833 -14 -32.5 -14s-23.5 4.5 -32.5 13.5s-13.5 20.167 -13.5 33.5c0 12.667 4.5 23.5 13.5 32.5s19.833 13.5 32.5 13.5s23.5 -4.5 32.5 -13.5s13.5 -19.833 13.5 -32.5zM192 604
c0 -12.667 -4.5 -23.667 -13.5 -33s-19.833 -14 -32.5 -14s-23.5 4.5 -32.5 13.5s-13.5 20.167 -13.5 33.5c0 12.667 4.5 23.5 13.5 32.5s19.833 13.5 32.5 13.5s23.5 -4.5 32.5 -13.5s13.5 -19.833 13.5 -32.5zM275 -12c-65.333 0 -114.999 20 -148.999 60
s-51 94.667 -51 164v271h75v-270c0 -49.333 11 -88 33 -116s52.667 -42 92 -42c50 0 89.333 18.5 118 55.5s43 83.5 43 139.5c0 84 -24.333 154.333 -73 211l67 34c56.667 -71.333 85 -153 85 -245c0 -76 -21.833 -138.667 -65.5 -188s-101.834 -74 -174.501 -74z" />
    <glyph glyph-name="alpha" unicode="&#x3b1;" horiz-adv-x="589" 
d="M566 57l5 -65c-13.333 -2.66699 -26.333 -4 -39 -4c-60.667 0 -95.334 29.667 -104.001 89c-17.333 -26 -40.833 -47.333 -70.5 -64s-61.5 -25 -95.5 -25c-64 0 -115.833 22.833 -155.5 68.5s-59.5 107.167 -59.5 184.5c0 76.667 19.833 138.167 59.5 184.5
s91.5 69.5 155.5 69.5c67.333 0 121.333 -28.333 162 -85v73h76v-370c0 -18 4 -32.167 12 -42.5s19.333 -15.5 34 -15.5c6.66699 0 13.334 0.666992 20.001 2zM280 55c29.333 0 57.333 7.33398 84 22.001s47 32.667 61 54v219c-14 22 -34.5 40.5 -61.5 55.5
s-54.833 22.5 -83.5 22.5c-47.333 0 -85 -17.5 -113 -52.5s-42 -79.833 -42 -134.5s14 -99.334 42 -134.001s65.667 -52 113 -52z" />
    <glyph glyph-name="beta" unicode="&#x3b2;" horiz-adv-x="575" 
d="M150 455l-0.000976562 -323.999c14.667 -22 35.5 -40.167 62.5 -54.5s55.833 -21.5 86.5 -21.5c48 0 85.167 11.667 111.5 35s39.5 54.666 39.5 93.999c0 40.667 -14.667 71.5 -44 92.5s-67 31.5 -113 31.5h-35v67h33c42 0 76.333 10 103 30s40 49 40 87
c0 36 -12.5 64.667 -37.5 86s-56.167 32 -93.5 32c-43.333 0 -79.666 -13.5 -108.999 -40.5s-44 -65.167 -44 -114.5zM149.999 72.001l-0.000976562 -256.002h-75v639c0 72.667 22.333 127.834 67 165.501s98.334 56.5 161.001 56.5c61.333 0 111.666 -15.833 150.999 -47.5
s59 -75.167 59 -130.5c0 -44 -14.167 -79.167 -42.5 -105.5s-60.5 -42.833 -96.5 -49.5c36.667 -3.33301 71.5 -19.666 104.5 -48.999s49.5 -70 49.5 -122c0 -54.667 -19.667 -99.167 -59 -133.5s-88.666 -51.5 -147.999 -51.5c-72.667 0 -129.667 28 -171 84z" />
    <glyph glyph-name="gamma" unicode="&#x3b3;" horiz-adv-x="490" 
d="M283 -184h-75v135c0 100.667 -20.167 199 -60.5 295s-91.833 175 -154.5 237h88c44 -44 83 -103.667 117 -179s54.667 -145.666 62 -210.999c36.667 51.333 67 112.666 91 183.999s36 140 36 206h75c0 -77.333 -16.333 -159 -49 -245s-76 -163.667 -130 -233v-189z" />
    <glyph glyph-name="delta" unicode="&#x3b4;" 
d="M289 -12c-72 0 -130.334 23.333 -175.001 70s-67 101.667 -67 165c0 49.333 12.833 92 38.5 128s59.834 63 102.501 81c-54.667 24 -82 60 -82 108c0 39.333 16 72.333 48 99s75.667 40 131 40c74 0 133.667 -23.333 179 -70l-35 -52c-34 40.667 -82 61 -144 61
c-32.667 0 -58.667 -7.16699 -78 -21.5s-29 -32.5 -29 -54.5c0 -14.667 6.33301 -27.167 19 -37.5s29.167 -18.833 49.5 -25.5s43 -13.667 68 -21s49.833 -16.833 74.5 -28.5s47.167 -25.667 67.5 -42s36.833 -38.833 49.5 -67.5s19 -62 19 -100
c0 -62 -21.667 -116.167 -65 -162.5s-100.333 -69.5 -171 -69.5zM451.999 220c0 28.667 -4.83398 53.332 -14.501 73.999s-24.667 38 -45 52s-38.666 24.5 -54.999 31.5s-38.833 15.167 -67.5 24.5c-47.333 -14 -83.333 -36.667 -108 -68s-37 -68.333 -37 -111
c0 -43.333 14.833 -82.166 44.5 -116.499s68.834 -51.5 117.501 -51.5c49.333 0 89.166 17 119.499 51s45.5 72 45.5 114z" />
    <glyph glyph-name="epsilon" unicode="&#x3b5;" horiz-adv-x="514" 
d="M268 -12c-68 0 -121.83 13.168 -161.497 39.501s-59.5 60.166 -59.5 101.499c0 36 14.833 64 44.5 84s61.5 31.333 95.5 34c-32.667 4 -62.5 16.333 -89.5 37s-40.5 47.667 -40.5 81c0 40.667 20.5 72.5 61.5 95.5s94.5 34.167 160.5 33.5c82 0 148 -25.667 198 -77
l-39 -46c-40.667 41.333 -94.667 62 -162 62c-40.667 0 -74.334 -7.16699 -101.001 -21.5s-40 -32.833 -40 -55.5c0 -26.667 13.333 -46.834 40 -60.501s61 -20.5 103 -20.5h108v-61h-108c-101.333 0 -152 -26.667 -152 -80c0 -25.333 12.833 -45.666 38.5 -60.999
s60.167 -23 103.5 -23c75.333 0 135.666 21.667 180.999 65l37 -48c-52.667 -52.667 -125.334 -79 -218.001 -79z" />
    <glyph glyph-name="zeta" unicode="&#x3b6;" horiz-adv-x="489" 
d="M371 -48c0 13.333 -4.33301 22.668 -13 28.001s-23.334 8 -44.001 8c-80 0 -144.5 20 -193.5 60s-73.5 94.333 -73.5 163c0 151.333 100 281.333 300 390h-284v66h382v-57c-213.333 -122.667 -320 -254 -320 -394c0 -51.333 17.833 -91 53.5 -119s83.834 -42 144.501 -42
c44.667 0 77 -7 97 -21s30 -36.667 30 -68c0 -30.667 -14.667 -71.667 -44 -123h-81c30.667 47.333 46 83.666 46 108.999z" />
    <glyph glyph-name="eta" unicode="&#x3b7;" horiz-adv-x="551" 
d="M476 -184l-74.998 0.000976562v500c0 40.667 -9.33301 69.5 -28 86.5s-45.334 25.5 -80.001 25.5c-28 0 -55.167 -7.33301 -81.5 -22s-46.833 -32.334 -61.5 -53.001v-353h-75v483h75v-70c18.667 22 43.667 41.167 75 57.5s63.666 24.5 96.999 24.5
c102.667 0 154 -52 154 -156v-523z" />
    <glyph glyph-name="theta" unicode="&#x3b8;" 
d="M286 -12c-77.333 0 -136.5 32.5 -177.5 97.5s-61.5 147.833 -61.5 248.5s20.5 183.334 61.5 248.001s100.167 97 177.5 97s136.5 -32.333 177.5 -97s61.5 -147.334 61.5 -248.001s-20.5 -183.5 -61.5 -248.5s-100.167 -97.5 -177.5 -97.5zM286 55
c100 0 153 82.333 159 247h-319c3.33301 -76 17.833 -136.167 43.5 -180.5s64.5 -66.5 116.5 -66.5zM286 612c-51.333 0 -90 -22.167 -116 -66.5s-40.667 -103.5 -44 -177.5h319c-3.33301 74.667 -17.833 134 -43.5 178s-64.167 66 -115.5 66z" />
    <glyph glyph-name="iota" unicode="&#x3b9;" horiz-adv-x="239" 
d="M182 -12c-35.333 0 -61.999 9.66699 -79.999 29s-27 47.333 -27 84v382h75v-370c0 -38.667 15.667 -58 47 -58c7.33301 0 13.666 0.666992 18.999 2l6 -65c-14.667 -2.66699 -28 -4 -40 -4z" />
    <glyph glyph-name="kappa" unicode="&#x3ba;" horiz-adv-x="514" 
d="M500 0h-96l-174 217l-80 -79v-138h-75v483h75v-257l254 257h95l-214 -219z" />
    <glyph glyph-name="lambda" unicode="&#x3bb;" horiz-adv-x="490" 
d="M60 604l-12.001 67c14.667 5.33301 33 8 55 8c68 -1.33301 115.333 -34 142 -98l242 -581h-82l-160 396l-161 -396h-81l202 487l-32 73c-8 19.333 -17.667 32.833 -29 40.5s-25.666 11.5 -42.999 11.5c-15.333 0 -29 -2.66699 -41 -8z" />
    <glyph glyph-name="uni03BC" unicode="&#x3bc;" horiz-adv-x="565" 
d="M150 36l0.000976562 -220.001h-75v667h75v-318c0 -74.667 36.667 -112 110 -112c27.333 0 54 7.33301 80 22s46.333 32.334 61 53.001v355h75v-370c0 -38.667 15.667 -58 47 -58c7.33301 0 13.666 0.666992 18.999 2l6 -65c-14.667 -2.66699 -28 -4 -40 -4
c-58.667 0 -93.334 28.667 -104.001 86c-18 -24.667 -40.667 -45.167 -68 -61.5s-55.666 -24.5 -84.999 -24.5c-50 0 -83.667 16 -101 48z" />
    <glyph glyph-name="nu" unicode="&#x3bd;" horiz-adv-x="490" 
d="M279 0l-75.001 -0.000976562l-201 483h81l164 -407c42.667 59.333 76.5 125 101.5 197s37.5 142 37.5 210h75c0 -78 -16.667 -160.667 -50 -248s-77.666 -165.666 -132.999 -234.999z" />
    <glyph glyph-name="xi" unicode="&#x3be;" horiz-adv-x="489" 
d="M314 -12c-85.333 0 -151.168 16.168 -197.501 48.501s-69.5 77.5 -69.5 135.5c0 46 14.167 82.667 42.5 110s59.833 44.333 94.5 51c-32 5.33301 -61.167 19 -87.5 41s-39.5 51.667 -39.5 89c0 29.333 10.333 56.833 31 82.5s46.334 44.167 77.001 55.5h-100v66h371v-66
h-187c-32.667 -7.33301 -59.667 -22.5 -81 -45.5s-32 -47.833 -32 -74.5c0 -34 14.5 -60.167 43.5 -78.5s65.167 -27.5 108.5 -27.5h143v-65h-143c-48.667 0 -88 -10.5 -118 -31.5s-45 -52.5 -45 -94.5c0 -41.333 17.333 -73.166 52 -95.499s83.334 -33.5 146.001 -33.5
c44.667 0 77 -7 97 -21s30 -36.667 30 -68c0 -30.667 -14.667 -71.667 -44 -123h-81c30.667 47.333 46 83.666 46 108.999c0 13.333 -4.33301 22.666 -13 27.999s-23.334 8 -44.001 8z" />
    <glyph glyph-name="omicron" unicode="&#x3bf;" 
d="M286 -12c-72 0 -129.833 24.333 -173.5 73s-65.5 109 -65.5 181s21.833 132.167 65.5 180.5s101.5 72.5 173.5 72.5s129.833 -24.167 173.5 -72.5s65.5 -108.5 65.5 -180.5s-21.833 -132.333 -65.5 -181s-101.5 -73 -173.5 -73zM286 55
c49.333 0 88.333 18.166 117 54.499s43 80.5 43 132.5s-14.333 96 -43 132s-67.667 54 -117 54s-88.5 -18.167 -117.5 -54.5s-43.5 -80.166 -43.5 -131.499c0 -52 14.5 -96.167 43.5 -132.5s68.167 -54.5 117.5 -54.5z" />
    <glyph glyph-name="pi" unicode="&#x3c0;" horiz-adv-x="582" 
d="M492 0h-75v417h-252v-417h-75v417h-80v66h562v-66h-80v-417z" />
    <glyph glyph-name="rho" unicode="&#x3c1;" 
d="M313 -12c-68 0 -122.334 28.333 -163.001 85v-257h-75v426c0 72 20.5 132.167 61.5 180.5s95.5 72.5 163.5 72.5c68.667 0 123.834 -24.167 165.501 -72.5s62.5 -108.5 62.5 -180.5c0 -77.333 -19.833 -139 -59.5 -185s-91.5 -69 -155.5 -69zM293.999 55
c47.333 0 85.001 17.5 113.001 52.5s42 79.833 42 134.5c0 52 -13.333 96 -40 132s-63.334 54 -110.001 54c-46 0 -82.333 -18 -109 -54s-40 -80 -40 -132v-109c13.333 -22 33.5 -40.5 60.5 -55.5s54.833 -22.5 83.5 -22.5z" />
    <glyph glyph-name="sigma1" unicode="&#x3c2;" horiz-adv-x="483" 
d="M316 -12c-81.333 0 -146.499 22.6689 -195.499 68.002s-73.5 107.333 -73.5 186c0 72.667 22.333 133 67 181s102.667 72 174 72c74.667 0 133.667 -28 177 -84l-50 -46c-30.667 42 -71.667 63 -123 63c-50.667 0 -91.167 -17.333 -121.5 -52
s-45.5 -79.334 -45.5 -134.001c0 -60.667 17.667 -107 53 -139s82.666 -48 141.999 -48c44.667 0 77.5 -7 98.5 -21s31.5 -36.667 31.5 -68c0 -30 -14.333 -71 -43 -123h-78c30.667 47.333 46 83.666 46 108.999c0 24 -19.667 36 -59 36z" />
    <glyph glyph-name="sigma" unicode="&#x3c3;" 
d="M520 225c0 -66.667 -21.167 -122.833 -63.5 -168.5s-99.166 -68.5 -170.499 -68.5c-72 0 -129.833 24.333 -173.5 73s-65.5 109 -65.5 181c0 68.667 22.667 126 68 172s106.666 69 183.999 69h248v-67h-115c58.667 -46 88 -109.667 88 -191zM446 236.001
c0 41.333 -9.16602 77.832 -27.499 109.499s-42.5 55.167 -72.5 70.5h-47c-54.667 0 -97.334 -17.167 -128.001 -51.5s-46 -75.166 -46 -122.499c0 -52 14.5 -96.167 43.5 -132.5s68.167 -54.5 117.5 -54.5s88.333 17.833 117 53.5s43 78.167 43 127.5z" />
    <glyph glyph-name="tau" unicode="&#x3c4;" horiz-adv-x="468" 
d="M303 -12c-35.333 0 -62 9.66699 -80 29s-27 47.333 -27 84v316h-170v66h416v-66h-171v-300c0 -18.667 4.16699 -33.667 12.5 -45s20.5 -17 36.5 -17c22 0 39 6.66699 51 20l22 -56c-22 -20.667 -52 -31 -90 -31z" />
    <glyph glyph-name="upsilon" unicode="&#x3c5;" horiz-adv-x="562" 
d="M275 -12c-65.333 0 -114.999 20 -148.999 60s-51 94.667 -51 164v271h75v-270c0 -49.333 11 -88 33 -116s52.667 -42 92 -42c50 0 89.333 18.5 118 55.5s43 83.5 43 139.5c0 84 -24.333 154.333 -73 211l67 34c56.667 -71.333 85 -153 85 -245
c0 -76 -21.833 -138.667 -65.5 -188s-101.834 -74 -174.501 -74z" />
    <glyph glyph-name="phi" unicode="&#x3c6;" horiz-adv-x="744" 
d="M696 242c0 -72.667 -24.334 -131.667 -73.001 -177s-120 -70.666 -214 -75.999v-173h-75v174c-94.667 5.33301 -166.167 31.166 -214.5 77.499s-72.5 108.5 -72.5 186.5c0 55.333 16.667 103.333 50 144s76.333 73 129 97l32 -58
c-88.667 -43.333 -133 -104.333 -133 -183c0 -56 16.833 -101.5 50.5 -136.5s86.5 -55.5 158.5 -61.5v439h38c106.667 0 187.334 -22.833 242.001 -68.5s82 -107.167 82 -184.5zM617.999 242c0 52.667 -17.667 95.833 -53 129.5s-87.333 52.167 -156 55.5v-371
c71.333 5.33301 124 24.833 158 58.5s51 76.167 51 127.5z" />
    <glyph glyph-name="chi" unicode="&#x3c7;" horiz-adv-x="486" 
d="M475 -184h-84l-148 273l-148 -273h-83l185 343l-175 324h84l137 -254l137 254h84l-175 -324z" />
    <glyph glyph-name="psi" unicode="&#x3c8;" horiz-adv-x="744" 
d="M409 -184h-75v173c-84.667 5.33301 -149 28.5 -193 69.5s-66 95.5 -66 163.5v261h75v-261c0 -48 16 -86.167 48 -114.5s77.333 -45.166 136 -50.499v610h75v-611c58 5.33301 103.333 22.333 136 51s49 67 49 115v261h75v-261c0 -68.667 -22.167 -123.334 -66.5 -164.001
s-108.833 -63.667 -193.5 -69v-173z" />
    <glyph glyph-name="omega" unicode="&#x3c9;" horiz-adv-x="808" 
d="M760 242c0 -72 -17.3301 -132.336 -51.9971 -181.003s-80.334 -73 -137.001 -73c-44 0 -80 14.333 -108 43s-47.667 63.334 -59 104.001c-12 -41.333 -32 -76.166 -60 -104.499s-63.667 -42.5 -107 -42.5c-57.333 0 -103.333 24.333 -138 73s-52 109 -52 181
c0 114.667 32.667 199 98 253l54 -46c-49.333 -46 -74 -115 -74 -207c0 -52 10.833 -96.167 32.5 -132.5s51.167 -54.5 88.5 -54.5s66.666 18.167 87.999 54.5s32 80.5 32 132.5v123h75v-123c0 -52 10.667 -96.167 32 -132.5s50.666 -54.5 87.999 -54.5
s66.833 18.167 88.5 54.5s32.5 80.5 32.5 132.5c0 92.667 -24.667 161.667 -74 207l55 46c64.667 -53.333 97 -137.666 97 -252.999z" />
    <glyph glyph-name="iotadieresis" unicode="&#x3ca;" horiz-adv-x="239" 
d="M270 604c0 -12.667 -4.66699 -23.667 -14 -33s-20.333 -14 -33 -14s-23.667 4.66699 -33 14s-14 20.333 -14 33s4.66699 23.5 14 32.5s20.333 13.5 33 13.5s23.667 -4.5 33 -13.5s14 -19.833 14 -32.5zM63 604c0 -12.667 -4.5 -23.667 -13.5 -33s-19.833 -14 -32.5 -14
s-23.667 4.5 -33 13.5s-14 20.167 -14 33.5c0 12.667 4.66699 23.5 14 32.5s20.333 13.5 33 13.5s23.5 -4.5 32.5 -13.5s13.5 -19.833 13.5 -32.5zM182 -12c-35.333 0 -61.999 9.66699 -79.999 29s-27 47.333 -27 84v382h75v-370c0 -38.667 15.667 -58 47 -58
c7.33301 0 13.666 0.666992 18.999 2l6 -65c-14.667 -2.66699 -28 -4 -40 -4z" />
    <glyph glyph-name="upsilondieresis" unicode="&#x3cb;" horiz-adv-x="562" 
d="M430 604c0 -12.667 -4.66699 -23.667 -14 -33s-20.333 -14 -33 -14s-23.667 4.66699 -33 14s-14 20.333 -14 33s4.66699 23.5 14 32.5s20.333 13.5 33 13.5s23.667 -4.5 33 -13.5s14 -19.833 14 -32.5zM223 604c0 -12.667 -4.5 -23.667 -13.5 -33s-19.833 -14 -32.5 -14
s-23.667 4.5 -33 13.5s-14 20.167 -14 33.5c0 12.667 4.66699 23.5 14 32.5s20.333 13.5 33 13.5s23.5 -4.5 32.5 -13.5s13.5 -19.833 13.5 -32.5zM275 -12c-65.333 0 -114.999 20 -148.999 60s-51 94.667 -51 164v271h75v-270c0 -49.333 11 -88 33 -116s52.667 -42 92 -42
c50 0 89.333 18.5 118 55.5s43 83.5 43 139.5c0 84 -24.333 154.333 -73 211l67 34c56.667 -71.333 85 -153 85 -245c0 -76 -21.833 -138.667 -65.5 -188s-101.834 -74 -174.501 -74z" />
    <glyph glyph-name="omicrontonos" unicode="&#x3cc;" 
d="M294 565h-37l19 200h76zM286 -12c-72 0 -129.833 24.333 -173.5 73s-65.5 109 -65.5 181s21.833 132.167 65.5 180.5s101.5 72.5 173.5 72.5s129.833 -24.167 173.5 -72.5s65.5 -108.5 65.5 -180.5s-21.833 -132.333 -65.5 -181s-101.5 -73 -173.5 -73zM286 55
c49.333 0 88.333 18.166 117 54.499s43 80.5 43 132.5s-14.333 96 -43 132s-67.667 54 -117 54s-88.5 -18.167 -117.5 -54.5s-43.5 -80.166 -43.5 -131.499c0 -52 14.5 -96.167 43.5 -132.5s68.167 -54.5 117.5 -54.5z" />
    <glyph glyph-name="upsilontonos" unicode="&#x3cd;" horiz-adv-x="562" 
d="M290 565h-37l19 200h76zM275 -12c-65.333 0 -114.999 20 -148.999 60s-51 94.667 -51 164v271h75v-270c0 -49.333 11 -88 33 -116s52.667 -42 92 -42c50 0 89.333 18.5 118 55.5s43 83.5 43 139.5c0 84 -24.333 154.333 -73 211l67 34c56.667 -71.333 85 -153 85 -245
c0 -76 -21.833 -138.667 -65.5 -188s-101.834 -74 -174.501 -74z" />
    <glyph glyph-name="omegatonos" unicode="&#x3ce;" horiz-adv-x="808" 
d="M412 565h-37l19 200h76zM760 242c0 -72 -17.3301 -132.336 -51.9971 -181.003s-80.334 -73 -137.001 -73c-44 0 -80 14.333 -108 43s-47.667 63.334 -59 104.001c-12 -41.333 -32 -76.166 -60 -104.499s-63.667 -42.5 -107 -42.5c-57.333 0 -103.333 24.333 -138 73
s-52 109 -52 181c0 114.667 32.667 199 98 253l54 -46c-49.333 -46 -74 -115 -74 -207c0 -52 10.833 -96.167 32.5 -132.5s51.167 -54.5 88.5 -54.5s66.666 18.167 87.999 54.5s32 80.5 32 132.5v123h75v-123c0 -52 10.667 -96.167 32 -132.5s50.666 -54.5 87.999 -54.5
s66.833 18.167 88.5 54.5s32.5 80.5 32.5 132.5c0 92.667 -24.667 161.667 -74 207l55 46c64.667 -53.333 97 -137.666 97 -252.999z" />
    <glyph glyph-name="afii10023" unicode="&#x401;" horiz-adv-x="569" 
d="M446 771c0 -12.667 -4.66699 -23.667 -14 -33s-20.333 -14 -33 -14s-23.667 4.66699 -33 14s-14 20.333 -14 33s4.66699 23.5 14 32.5s20.333 13.5 33 13.5s23.667 -4.5 33 -13.5s14 -19.833 14 -32.5zM239 771c0 -12.667 -4.5 -23.667 -13.5 -33s-19.833 -14 -32.5 -14
s-23.667 4.66699 -33 14s-14 20.333 -14 33s4.66699 23.5 14 32.5s20.333 13.5 33 13.5s23.5 -4.5 32.5 -13.5s13.5 -19.833 13.5 -32.5zM515 0h-437v667h437v-74h-354v-215h347v-74h-347v-230h354v-74z" />
    <glyph glyph-name="afii10051" unicode="&#x402;" horiz-adv-x="769" 
d="M501 -12v73.999c41.333 0 74 12.333 98 37s36 58.334 36 101.001v8c0 48 -13.167 84.5 -39.5 109.5s-64.833 37.5 -115.5 37.5c-55.333 0 -106.666 -7.66699 -153.999 -23v-332h-83v593h-211v74h506v-74h-212v-187c56 15.333 109.667 23 161 23
c75.333 0 132.666 -20.333 171.999 -61s59 -94 59 -160v-8c0 -69.333 -20.333 -122 -61 -158s-92.667 -54 -156 -54z" />
    <glyph glyph-name="afii10052" unicode="&#x403;" horiz-adv-x="550" 
d="M454 867l-169 -144h-57l148 144h78zM161 0h-83v667h437v-74h-354v-593z" />
    <glyph glyph-name="afii10053" unicode="&#x404;" horiz-adv-x="676" 
d="M394 -12c-97.333 0 -178.834 32.1689 -244.501 96.502s-98.5 147.166 -98.5 248.499s32.833 184.166 98.5 248.499s147.167 96.5 244.5 96.5c106.667 0 191 -44 253 -132l-70 -39c-19.333 28.667 -45.333 52 -78 70s-67.667 27 -105 27
c-66 0 -122.5 -20.833 -169.5 -62.5s-75.167 -96.167 -84.5 -163.5h365v-74h-367c6.66699 -71.333 33.834 -129.5 81.501 -174.5s105.834 -67.5 174.501 -67.5c37.333 0 72.333 8.83301 105 26.5s58.667 41.167 78 70.5l71 -39c-64.667 -88 -149.334 -132 -254.001 -132z
" />
    <glyph glyph-name="afii10054" unicode="&#x405;" horiz-adv-x="586" 
d="M294 -12c-108 0 -193.334 35.3301 -256.001 105.997l49 63c56.667 -63.333 126.667 -95 210 -95c54 0 93.667 11.5 119 34.5s38 49.833 38 80.5c0 23.333 -7.33301 43 -22 59s-33.5 28.5 -56.5 37.5s-48.5 17.167 -76.5 24.5s-56.167 15.5 -84.5 24.5
s-54 19.833 -77 32.5s-41.833 30.667 -56.5 54s-22 51 -22 83c0 54.667 21.667 99.167 65 133.5s98 51.5 164 51.5c99.333 0 178.333 -31 237 -93l-50 -61c-48.667 53.333 -113 80 -193 80c-40 0 -72.833 -9.83301 -98.5 -29.5s-38.5 -45.167 -38.5 -76.5
c0 -23.333 9.83301 -42.666 29.5 -57.999s44 -26.666 73 -33.999s60.667 -16.5 95 -27.5s66 -22.667 95 -35s53.333 -32.166 73 -59.499s29.5 -60.333 29.5 -99c0 -54.667 -20.167 -101 -60.5 -139s-102.166 -57 -185.499 -57z" />
    <glyph glyph-name="afii10055" unicode="&#x406;" horiz-adv-x="239" 
d="M161 0h-83v667h83v-667z" />
    <glyph glyph-name="afii10056" unicode="&#x407;" horiz-adv-x="239" 
d="M161 0h-83v667h83v-667zM269 771c0 -12.667 -4.66699 -23.667 -14 -33s-20.333 -14 -33 -14s-23.667 4.66699 -33 14s-14 20.333 -14 33s4.66699 23.5 14 32.5s20.333 13.5 33 13.5s23.667 -4.5 33 -13.5s14 -19.833 14 -32.5zM62 771c0 -12.667 -4.5 -23.667 -13.5 -33
s-19.833 -14 -32.5 -14c-13.333 0 -24.5 4.66699 -33.5 14s-13.5 20.333 -13.5 33s4.66699 23.5 14 32.5s20.333 13.5 33 13.5s23.5 -4.5 32.5 -13.5s13.5 -19.833 13.5 -32.5z" />
    <glyph glyph-name="afii10057" unicode="&#x408;" horiz-adv-x="475" 
d="M185 -12c-72 0 -130 25.666 -174 76.999l43 63c36.667 -44 78.667 -66 126 -66c40.667 0 73.167 12.833 97.5 38.5s36.5 59.5 36.5 101.5v465h83v-466c0 -69.333 -19.667 -122.166 -59 -158.499s-90.333 -54.5 -153 -54.5z" />
    <glyph glyph-name="afii10058" unicode="&#x409;" horiz-adv-x="1060" 
d="M32 -12v74.002c28.667 0 52 6.66699 70 20s34 39.833 48 79.5s25.667 96.5 35 170.5l41 335h408v-265h185c64 0 114.833 -19.333 152.5 -58s56.5 -86.334 56.5 -143.001s-18.667 -104.334 -56 -143.001s-88.333 -58 -153 -58h-268v593h-251l-33 -267
c-8.66699 -71.333 -20.167 -130 -34.5 -176s-32 -80.5 -53 -103.5s-42.667 -38.5 -65 -46.5s-49.833 -12 -82.5 -12zM809 328.002h-175v-254h175c39.333 0 71.333 11.833 96 35.5s37 54.167 37 91.5s-12.333 67.833 -37 91.5s-56.667 35.5 -96 35.5z" />
    <glyph glyph-name="afii10059" unicode="&#x40a;" horiz-adv-x="1060" 
d="M78 0v667h83v-287h390v287h83v-287h197c60.667 0 108.667 -18.333 144 -55s53 -81.667 53 -135c0 -54 -17.667 -99.167 -53 -135.5s-83.333 -54.5 -144 -54.5h-280v306h-390v-306h-83zM634 74h187c36 0 65.167 10.667 87.5 32s33.5 49.333 33.5 84
c0 34 -11.167 61.833 -33.5 83.5s-51.5 32.5 -87.5 32.5h-187v-232z" />
    <glyph glyph-name="afii10060" unicode="&#x40b;" horiz-adv-x="785" 
d="M635 0l-0.000976562 201c0 102.667 -51.667 154 -155 154c-55.333 0 -106.666 -7.66699 -153.999 -23v-332h-83v593h-211v74h506v-74h-212v-187c56 15.333 109.667 23 161 23c76 0 133.5 -20.5 172.5 -61.5s58.5 -96.833 58.5 -167.5v-200h-83z" />
    <glyph glyph-name="afii10061" unicode="&#x40c;" horiz-adv-x="601" 
d="M473 867l-169 -144h-57l148 144h78zM584 0h-103l-253 300l-67 -76v-224h-83v667h83v-345l295 345h104l-278 -317z" />
    <glyph glyph-name="afii10062" unicode="&#x40e;" horiz-adv-x="626" 
d="M145 -12c-27.333 0 -52.667 5 -76 15s-41.333 22.667 -54 38l35 66c28.667 -30 59 -45 91 -45c25.333 0 45.5 6.66699 60.5 20s32.167 38.333 51.5 75l12 23l-256 487h95l209 -413l209 413h95l-291 -549c-23.333 -44 -48.333 -76.667 -75 -98s-62 -32 -106 -32z
M488.999 793c-43.333 -58.667 -101.666 -88 -174.999 -88c-72.667 0 -131.334 29.333 -176.001 88l37 32c34.667 -48 81 -72 139 -72c58.667 0 104.667 24 138 72z" />
    <glyph glyph-name="afii10145" unicode="&#x40f;" horiz-adv-x="712" 
d="M78 0v667h83v-593h390v593h83v-667h-236v-127h-83v127h-237z" />
    <glyph glyph-name="afii10017" unicode="&#x410;" horiz-adv-x="658" 
d="M649 0h-95l-59 148h-332l-59 -148h-95l268 667h103zM470 222l-141 359l-142 -359h283z" />
    <glyph glyph-name="afii10018" unicode="&#x411;" horiz-adv-x="587" 
d="M78 667l433 0.00195312v-74h-350v-191h185c64 0 114.833 -19.333 152.5 -58s56.5 -86.334 56.5 -143.001s-18.667 -104.334 -56 -143.001s-88.333 -58 -153 -58h-268v667zM336 328.002h-175v-254h175c39.333 0 71.333 11.833 96 35.5s37 54.167 37 91.5
s-12.333 67.833 -37 91.5s-56.667 35.5 -96 35.5z" />
    <glyph glyph-name="afii10019" unicode="&#x412;" horiz-adv-x="629" 
d="M382 0l-303.999 0.000976562v667h297c57.333 0 102.833 -15.667 136.5 -47s50.5 -72.333 50.5 -123c0 -40 -11.333 -73.833 -34 -101.5s-50.334 -44.834 -83.001 -51.501c35.333 -5.33301 65.833 -24 91.5 -56s38.5 -68 38.5 -108c0 -54 -17.167 -97.5 -51.5 -130.5
s-81.5 -49.5 -141.5 -49.5zM361.001 378.001c36.667 0 65 10.001 85 30.001s30 45.667 30 77s-10.167 57.166 -30.5 77.499s-48.5 30.5 -84.5 30.5h-200v-215h200zM365.001 74.002c38.667 0 69 10.333 91 31s33 48.667 33 84c0 32.667 -10.833 60 -32.5 82
s-52.167 33 -91.5 33h-204v-230h204z" />
    <glyph glyph-name="afii10020" unicode="&#x413;" horiz-adv-x="550" 
d="M161 0h-83v667h437v-74h-354v-593z" />
    <glyph glyph-name="afii10021" unicode="&#x414;" horiz-adv-x="723" 
d="M32 -123l0.00292969 190c29.333 2 52.666 9 69.999 21s33.166 37.333 47.499 76s26.166 94.667 35.499 168l41 335h408v-593h61v-197h-83v123h-497v-123h-83zM267.003 326c-15.333 -128.667 -49.333 -212.667 -102 -252h386v519h-251z" />
    <glyph glyph-name="afii10022" unicode="&#x415;" horiz-adv-x="569" 
d="M515 0h-437v667h437v-74h-354v-215h347v-74h-347v-230h354v-74z" />
    <glyph glyph-name="afii10024" unicode="&#x416;" horiz-adv-x="909" 
d="M120 0h-103l302 350l-278 317h104l268 -314v314h83v-314l269 314h104l-279 -317l303 -350h-104l-253 300l-40 -46v-254h-83v254l-40 46z" />
    <glyph glyph-name="afii10025" unicode="&#x417;" horiz-adv-x="584" 
d="M280 -12c-56 0 -106.333 10.334 -151 31.001s-78 47 -100 79l49 53c20 -26.667 48.167 -48.167 84.5 -64.5s74.833 -24.5 115.5 -24.5c52 0 93 11.167 123 33.5s45 52.833 45 91.5c0 40 -15.5 69.667 -46.5 89s-73.167 29 -126.5 29h-136v74h136
c47.333 0 86.166 9.16699 116.499 27.5s45.5 45.833 45.5 82.5c0 36 -15.167 64 -45.5 84s-68.5 30 -114.5 30c-75.333 0 -138.333 -27 -189 -81l-46 52c26.667 30.667 60.834 55.5 102.501 74.5s87.834 28.5 138.501 28.5c68 0 124.833 -16 170.5 -48
s68.5 -75.333 68.5 -130c0 -44 -14.833 -79.167 -44.5 -105.5s-62.834 -42.833 -99.501 -49.5c36.667 -3.33301 71.5 -19.333 104.5 -48s49.5 -67.334 49.5 -116.001c0 -56 -23 -102 -69 -138s-106.333 -54 -181 -54z" />
    <glyph glyph-name="afii10026" unicode="&#x418;" horiz-adv-x="708" 
d="M158 0h-80v667h83v-521l384 521h85v-667h-83v532z" />
    <glyph glyph-name="afii10027" unicode="&#x419;" horiz-adv-x="708" 
d="M158 0h-80v667h83v-521l384 521h85v-667h-83v532zM529 793c-43.333 -58.667 -101.666 -88 -174.999 -88c-72.667 0 -131.334 29.333 -176.001 88l37 32c34.667 -48 81 -72 139 -72c58.667 0 104.667 24 138 72z" />
    <glyph glyph-name="afii10028" unicode="&#x41a;" horiz-adv-x="601" 
d="M584 0h-103l-253 300l-67 -76v-224h-83v667h83v-345l295 345h104l-278 -317z" />
    <glyph glyph-name="afii10029" unicode="&#x41b;" horiz-adv-x="712" 
d="M32 -12v74c28.667 0 52 6.66699 70 20s34 39.833 48 79.5s25.667 96.5 35 170.5l41 335h408v-667h-83v593h-251l-33 -267c-8.66699 -71.333 -20.167 -130 -34.5 -176s-32 -80.5 -53 -103.5s-42.667 -38.5 -65 -46.5s-49.833 -12 -82.5 -12z" />
    <glyph glyph-name="afii10030" unicode="&#x41c;" horiz-adv-x="809" 
d="M731 0h-83v549l-227 -549h-34l-226 549v-549h-83v667h119l207 -502l208 502h119v-667z" />
    <glyph glyph-name="afii10031" unicode="&#x41d;" horiz-adv-x="712" 
d="M634 0h-83v306h-390v-306h-83v667h83v-287h390v287h83v-667z" />
    <glyph glyph-name="afii10032" unicode="&#x41e;" horiz-adv-x="765" 
d="M382 -12c-98 0 -177.667 32.667 -239 98s-92 147.666 -92 246.999s30.667 181.666 92 246.999s141 98 239 98c97.333 0 176.833 -32.667 238.5 -98s92.5 -147.666 92.5 -246.999s-30.833 -181.666 -92.5 -246.999s-141.167 -98 -238.5 -98zM382 62
c73.333 0 132.5 25.5 177.5 76.5s67.5 115.833 67.5 194.5c0 79.333 -22.5 144.333 -67.5 195s-104.167 76 -177.5 76c-74 0 -133.333 -25.333 -178 -76s-67 -115.667 -67 -195c0 -78.667 22.333 -143.5 67 -194.5s104 -76.5 178 -76.5z" />
    <glyph glyph-name="afii10033" unicode="&#x41f;" horiz-adv-x="712" 
d="M634 0h-83v593h-390v-593h-83v667h556v-667z" />
    <glyph glyph-name="afii10034" unicode="&#x420;" horiz-adv-x="587" 
d="M161 0l-83 0.00195312v667h268c64.667 0 115.667 -19.333 153 -58s56 -86.334 56 -143.001s-18.833 -104.334 -56.5 -143.001s-88.5 -58 -152.5 -58h-185v-265zM336 339.002c39.333 0 71.333 11.833 96 35.5s37 54.167 37 91.5s-12.333 67.833 -37 91.5
s-56.667 35.5 -96 35.5h-175v-254h175z" />
    <glyph glyph-name="afii10035" unicode="&#x421;" horiz-adv-x="676" 
d="M394 -12c-97.333 0 -178.832 32.1689 -244.499 96.502s-98.5 147.166 -98.5 248.499s32.833 184.166 98.5 248.499s147.167 96.5 244.5 96.5c106.667 0 191 -44 253 -132l-70 -39c-19.333 28.667 -45.333 52 -78 70s-67.667 27 -105 27
c-73.333 0 -134.5 -25.5 -183.5 -76.5s-73.5 -115.833 -73.5 -194.5s24.5 -143.5 73.5 -194.5s110.167 -76.5 183.5 -76.5c37.333 0 72.333 8.83301 105 26.5s58.667 41.167 78 70.5l71 -39c-64.667 -88 -149.334 -132 -254.001 -132z" />
    <glyph glyph-name="afii10036" unicode="&#x422;" horiz-adv-x="570" 
d="M326 0h-83v593h-211v74h506v-74h-212v-593z" />
    <glyph glyph-name="afii10037" unicode="&#x423;" horiz-adv-x="626" 
d="M145 -12c-27.333 0 -52.667 5 -76 15s-41.333 22.667 -54 38l35 66c28.667 -30 59 -45 91 -45c25.333 0 45.5 6.66699 60.5 20s32.167 38.333 51.5 75l12 23l-256 487h95l209 -413l209 413h95l-291 -549c-23.333 -44 -48.333 -76.667 -75 -98s-62 -32 -106 -32z" />
    <glyph glyph-name="afii10038" unicode="&#x424;" horiz-adv-x="806" 
d="M444 0h-83v65c-96 6.66699 -171.667 34 -227 82s-83 110 -83 186c0 75.333 27.667 137 83 185s131 75.333 227 82v67h83v-67c95.333 -6.66699 171 -34.167 227 -82.5s84 -109.833 84 -184.5c0 -76 -27.833 -138 -83.5 -186s-131.5 -75.333 -227.5 -82v-65zM669 333
c0 53.333 -20 97.333 -60 132s-95 55 -165 61v-386c70 6 125 26.333 165 61s60 78.667 60 132zM137 333c0 -53.333 19.833 -97.333 59.5 -132s94.5 -55 164.5 -61v386c-70 -6 -124.833 -26.333 -164.5 -61s-59.5 -78.667 -59.5 -132z" />
    <glyph glyph-name="afii10039" unicode="&#x425;" horiz-adv-x="652" 
d="M639 0h-100l-213 284l-213 -284h-101l260 342l-245 325h101l198 -267l197 267h101l-244 -324z" />
    </font>
</defs>
</svg>
